SplineFontDB: 3.0
FontName: Sancreek-Regular
FullName: Sancreek Regular
FamilyName: Sancreek
Weight: Regular
Copyright: Copyright (c) 2011 by vernon adams (vern@newtypography.co.uk), with Reserved Font Names "Sancreek"
Version: 001.002
ItalicAngle: 0
UnderlinePosition: -103
UnderlineWidth: 102
Ascent: 1638
Descent: 410
sfntRevision: 0x00010000
LayerCount: 2
Layer: 0 1 "Back"  1
Layer: 1 1 "Fore"  0
NeedsXUIDChange: 1
XUID: [1021 14 500265001 3978238]
FSType: 0
OS2Version: 3
OS2_WeightWidthSlopeOnly: 0
OS2_UseTypoMetrics: 0
CreationTime: 1314885505
ModificationTime: 1318189761
PfmFamily: 81
TTFWeight: 400
TTFWidth: 5
LineGap: 0
VLineGap: 0
Panose: 2 0 8 3 5 0 0 2 0 3
OS2TypoAscent: 2104
OS2TypoAOffset: 0
OS2TypoDescent: -738
OS2TypoDOffset: 0
OS2TypoLinegap: 0
OS2WinAscent: 2104
OS2WinAOffset: 0
OS2WinDescent: 738
OS2WinDOffset: 0
HheadAscent: 2104
HheadAOffset: 0
HheadDescent: -738
HheadDOffset: 0
OS2SubXSize: 1331
OS2SubYSize: 1228
OS2SubXOff: 0
OS2SubYOff: 153
OS2SupXSize: 1331
OS2SupYSize: 1228
OS2SupXOff: 0
OS2SupYOff: 716
OS2StrikeYSize: 102
OS2StrikeYPos: 852
OS2Vendor: 'newt'
OS2CodePages: 20000083.00000000
OS2UnicodeRanges: 00000007.00000000.00000000.00000000
MarkAttachClasses: 1
DEI: 91125
TtTable: prep
PUSHW_1
 511
SCANCTRL
PUSHB_1
 4
SCANTYPE
EndTTInstrs
LangName: 1033 "" "" "" "" "" "Version 1.002" "" "Sancreek is a trademark of vernon adams." "vernon adams" "vernon adams" "" "" "" "" "http://scripts.sil.org/OFL" 
GaspTable: 1 65535 15
Encoding: Custom
Compacted: 1
UnicodeInterp: none
NameList: Adobe Glyph List
DisplaySize: -48
AntiAlias: 1
FitToEm: 1
WidthSeparation: 207
WinInfo: 54 18 9
BeginPrivate: 0
EndPrivate
GridOrder2: 1
Grid
-2048 613.799804688 m 1,0,-1
 4096 613.799804688 l 1
-2048 134 m 1,2,-1
 4096 134 l 1
-2048 -69.509765625 m 1,4,-1
 4096 -69.509765625 l 1
-2048 -50.509765625 m 5,6,-1
 4096 -50.509765625 l 1
-2048 1372.09997559 m 1,8,-1
 4096 1372.09997559 l 1
-2048 1392 m 1,10,-1
 4096 1392 l 1
-2048 1586.16666667 m 1,12,-1

StartChar: A.alt
Encoding: 405 -1 0
Width: 1267
Flags: HW
LayerCount: 2
Fore
SplineSet
239.16 1218.344 m 2,0,-1
 239 1263 l 2,1,2
 239 1395 239 1395 145 1503 c 1,3,4
 145 1508.8 145 1508.8 154 1521.4 c 128,-1,5
 163 1534 163 1534 174 1541.5 c 0,6,7
 204.066666667 1562 204.066666667 1562 246.033333333 1562 c 128,-1,8
 288 1562 288 1562 316 1551 c 128,-1,9
 344 1540 344 1540 362 1524.5 c 0,10,11
 400.914285714 1490.99047619 400.914285714 1490.99047619 420 1456 c 1,12,13
 450 1509 450 1509 504 1535.5 c 128,-1,14
 558 1562 558 1562 620 1562 c 0,15,16
 769 1562 769 1562 829 1456 c 1,17,18
 860.971428571 1519.94285714 860.971428571 1519.94285714 946 1550.5 c 0,19,20
 978 1562 978 1562 1017 1562 c 128,-1,21
 1056 1562 1056 1562 1084 1547 c 128,-1,22
 1112 1532 1112 1532 1118 1517.5 c 2,23,-1
 1124 1503 l 1,24,25
 1030 1395 1030 1395 1030 1263 c 2,26,-1
 1029.84 1218.344 l 2,27,28
 1029.84 1092.13866667 1029.84 1092.13866667 1049.92 991.069333333 c 128,-1,29
 1070 890 1070 890 1085.5 856.5 c 128,-1,30
 1101 823 1101 823 1115.5 804 c 128,-1,31
 1130 785 1130 785 1139.5 775.5 c 128,-1,32
 1149 766 1149 766 1149 756.5 c 128,-1,33
 1149 747 1149 747 1139 733.5 c 128,-1,34
 1129 720 1129 720 1117 701.5 c 0,35,36
 1085 652.166666667 1085 652.166666667 1085 510 c 0,37,38
 1085 481 1085 481 1093 375 c 1,39,40
 1110 232 1110 232 1147 154.5 c 128,-1,41
 1184 77 1184 77 1264 10 c 1,42,43
 1264 -27.575 1264 -27.575 1215 -43.5 c 0,44,45
 1195 -50 1195 -50 1160 -50 c 128,-1,46
 1125 -50 1125 -50 1083 -28.5 c 128,-1,47
 1041 -7 1041 -7 1021 14 c 2,48,-1
 1001 35 l 1,49,50
 964.768115942 -19.347826087 964.768115942 -19.347826087 895 -41 c 0,51,52
 866 -50 866 -50 836 -50 c 128,-1,53
 806 -50 806 -50 784 -44 c 128,-1,54
 762 -38 762 -38 751 -29 c 0,55,56
 726.8 -9.2 726.8 -9.2 722 10 c 1,57,58
 780 117 780 117 780 257 c 0,59,60
 780 468 780 468 739 610 c 1,61,62
 707 640 707 640 624.5 640 c 128,-1,63
 542 640 542 640 510 610 c 1,64,65
 469 468 469 468 469 257 c 0,66,67
 469 114 469 114 527 10 c 1,68,69
 527 -7.90909090909 527 -7.90909090909 507 -22.4545454545 c 0,70,71
 469.125 -50 469.125 -50 420.0625 -50 c 128,-1,72
 371 -50 371 -50 334 -28.5 c 128,-1,73
 297 -7 297 -7 282.5 14 c 2,74,-1
 268 35 l 1,75,76
 183 -50 183 -50 101 -50 c 0,77,78
 46 -50 46 -50 31 -35 c 0,79,80
 6.72727272727 -10.7272727273 6.72727272727 -10.7272727273 5 10 c 1,81,82
 85 77 85 77 122 154.5 c 128,-1,83
 159 232 159 232 176 375 c 1,84,85
 184 428 184 428 184 505 c 128,-1,86
 184 582 184 582 174 632.5 c 128,-1,87
 164 683 164 683 152 701.5 c 128,-1,88
 140 720 140 720 130 733.5 c 128,-1,89
 120 747 120 747 120 756.5 c 128,-1,90
 120 766 120 766 129.5 775.5 c 128,-1,91
 139 785 139 785 153.5 804 c 128,-1,92
 168 823 168 823 183.5 856.5 c 0,93,94
 221.316432938 938.232290543 221.316432938 938.232290543 237 1148 c 0,95,96
 239.16 1177.52 239.16 1177.52 239.16 1218.344 c 2,0,-1
535 817 m 2,97,98
 535 790 535 790 624.5 790 c 128,-1,99
 714 790 714 790 714 817 c 2,100,-1
 714.043895748 898.103763399 l 2,101,102
 714.043895748 1140.21552068 714.043895748 1140.21552068 693 1302 c 1,103,104
 686 1341 686 1341 672.5 1356.5 c 128,-1,105
 659 1372 659 1372 623 1372 c 128,-1,106
 587 1372 587 1372 575.5 1357 c 128,-1,107
 564 1342 564 1342 556 1302 c 1,108,109
 534.956104252 1140.21552068 534.956104252 1140.21552068 534.956104252 898.103763399 c 2,110,-1
 535 817 l 2,97,98
EndSplineSet
EndChar

StartChar: exclam
Encoding: 23 33 2
Width: 611
Flags: HW
LayerCount: 2
Fore
SplineSet
455 1586.90039062 m 0,0,1
 480.76 1586.90039062 480.76 1586.90039062 500.14523506 1581.06408783 c 0,2,3
 548.396013595 1566.53725066 548.396013595 1566.53725066 551 1532.90039062 c 1,4,5
 509.636380464 1474.72126633 509.636380464 1474.72126633 494.720589062 1431.0290327 c 0,6,7
 484.109038331 1399.94503982 484.109038331 1399.94503982 478.485582369 1378.85023721 c 128,-1,8
 472.862126407 1357.75543459 472.862126407 1357.75543459 466.400245777 1307.4811092 c 128,-1,9
 459.938365148 1257.20678381 459.938365148 1257.20678381 456.582652723 1221.94967054 c 128,-1,10
 453.226940297 1186.69255728 453.226940297 1186.69255728 444.65935499 1089.27540313 c 128,-1,11
 436.091769683 991.858248983 436.091769683 991.858248983 418.657723456 862.802047728 c 0,12,13
 355.719631771 396.900390625 355.719631771 396.900390625 305 396.900390625 c 1,14,15
 292.709817534 403.687365976 292.709817534 403.687365976 266.028389257 470.435216858 c 1,16,17
 231.07587847 589.509344874 231.07587847 589.509344874 192.07527284 864.532930778 c 0,18,19
 177.416288377 967.904824821 177.416288377 967.904824821 172.253641578 1018.50798433 c 128,-1,20
 167.090994779 1069.11114384 167.090994779 1069.11114384 159.206010385 1157.90682065 c 128,-1,21
 151.321025991 1246.70249745 151.321025991 1246.70249745 143.257765877 1308.97912261 c 0,22,23
 126.570937169 1437.85991795 126.570937169 1437.85991795 59 1532.90039062 c 1,24,25
 59 1536.83059497 59 1536.83059497 62.1812439261 1543.61904951 c 0,26,27
 64.4130223518 1548.38144018 64.4130223518 1548.38144018 68.063654033 1554.1409154 c 128,-1,28
 71.7142857143 1559.90039062 71.7142857143 1559.90039062 79.0792031098 1565.65986584 c 128,-1,29
 86.4441205053 1571.41934106 86.4441205053 1571.41934106 96.1044703596 1576.18173173 c 128,-1,30
 105.764820214 1580.9441224 105.764820214 1580.9441224 121.096695821 1583.92225651 c 128,-1,31
 136.428571429 1586.90039062 136.428571429 1586.90039062 158.874285714 1586.90039062 c 128,-1,32
 181.32 1586.90039062 181.32 1586.90039062 206.737398406 1578.57825516 c 0,33,34
 270.002520427 1557.86406141 270.002520427 1557.86406141 305 1509.90039062 c 1,35,36
 366.475728155 1586.90039062 366.475728155 1586.90039062 455 1586.90039062 c 0,0,1
303 -124.099609375 m 0,37,38
 294.477313027 -124.099609375 294.477313027 -124.099609375 192.738656513 -31.4766870859 c 128,-1,39
 91 61.1462352032 91 61.1462352032 91 66.900390625 c 0,40,41
 91 66.9344800696 91 66.9344800696 196.477634669 158.417435347 c 128,-1,42
 301.955269338 249.900390625 301.955269338 249.900390625 302 249.900390625 c 2,43,-1
 513 59.900390625 l 2,44,45
 513 59.8823577959 513 59.8823577959 408.013588744 -32.1086257895 c 128,-1,46
 303.027177489 -124.099609375 303.027177489 -124.099609375 303 -124.099609375 c 0,37,38
EndSplineSet
EndChar

StartChar: quotedbl
Encoding: 24 34 3
Width: 700
Flags: HW
LayerCount: 2
Fore
SplineSet
246 1284 m 2,0,-1
 245 1192 l 1,1,-1
 212 841 l 1,2,3
 184 810 184 810 137 810 c 1,4,5
 116 823 116 823 111 870 c 2,6,-1
 88 1113 l 1,7,8
 80 1308 80 1308 80 1332 c 1,9,10
 118 1395 118 1395 204 1395 c 1,11,12
 246 1370 246 1370 246 1284 c 2,0,-1
618 1284 m 2,13,-1
 617 1192 l 1,14,-1
 584 841 l 1,15,16
 554 810 554 810 508 810 c 1,17,18
 487 824 487 824 483 870 c 2,19,-1
 460 1113 l 1,20,21
 452 1308 452 1308 452 1332 c 1,22,23
 490 1395 490 1395 576 1395 c 1,24,25
 618 1370 618 1370 618 1284 c 2,13,-1
EndSplineSet
EndChar

StartChar: numbersign
Encoding: 25 35 4
Width: 1149
Flags: HW
LayerCount: 2
Fore
SplineSet
1064 510 m 1,0,-1
 1064 381 l 1,1,-1
 816 381 l 1,2,-1
 747 -8 l 1,3,-1
 611 -8 l 1,4,-1
 679 381 l 1,5,-1
 375 381 l 1,6,-1
 306 -8 l 1,7,-1
 169 -8 l 1,8,-1
 237 381 l 1,9,-1
 56 381 l 1,10,-1
 56 510 l 1,11,-1
 261 510 l 1,12,-1
 314 807 l 1,13,-1
 83 807 l 1,14,-1
 83 937 l 1,15,-1
 338 937 l 1,16,-1
 405 1326 l 1,17,-1
 542 1326 l 1,18,-1
 475 937 l 1,19,-1
 778 937 l 1,20,-1
 845 1326 l 1,21,-1
 983 1326 l 1,22,-1
 915 937 l 1,23,-1
 1089 937 l 1,24,-1
 1089 807 l 1,25,-1
 891 807 l 1,26,-1
 839 510 l 1,27,-1
 1064 510 l 1,0,-1
755 807 m 1,28,-1
 450 807 l 1,29,-1
 397 510 l 1,30,-1
 702 510 l 1,31,-1
 755 807 l 1,28,-1
EndSplineSet
EndChar

StartChar: dollar
Encoding: 26 36 5
Width: 1053
Flags: HW
LayerCount: 2
Fore
SplineSet
523 -217 m 1,0,-1
 412 -217 l 1,1,-1
 412 43 l 1,2,-1
 523 43 l 1,3,-1
 523 -217 l 1,0,-1
523 1353 m 1,4,-1
 412 1353 l 1,5,-1
 412 1603 l 1,6,-1
 523 1603 l 1,7,-1
 523 1353 l 1,4,-1
703 -217 m 1,8,-1
 592 -217 l 1,9,-1
 592 43 l 1,10,-1
 703 43 l 1,11,-1
 703 -217 l 1,8,-1
703 1353 m 1,12,-1
 592 1353 l 1,13,-1
 592 1603 l 1,14,-1
 703 1603 l 1,15,-1
 703 1353 l 1,12,-1
87 356 m 1,16,17
 87 289 87 289 112 231 c 0,18,19
 157.752979415 124.853087757 157.752979415 124.853087757 270.5 61.5 c 0,20,21
 372.830508475 4 372.830508475 4 485 4 c 0,22,23
 719 4 719 4 858.5 104.5 c 128,-1,24
 998 205 998 205 998 377 c 0,25,26
 998 616 998 616 774 762 c 1,27,28
 727.565622354 787.618966977 727.565622354 787.618966977 702.5 869.5 c 0,29,30
 695 894 695 894 688 894 c 128,-1,31
 681 894 681 894 637.5 882 c 128,-1,32
 594 870 594 870 571 870 c 128,-1,33
 548 870 548 870 537 875 c 0,34,35
 413 921 413 921 413 1058 c 0,36,37
 413 1217 413 1217 546 1217 c 0,38,39
 601 1217 601 1217 637.5 1194 c 128,-1,40
 674 1171 674 1171 674 1127 c 0,41,42
 674 1116 674 1116 673 1110 c 0,43,44
 659 1057 659 1057 628.5 1032.5 c 128,-1,45
 598 1008 598 1008 546 1000 c 1,46,-1
 546 996 l 2,47,48
 546 970.333333333 546 970.333333333 575 951 c 0,49,50
 596 937 596 937 638.5 937 c 128,-1,51
 681 937 681 937 744 979 c 1,52,53
 744 971 744 971 757 945 c 128,-1,54
 770 919 770 919 806 884.5 c 128,-1,55
 842 850 842 850 871 842.5 c 128,-1,56
 900 835 900 835 919 835 c 128,-1,57
 938 835 938 835 952 848 c 1,58,59
 909 892 909 892 909 946 c 1,60,-1
 923 1081 l 1,61,62
 923 1199.40909091 923 1199.40909091 851 1272.5 c 0,63,64
 818 1306 818 1306 777.5 1331.5 c 128,-1,65
 737 1357 737 1357 668.75 1378 c 128,-1,66
 600.5 1399 600.5 1399 527 1399 c 0,67,68
 326 1399 326 1399 207.5 1297.5 c 128,-1,69
 89 1196 89 1196 89 1006 c 128,-1,70
 89 816 89 816 275 695 c 1,71,72
 327.659003831 652.214559387 327.659003831 652.214559387 350 582 c 0,73,74
 357 560 357 560 363.5 556.5 c 128,-1,75
 370 553 370 553 373.5 553 c 128,-1,76
 377 553 377 553 410 561 c 128,-1,77
 443 569 443 569 469 569 c 0,78,79
 550 569 550 569 612 505.5 c 128,-1,80
 674 442 674 442 674 335 c 0,81,82
 674 292.342857143 674 292.342857143 639.5 247 c 0,83,84
 622 224 622 224 588 209.5 c 128,-1,85
 554 195 554 195 500.5 195 c 128,-1,86
 447 195 447 195 408.5 224.5 c 128,-1,87
 370 254 370 254 370 307.5 c 128,-1,88
 370 361 370 361 401 389.5 c 128,-1,89
 432 418 432 418 475 427 c 1,90,-1
 475 430 l 2,91,92
 475 436 475 436 472 444 c 0,93,94
 453.625 493 453.625 493 385 493 c 0,95,96
 320 493 320 493 252 446 c 1,97,98
 252 458.263157895 252 458.263157895 235.5 493 c 0,99,100
 226 513 226 513 212 532 c 128,-1,101
 198 551 198 551 174 569 c 128,-1,102
 150 587 150 587 129.5 592.5 c 128,-1,103
 109 598 109 598 90 598 c 128,-1,104
 71 598 71 598 56 584 c 1,105,106
 98 537 98 537 98 474 c 1,107,-1
 87 356 l 1,16,17
EndSplineSet
EndChar

StartChar: percent
Encoding: 27 37 6
Width: 1746
Flags: HW
LayerCount: 2
Fore
SplineSet
375.5 1220 m 0,0,1
 254 1220 254 1220 254 966 c 0,2,3
 254 712 254 712 375.5 712 c 0,4,5
 497 712 497 712 497 966 c 0,6,7
 497 1220 497 1220 375.5 1220 c 0,0,1
458 -16 m 1,8,-1
 322 -16 l 1,9,-1
 1298 1330 l 1,10,-1
 1429 1330 l 1,11,-1
 458 -16 l 1,8,-1
1375 596 m 128,-1,13
 1253 596 1253 596 1253 342 c 128,-1,14
 1253 88 1253 88 1375 88 c 128,-1,15
 1497 88 1497 88 1497 342 c 128,-1,12
 1497 596 1497 596 1375 596 c 128,-1,13
376 1340 m 128,-1,17
 527 1340 527 1340 607.5 1241 c 128,-1,18
 688 1142 688 1142 688 967 c 128,-1,19
 688 792 688 792 607.5 693 c 128,-1,20
 527 594 527 594 376 594 c 128,-1,21
 225 594 225 594 144 693 c 128,-1,22
 63 792 63 792 63 967 c 128,-1,23
 63 1142 63 1142 144 1241 c 128,-1,16
 225 1340 225 1340 376 1340 c 128,-1,17
1375 715 m 128,-1,25
 1526 715 1526 715 1606.5 616 c 128,-1,26
 1687 517 1687 517 1687 342.5 c 0,27,28
 1687 168 1687 168 1606.5 68.5 c 128,-1,29
 1526 -31 1526 -31 1375 -31 c 128,-1,30
 1224 -31 1224 -31 1143.5 68.5 c 128,-1,31
 1063 168 1063 168 1063 342.5 c 0,32,33
 1063 517 1063 517 1143.5 616 c 128,-1,24
 1224 715 1224 715 1375 715 c 128,-1,25
EndSplineSet
EndChar

StartChar: ampersand
Encoding: 28 38 7
Width: 1741
Flags: HW
LayerCount: 2
Back
SplineSet
741.446537334 1230.70106928 m 4,0,1
 758.059809133 1230.70106928 758.059809133 1230.70106928 773.786605473 1225.43013384 c 0
 789.513401813 1220.1591984 789.513401813 1220.1591984 802.124003273 1211.17691795 c 0
 814.734604733 1202.19463751 814.734604733 1202.19463751 826.222878658 1190.64227462 c 0
 837.711152582 1179.08991173 837.711152582 1179.08991173 846.57848844 1166.15312508 c 0
 855.445824297 1153.21633844 855.445824297 1153.21633844 862.90623995 1140.43525114 c 0
 870.366655602 1127.65416384 870.366655602 1127.65416384 875.701390001 1115.81557404 c 0
 881.036124399 1103.97698424 881.036124399 1103.97698424 884.679345924 1095.01987556 c 0
 888.322567449 1086.06276689 888.322567449 1086.06276689 890.335364533 1080.37507697 c 0
 892.348161616 1074.68738705 892.348161616 1074.68738705 892.43359375 1074.58203125 c 1,2,3
 893.312534052 1076.79297905 893.312534052 1076.79297905 895.20588861 1080.46228536 c 0
 897.099243168 1084.13159167 897.099243168 1084.13159167 904.85459775 1093.51121257 c 0
 912.609952333 1102.89083346 912.609952333 1102.89083346 922.48502408 1110.05950656 c 0
 932.360095828 1117.22817966 932.360095828 1117.22817966 950.125678025 1123.10843377 c 0
 967.891260221 1128.98868788 967.891260221 1128.98868788 988.881862492 1128.98868788 c 0,4,5
 1003.19642546 1128.98868788 1003.19642546 1128.98868788 1017.36022575 1126.87044181 c 0
 1031.52402604 1124.75219574 1031.52402604 1124.75219574 1044.61541093 1120.54690486 c 0
 1057.70679582 1116.34161398 1057.70679582 1116.34161398 1068.85970407 1110.45611423 c 0
 1080.01261232 1104.57061448 1080.01261232 1104.57061448 1088.76316706 1096.63138094 c 0
 1097.5137218 1088.6921474 1097.5137218 1088.6921474 1102.53808594 1079.51074219 c 1,6,7
 1071.31647865 1076.2454386 1071.31647865 1076.2454386 1025.55041788 1042.8263112 c 0
 979.784357099 1009.40718379 979.784357099 1009.40718379 902.971392025 950.771019531 c 0
 826.158426951 892.134855268 826.158426951 892.134855268 748.875 849.19921875 c 1,8,-1
 602.706054688 998.504882812 l 1,9,10
 696.412389521 1060.27052456 696.412389521 1060.27052456 710.475585938 1113.96777344 c 0,11,12
 711.866320039 1119.27772727 711.866320039 1119.27772727 712.544340727 1124.39453476 c 0
 713.222361415 1129.51134225 713.222361415 1129.51134225 713.222361415 1134.40300467 c 0,13,14
 713.222361415 1170.81327857 713.222361415 1170.81327857 683.159179688 1187.28125 c 0,15,16
 683.351000515 1188.18872102 683.351000515 1188.18872102 683.783612463 1189.75150305 c 0
 684.216224411 1191.31428507 684.216224411 1191.31428507 686.129351853 1195.82418727 c 0
 688.042479295 1200.33408946 688.042479295 1200.33408946 690.584818118 1204.4357568 c 0
 693.127156942 1208.53742413 693.127156942 1208.53742413 697.869715662 1213.54656248 c 0
 702.612274381 1218.55570084 702.612274381 1218.55570084 708.350379134 1222.15813201 c 0
 714.088483887 1225.76056319 714.088483887 1225.76056319 722.746512938 1228.23081623 c 0
 731.404541989 1230.70106928 731.404541989 1230.70106928 741.446537334 1230.70106928 c 4,0,1
556 939 m 9,17,-1
 358 855 l 1,18,19
 278 937 278 937 225.5 1000 c 0
 173 1063 173 1063 159 1085.5 c 0
 145 1108 145 1108 131 1121.5 c 0
 117 1135 117 1135 93 1144 c 1,20,21
 117 1169 117 1169 165 1169 c 0,22,23
 199 1169 199 1169 224.5 1160.5 c 0
 250 1152 250 1152 263 1140 c 0
 276 1128 276 1128 284 1115.5 c 0
 292 1103 292 1103 293.5 1094.5 c 2
 295 1086 l 1,24,25
 298 1091 298 1091 303 1098.5 c 0
 308 1106 308 1106 324.5 1126 c 0
 341 1146 341 1146 358.5 1161.5 c 0
 376 1177 376 1177 402 1189.5 c 0
 428 1202 428 1202 453 1202 c 0,26,27
 487 1202 487 1202 505 1187 c 0
 523 1172 523 1172 524.5 1157 c 2
 526 1142 l 1,28,29
 507 1137 507 1137 494 1120.5 c 0
 481 1104 481 1104 481 1078 c 0,30,31
 481 1022 481 1022 556 939 c 9,17,-1
107 562 m 13,32,-1
 224 355 l 1,33,-1
 107 172 l 1,34,35
 95 206 95 206 64 253.5 c 0
 33 301 33 301 8.5 335.5 c 0
 -16 370 -16 370 -16 376 c 0,36,37
 -16 378 -16 378 8.5 409 c 0
 33 440 33 440 64 484.5 c 0
 95 529 95 529 107 562 c 13,32,-1
422 225 m 13,38,-1
 290 397 l 1,39,-1
 407 580 l 1,40,41
 403 567 403 567 403 550 c 0,42,43
 403 514 403 514 423 479.5 c 0
 443 445 443 445 463 423 c 0
 483 401 483 401 483 397 c 0,44,45
 483 396 483 396 466.5 376 c 0
 450 356 450 356 433.5 323.5 c 0
 417 291 417 291 417 259 c 0,46,47
 417 240 417 240 422 225 c 13,38,-1
812 793 m 2,48,-1
 805 793 l 2,49,50
 798 793 798 793 798 798 c 0,51,52
 798 812 798 812 834.5 837 c 0
 871 862 871 862 909 865 c 0,53,54
 911 865 911 865 915 865.5 c 0
 919 866 919 866 921 866 c 0,55,56
 948 866 948 866 972 855.5 c 0
 996 845 996 845 1010.5 829.5 c 0
 1025 814 1025 814 1036.5 799 c 0
 1048 784 1048 784 1052.5 773.5 c 2
 1057 763 l 1,57,58
 1065 772 l 2
 1073 781 1073 781 1090.5 795.5 c 0
 1108 810 1108 810 1132.5 824.5 c 0
 1157 839 1157 839 1197.5 851.5 c 0
 1238 864 1238 864 1285 868 c 1,59,-1
 1292 868 l 2,60,61
 1326 868 1326 868 1354 843.5 c 0
 1382 819 1382 819 1382 799 c 0,62,63
 1382 789 1382 789 1373 786 c 0,64,65
 1245 740 1245 740 1177 656 c 0
 1109 572 1109 572 1092 432 c 0,66,67
 1087 388 1087 388 1076 343.5 c 0
 1065 299 1065 299 1043 245.5 c 0
 1021 192 1021 192 991.5 145.5 c 0
 962 99 962 99 916 54.5 c 0
 870 10 870 10 814 -22 c 0
 758 -54 758 -54 680.5 -73.5 c 0
 603 -93 603 -93 513 -93 c 0,68,69
 429 -93 429 -93 350.5 -63 c 0
 272 -33 272 -33 209.5 22 c 0
 147 77 147 77 109.5 161.5 c 0
 72 246 72 246 72 347 c 0,70,71
 72 429 72 429 86 499 c 0
 100 569 100 569 122 621 c 0
 144 673 144 673 181.5 720 c 0
 219 767 219 767 255 799 c 0
 291 831 291 831 345 865 c 0
 399 899 399 899 442 921.5 c 0
 485 944 485 944 547.293097564 974.873672875 c 0
 607 1004 607 1004 637 1020 c 0,72,73
 728.758815782 1067.46145644 728.758815782 1067.46145644 778.581697717 1137.30577127 c 0
 828.404579652 1207.15008611 828.404579652 1207.15008611 828.404579652 1276.19789291 c 0,74,75
 828.404579652 1349.86412041 828.404579652 1349.86412041 771.801884213 1397.93206021 c 0
 715.199188775 1446 715.199188775 1446 610 1446 c 0,76,77
 555.627862103 1446 555.627862103 1446 515.656965526 1427.23143439 c 0
 475.686068948 1408.46286877 475.686068948 1408.46286877 451.343034474 1365.20150833 c 0
 427 1321.94014789 427 1321.94014789 427 1257.09960938 c 0,78,79
 427 1243.23202379 427 1243.23202379 426.883454734 1220.75200571 c 0
 426.766909469 1198.27198762 426.766909469 1198.27198762 426.766909469 1189.41636716 c 0,80,81
 426.766909469 1155.75831604 426.766909469 1155.75831604 427.295909336 1137.39579067 c 0
 427.824909202 1119.0332653 427.824909202 1119.0332653 434.821933442 1096.04328822 c 0
 441.818957682 1073.05331114 441.818957682 1073.05331114 447.18292452 1061.89176362 c 0
 452.546891359 1050.73021611 452.546891359 1050.73021611 473.669163952 1024.6740688 c 0
 494.791436544 998.617921491 494.791436544 998.617921491 511.355105225 981.376444364 c 0
 527.918773905 964.134967237 527.918773905 964.134967237 568.767540478 922.185079017 c 0
 575.726399779 915.038636313 575.726399779 915.038636313 579.680365515 910.976211059 c 0
 583.634331251 906.913785805 583.634331251 906.913785805 590.057311653 900.304361287 c 0
 596.480292055 893.694936769 596.480292055 893.694936769 602 888 c 2,82,-1
 1176 297 l 2,83,84
 1339 129 1339 129 1426.5 64 c 0
 1514 -1 1514 -1 1581 -26 c 1,85,86
 1557 -51 1557 -51 1509 -51 c 0,87,88
 1456 -51 1456 -51 1378 -22 c 0
 1300 7 1300 7 1248.5 36.5 c 2
 1197 66 l 1,89,90
 1194 61 1194 61 1189 53.5 c 0
 1184 46 1184 46 1167.5 26 c 0
 1151 6 1151 6 1133.5 -9.5 c 0
 1116 -25 1116 -25 1090 -37.5 c 0
 1064 -50 1064 -50 1039 -50 c 0,91,92
 1005 -50 1005 -50 987 -35 c 0
 969 -20 969 -20 967.5 -5 c 2
 966 10 l 1,93,94
 985 15 985 15 998 31.5 c 0
 1011 48 1011 48 1011 74 c 0,95,96
 1011 130 1011 130 936 213 c 2,97,-1
 393 813 l 2,98,99
 304.183077623 911.405112861 304.183077623 911.405112861 253.879102739 983.141481114 c 0
 203.575127855 1054.87784937 203.575127855 1054.87784937 181.787563928 1113.62479493 c 0
 160 1172.3717405 160 1172.3717405 160 1233.09960938 c 0,100,101
 160 1331.28996213 160 1331.28996213 223.703789547 1413.20562855 c 0
 287.407579093 1495.12129498 287.407579093 1495.12129498 390.96287712 1540.56064749 c 0
 494.518175147 1586 494.518175147 1586 612 1586 c 0,102,103
 715 1586 715 1586 796.5 1558 c 0
 878 1530 878 1530 926 1483.5 c 0
 974 1437 974 1437 999 1381.5 c 0
 1024 1326 1024 1326 1024 1266 c 0,104,105
 1024 1210.40846749 1024 1210.40846749 1000.69695518 1149.28977637 c 0
 977.393910363 1088.17108526 977.393910363 1088.17108526 932.271794819 1025.77559228 c 0
 887.149679274 963.380099297 887.149679274 963.380099297 813.384455181 902.233257819 c 0
 739.619231088 841.08641634 739.619231088 841.08641634 646 792.099609375 c 0,106,107
 607.278905389 771.838571497 607.278905389 771.838571497 575.912828077 753.227269786 c 0
 544.546750765 734.615968074 544.546750765 734.615968074 519.473171923 715.440800527 c 0
 494.39959308 696.26563298 494.39959308 696.26563298 475.196828077 680.016543223 c 0
 455.994063074 663.767453467 455.994063074 663.767453467 441.617171923 643.544097402 c 0
 427.240280772 623.320741337 427.240280772 623.320741337 417.248828077 607.612254161 c 0
 407.257375383 591.903766984 407.257375383 591.903766984 400.625171923 568.810613027 c 0
 393.992968463 545.71745907 393.992968463 545.71745907 390.260828077 528.727965098 c 0
 386.528687691 511.738471126 386.528687691 511.738471126 384.689171923 483.953909902 c 0
 382.849656154 456.169348677 382.849656154 456.169348677 382.424828077 436.077238536 c 0
 382 415.985128394 382 415.985128394 382 382 c 0,108,109
 382 252 382 252 442.5 183.5 c 0
 503 115 503 115 613 115 c 0,110,111
 678.764589934 115 678.764589934 115 740.788889989 143.25982481 c 0
 802.813190044 171.51964962 802.813190044 171.51964962 848.351735011 218.196369472 c 0
 893.890279978 264.873089324 893.890279978 264.873089324 921.445139989 328.359665689 c 0
 949 391.846242054 949 391.846242054 949 459.099609375 c 0,112,113
 949 486.099609375 949 486.099609375 946 516.099609375 c 0,114,115
 932.265270193 667.181637253 932.265270193 667.181637253 905.167043676 730.090818627 c 0
 878.068817158 793 878.068817158 793 812 793 c 2,48,-1
EndSplineSet
Fore
SplineSet
911.470703125 1394.07519531 m 1,0,1
 900.627929688 1364.80057337 900.627929688 1364.80057337 900.627929688 1337.37045834 c 128,-1,2
 900.627929688 1309.9403433 900.627929688 1309.9403433 923.064159941 1290.86274978 c 128,-1,3
 945.500390195 1271.78515625 945.500390195 1271.78515625 986.457728521 1271.78515625 c 128,-1,4
 1027.41506685 1271.78515625 1027.41506685 1271.78515625 1052.57854955 1296.71046703 c 128,-1,5
 1077.74203226 1321.6357778 1077.74203226 1321.6357778 1077.74203226 1370.57627273 c 128,-1,6
 1077.74203226 1419.51676767 1077.74203226 1419.51676767 1025.21609343 1470.41951664 c 128,-1,7
 972.690154602 1521.32226562 972.690154602 1521.32226562 881.6189172 1521.32226562 c 128,-1,8
 790.547679799 1521.32226562 790.547679799 1521.32226562 707.003929115 1487.45711785 c 128,-1,9
 623.460178432 1453.59197009 623.460178432 1453.59197009 571.712388282 1388.94042552 c 128,-1,10
 519.964598132 1324.28888096 519.964598132 1324.28888096 519.964598132 1247.25820872 c 128,-1,11
 519.964598132 1170.22753649 519.964598132 1170.22753649 561.571289062 1092.73535156 c 1,12,13
 600.117415008 1097.34082031 600.117415008 1097.34082031 621.458984375 1097.34082031 c 0,14,15
 695.75410737 1097.34082031 695.75410737 1097.34082031 734.877053685 1061.4311267 c 128,-1,16
 774 1025.52143308 774 1025.52143308 774 973 c 0,17,18
 774 946.552459117 774 946.552459117 733.425564941 925.516952214 c 128,-1,19
 692.851129881 904.481445312 692.851129881 904.481445312 634.431899979 904.481445312 c 128,-1,20
 576.012670077 904.481445312 576.012670077 904.481445312 505.4453125 951.540039062 c 1,21,22
 446.437592036 910.639856963 446.437592036 910.639856963 404.718796018 836.466081383 c 128,-1,23
 363 762.292305804 363 762.292305804 363 654.099609375 c 0,24,25
 363 599.714192708 363 599.714192708 414 559.241970486 c 0,26,27
 433.125 544.064887153 433.125 544.064887153 449.0625 531.566623264 c 128,-1,28
 465 519.068359375 465 519.068359375 465 516.799216888 c 128,-1,29
 465 514.530074401 465 514.530074401 452.935950212 495.290662422 c 0,30,31
 416.743800848 437.572426486 416.743800848 437.572426486 416.743800848 395.757141097 c 0,32,33
 416.743800848 285.330265006 416.743800848 285.330265006 548.146410267 218.983787064 c 0,34,35
 650.88873421 167.108170899 650.88873421 167.108170899 771.455757348 167.108170899 c 0,36,37
 980.813935761 167.108170899 980.813935761 167.108170899 1110.84600658 294.09489434 c 0,38,39
 1202.37207031 383.477420272 1202.37207031 383.477420272 1202.37207031 520.514648438 c 0,40,41
 1202.37207031 654.306667893 1202.37207031 654.306667893 1126.16715099 718.357823361 c 0,42,43
 1091.69041386 747.3359375 1091.69041386 747.3359375 1048.9726489 747.3359375 c 128,-1,44
 1006.25488394 747.3359375 1006.25488394 747.3359375 971.575776383 737.020450036 c 128,-1,45
 936.896668823 726.704962572 936.896668823 726.704962572 916.588901187 708.829998479 c 0,46,47
 876.187057995 673.268162766 876.187057995 673.268162766 876.187057995 621.487879461 c 128,-1,48
 876.187057995 569.707596156 876.187057995 569.707596156 913.507313918 523.977228833 c 128,-1,49
 950.827569841 478.24686151 950.827569841 478.24686151 1008.109375 466.94140625 c 1,50,51
 994.196762543 437.377929688 994.196762543 437.377929688 960.875976562 437.377929688 c 0,52,53
 855.177033449 437.377929688 855.177033449 437.377929688 795.299540473 493.35655393 c 128,-1,54
 735.422047497 549.335178172 735.422047497 549.335178172 735.422047497 629.816737665 c 0,55,56
 735.422047497 777.203556601 735.422047497 777.203556601 901.254618562 855.839355076 c 0,57,58
 988.51403115 897.216712607 988.51403115 897.216712607 1114.42741402 897.216712607 c 1,59,-1
 1229.43945312 894.2734375 l 1,60,61
 1310.70406121 894.2734375 1310.70406121 894.2734375 1336.32601318 907.9202642 c 128,-1,62
 1361.94796515 921.5670909 1361.94796515 921.5670909 1372.82922719 931.345764801 c 128,-1,63
 1383.71048924 941.124438702 1383.71048924 941.124438702 1388.5148212 958.206106041 c 0,64,65
 1395.83105469 984.218768663 1395.83105469 984.218768663 1395.83105469 1017.2849635 c 128,-1,66
 1395.83105469 1050.35115835 1395.83105469 1050.35115835 1381.38763659 1074.72766535 c 0,67,68
 1350.04594265 1127.62380231 1350.04594265 1127.62380231 1276.12402344 1142.21289062 c 1,69,70
 1312.11630021 1218.69647877 1312.11630021 1218.69647877 1376.87311897 1218.69647877 c 0,71,72
 1422.38439125 1218.69647877 1422.38439125 1218.69647877 1496.69921875 1183.72851562 c 1,73,74
 1498.21735498 1227.12254682 1498.21735498 1227.12254682 1521.66985819 1269.1860729 c 128,-1,75
 1545.12236139 1311.24959898 1545.12236139 1311.24959898 1581.59674338 1337.60429168 c 128,-1,76
 1618.07112537 1363.95898438 1618.07112537 1363.95898438 1647.71474989 1363.95898438 c 128,-1,77
 1677.35837441 1363.95898438 1677.35837441 1363.95898438 1698.42089844 1354.046875 c 1,78,79
 1656.06445312 1302.183299 1656.06445312 1302.183299 1656.06445312 1233.68652344 c 0,80,81
 1656.06445312 1204.86669922 1656.06445312 1204.86669922 1663.95751953 1167.28214518 c 0,82,83
 1687.63671875 1054.52848307 1687.63671875 1054.52848307 1687.63671875 1013.73758651 c 128,-1,84
 1687.63671875 972.946689948 1687.63671875 972.946689948 1675.96082057 935.268062802 c 128,-1,85
 1664.28492239 897.589435656 1664.28492239 897.589435656 1644.76931792 871.40595893 c 128,-1,86
 1625.25371344 845.222482203 1625.25371344 845.222482203 1595.4865016 825.746105804 c 128,-1,87
 1565.71928976 806.269729406 1565.71928976 806.269729406 1534.0159697 794.832617092 c 128,-1,88
 1502.31264965 783.395504779 1502.31264965 783.395504779 1461.48339255 776.505672131 c 0,89,90
 1393.31795915 765.002929688 1393.31795915 765.002929688 1343.58024422 765.002929688 c 128,-1,91
 1293.8425293 765.002929688 1293.8425293 765.002929688 1277.11108399 765.04296875 c 128,-1,92
 1260.37963867 765.083007812 1260.37963867 765.083007812 1252.2109375 765.083007812 c 1,93,94
 1306.86872243 709.70645874 1306.86872243 709.70645874 1339.51688074 630.920863389 c 128,-1,95
 1372.16503906 552.135268038 1372.16503906 552.135268038 1372.16503906 468.203878254 c 128,-1,96
 1372.16503906 384.272488469 1372.16503906 384.272488469 1352.87413012 307.743518089 c 128,-1,97
 1333.58322119 231.21454771 1333.58322119 231.21454771 1286.8850826 157.109145972 c 128,-1,98
 1240.186944 83.0037442345 1240.186944 83.0037442345 1170.14569223 28.4513618398 c 0,99,100
 1014.21106501 -93 1014.21106501 -93 743 -93 c 0,101,102
 381.386382021 -93 381.386382021 -93 195.630918295 127.167791074 c 0,103,104
 143.368771281 189.111818097 143.368771281 189.111818097 120.309035396 244.423513692 c 128,-1,105
 97.2492995096 299.735209286 97.2492995096 299.735209286 67.9027130003 343.637337938 c 128,-1,106
 38.556126491 387.539466589 38.556126491 387.539466589 16.7780632693 417.468724362 c 128,-1,107
 -4.9999999523 447.397982136 -4.9999999523 447.397982136 -4.99999997615 451.426320389 c 128,-1,108
 -5 455.454658642 -5 455.454658642 10.2310853143 474.502804864 c 0,109,110
 65.1860890942 543.230077148 65.1860890942 543.230077148 90.7241997088 584.886306379 c 1,111,112
 148.899222622 948.511665522 148.899222622 948.511665522 425.309309615 1046.1287358 c 1,113,114
 352.09375 1152.37742311 352.09375 1152.37742311 352.09375 1232.37788835 c 128,-1,115
 352.09375 1312.37835359 352.09375 1312.37835359 394.326016742 1391.68780462 c 128,-1,116
 436.558283483 1470.99725564 436.558283483 1470.99725564 509.813151521 1524.73788507 c 0,117,118
 664.642168146 1638.32226562 664.642168146 1638.32226562 897.2109375 1638.32226562 c 0,119,120
 1106.8439943 1638.32226562 1106.8439943 1638.32226562 1210.43728514 1502.69711579 c 0,121,122
 1261.82711424 1435.41714799 1261.82711424 1435.41714799 1261.82711424 1334.07218979 c 128,-1,123
 1261.82711424 1232.72723159 1261.82711424 1232.72723159 1190.74036375 1156.99447517 c 128,-1,124
 1119.65361327 1081.26171875 1119.65361327 1081.26171875 1004.63671875 1081.26171875 c 0,125,126
 909.8289536 1081.26171875 909.8289536 1081.26171875 847.595682745 1115.31390398 c 0,127,128
 829.864873557 1125.01567268 829.864873557 1125.01567268 810.268515278 1136.50539209 c 128,-1,129
 790.672156998 1147.99511151 790.672156998 1147.99511151 768.801119607 1158.88959754 c 0,130,131
 717.269661253 1184.55864759 717.269661253 1184.55864759 635.470703125 1200.07519531 c 1,132,133
 640.958009776 1247.37241712 640.958009776 1247.37241712 682.41411037 1267.03977631 c 0,134,135
 700.473534266 1275.60742188 700.473534266 1275.60742188 720.305664062 1275.60742188 c 2,136,-1
 791.27734375 1275.22460938 l 1,137,138
 791.27734375 1318.41670114 791.27734375 1318.41670114 806.893200891 1350.94507424 c 0,139,140
 835.53364803 1410.60412093 835.53364803 1410.60412093 870.223520556 1410.60412093 c 0,141,142
 899.517516326 1410.60412093 899.517516326 1410.60412093 911.470703125 1394.07519531 c 1,0,1
EndSplineSet
EndChar

StartChar: quoteright
Encoding: 373 8217 8
Width: 453
Flags: HW
LayerCount: 2
Fore
SplineSet
88 853 m 1,0,-1
 88 947 l 1,1,2
 169 967 169 967 209.5 1013.5 c 128,-1,3
 250 1060 250 1060 250 1149 c 1,4,-1
 248 1149 l 1,5,6
 213 1132 213 1132 140 1132 c 1,7,8
 78 1214 78 1214 78 1319 c 1,9,10
 94 1352 94 1352 131.5 1373.5 c 128,-1,11
 169 1395 169 1395 227 1395 c 0,12,13
 285 1395 285 1395 350 1360 c 1,14,15
 377 1260 377 1260 377 1141.5 c 0,16,17
 377 1023 377 1023 300 944 c 128,-1,18
 223 865 223 865 88 853 c 1,0,-1
EndSplineSet
EndChar

StartChar: parenleft
Encoding: 30 40 9
Width: 709
Flags: HW
LayerCount: 2
Fore
SplineSet
659 1608 m 1,0,-1
 659 1467 l 1,1,2
 308 1307 308 1307 308 692.5 c 128,-1,3
 308 78 308 78 659 -78 c 1,4,-1
 659 -219 l 1,5,6
 470 -166 470 -166 335 -30 c 0,7,8
 69 237.97037037 69 237.97037037 69 694 c 0,9,10
 69 1149.54444444 69 1149.54444444 335 1418.5 c 0,11,12
 470 1555 470 1555 659 1608 c 1,0,-1
EndSplineSet
EndChar

StartChar: parenright
Encoding: 31 41 10
Width: 711
Flags: HW
LayerCount: 2
Fore
SplineSet
51 -219 m 1,0,-1
 51 -78 l 1,1,2
 402 78 402 78 402 692.5 c 0,3,4
 402 1307 402 1307 51 1467 c 1,5,-1
 51 1608 l 1,6,7
 240 1555 240 1555 375 1418.5 c 128,-1,8
 510 1282 510 1282 575.5 1096.5 c 128,-1,9
 641 911 641 911 641 694 c 128,-1,10
 641 477 641 477 575.5 291.5 c 128,-1,11
 510 106 510 106 374.5 -30.5 c 128,-1,12
 239 -167 239 -167 51 -219 c 1,0,-1
EndSplineSet
EndChar

StartChar: asterisk
Encoding: 32 42 11
Width: 866
Flags: HW
LayerCount: 2
Fore
SplineSet
670 412 m 1,0,-1
 668 408 l 1,1,-1
 440 550 l 1,2,-1
 203 406 l 1,3,-1
 202 409 l 1,4,-1
 266 667 l 1,5,-1
 56 849 l 1,6,-1
 324 869 l 1,7,-1
 432 1125 l 1,8,-1
 534 876 l 1,9,-1
 810 853 l 1,10,-1
 605 679 l 1,11,-1
 670 412 l 1,0,-1
EndSplineSet
EndChar

StartChar: plus
Encoding: 33 43 12
Width: 1162
Flags: HW
LayerCount: 2
Fore
SplineSet
500 655 m 1,0,-1
 500 1087 l 1,1,-1
 663 1087 l 1,2,-1
 663 655 l 1,3,-1
 1095 655 l 1,4,-1
 1095 492 l 1,5,-1
 663 492 l 1,6,-1
 663 60 l 1,7,-1
 500 60 l 1,8,-1
 500 492 l 1,9,-1
 68 492 l 1,10,-1
 68 655 l 1,11,-1
 500 655 l 1,0,-1
EndSplineSet
EndChar

StartChar: comma
Encoding: 34 44 13
Width: 470
Flags: HW
LayerCount: 2
Fore
SplineSet
96 -283 m 1,0,-1
 96 -189 l 1,1,2
 177 -169 177 -169 217.5 -122 c 128,-1,3
 258 -75 258 -75 258 13 c 1,4,-1
 256 13 l 1,5,6
 220 -3 220 -3 148 -3 c 1,7,8
 86 79 86 79 86 183 c 1,9,10
 102 216 102 216 139.5 237.5 c 128,-1,11
 177 259 177 259 235 259 c 0,12,13
 293 259 293 259 358 224 c 1,14,15
 385 124 385 124 385 6 c 0,16,17
 385 -112 385 -112 307.5 -191.5 c 128,-1,18
 230 -271 230 -271 96 -283 c 1,0,-1
EndSplineSet
EndChar

StartChar: hyphen
Encoding: 35 45 14
Width: 838
Flags: HW
LayerCount: 2
Fore
SplineSet
113 548 m 1,0,1
 104.434782609 548 104.434782609 548 96.2173913043 561.5 c 128,-1,2
 88 575 88 575 88 594 c 2,3,-1
 88 690 l 2,4,5
 88 728.307692308 88 728.307692308 106.5 734 c 2,6,-1
 113 736 l 1,7,8
 201 723 201 723 413.5 723 c 128,-1,9
 626 723 626 723 676 729.5 c 128,-1,10
 726 736 726 736 730 734 c 0,11,12
 748 725 748 725 748 690 c 2,13,-1
 748 594 l 2,14,15
 748 553 748 553 723 548 c 1,16,17
 621 561 621 561 407.5 561 c 128,-1,18
 194 561 194 561 113 548 c 1,0,1
EndSplineSet
EndChar

StartChar: period
Encoding: 36 46 15
Width: 529
Flags: HW
LayerCount: 2
Fore
SplineSet
266 326 m 5,0,1
 477 142 l 1,2,-1
 266 -48 l 1,3,-1
 54 135 l 1,4,5
 54 141 54 141 155.5 233.5 c 128,-1,6
 257 326 257 326 266 326 c 5,0,1
EndSplineSet
EndChar

StartChar: slash
Encoding: 37 47 16
Width: 916
Flags: HW
LayerCount: 2
Fore
SplineSet
650.562832329 854.636893617 m 1,0,-1
 658.940128824 787.33881288 l 1,1,2
 658.940128824 767.620319965 658.940128824 767.620319965 624.830106757 728.783039983 c 128,-1,3
 590.72008469 689.94576 590.72008469 689.94576 562.689476043 652.1595957 c 0,4,5
 491.84082965 556.653335852 491.84082965 556.653335852 435.809523765 414.41277818 c 128,-1,6
 379.77821788 272.172220508 379.77821788 272.172220508 363.177331118 226.880758227 c 0,7,8
 318.522967758 105.052241304 318.522967758 105.052241304 318.522967758 35.0017897819 c 0,9,10
 318.522967758 10.8997527197 318.522967758 10.8997527197 325.170081266 -16.2264325072 c 128,-1,11
 331.817194775 -43.3526177341 331.817194775 -43.3526177341 333.82320572 -57.8269266662 c 128,-1,12
 335.829216665 -72.3012355983 335.829216665 -72.3012355983 332.557423685 -82.1651514322 c 128,-1,13
 329.285630705 -92.0290672662 329.285630705 -92.0290672662 320.134176944 -100.314880066 c 0,14,15
 302.037044115 -116.700195312 302.037044115 -116.700195312 257.545560575 -116.700195312 c 128,-1,16
 213.054077034 -116.700195312 213.054077034 -116.700195312 193.495575387 -110.414587582 c 128,-1,17
 173.937073739 -104.128979853 173.937073739 -104.128979853 165.709520052 -93.9037696634 c 0,18,19
 148.358350153 -72.3397220738 148.358350153 -72.3397220738 152.198242188 -51.7001953125 c 1,20,21
 129.270104009 -92.1890083176 129.270104009 -92.1890083176 66.0949877055 -109.675016029 c 0,22,23
 40.71375 -116.700195312 40.71375 -116.700195312 11.59375 -116.700195312 c 0,24,25
 -51.5955415782 -116.700195312 -51.5955415782 -116.700195312 -51.5955415782 -86.077166532 c 0,26,27
 -51.5955415782 -65.44990856 -51.5955415782 -65.44990856 -39.771484375 -56.7001953125 c 0,28,29
 8.41008456548 -21.0461972964 8.41008456548 -21.0461972964 69.5372688403 72.8923754639 c 128,-1,30
 130.664453115 166.830948224 130.664453115 166.830948224 182.210016812 277.085962471 c 128,-1,31
 233.755580509 387.340976717 233.755580509 387.340976717 269.235751455 503.816850312 c 128,-1,32
 304.7159224 620.292723908 304.7159224 620.292723908 304.7159224 696.226581977 c 1,33,-1
 297.338671691 763.152257336 l 1,34,35
 504.937161796 1057.44322273 504.937161796 1057.44322273 594.593255158 1314.00757764 c 0,36,37
 630.613491455 1417.08488496 630.613491455 1417.08488496 630.613491455 1487.85444883 c 0,38,39
 630.613491455 1511.93836969 630.613491455 1511.93836969 623.154965207 1538.56235894 c 128,-1,40
 615.696438959 1565.18634819 615.696438959 1565.18634819 613.099905272 1579.62749468 c 128,-1,41
 610.503371585 1594.06864117 610.503371585 1594.06864117 613.288874663 1604.12806366 c 128,-1,42
 616.07437774 1614.18748615 616.07437774 1614.18748615 624.850808907 1622.57482404 c 0,43,44
 642.351670732 1639.29980469 642.351670732 1639.29980469 682.542795044 1639.29980469 c 128,-1,45
 722.733919356 1639.29980469 722.733919356 1639.29980469 738.094248713 1636.37048296 c 128,-1,46
 753.45457807 1633.44116124 753.45457807 1633.44116124 762.849123945 1628.29854425 c 128,-1,47
 772.243669819 1623.15592727 772.243669819 1623.15592727 778.724629286 1617.40391431 c 128,-1,48
 785.205588752 1611.65190136 785.205588752 1611.65190136 788.186000835 1604.71767126 c 0,49,50
 793.41312378 1592.55624114 793.41312378 1592.55624114 793.41312378 1586.34614997 c 0,51,52
 793.41312378 1577.96722368 793.41312378 1577.96722368 792.88648407 1575.21665944 c 1,53,54
 837.208769122 1639.29980469 837.208769122 1639.29980469 933.315429688 1639.29980469 c 0,55,56
 997.956919949 1639.29980469 997.956919949 1639.29980469 997.956919949 1609.02328797 c 0,57,58
 997.956919949 1600.947713 997.956919949 1600.947713 992.050632529 1590.71277375 c 128,-1,59
 986.144345109 1580.47783449 986.144345109 1580.47783449 986.07421875 1580.29980469 c 0,60,61
 920.943926529 1534.32488054 920.943926529 1534.32488054 840.966986863 1396.44590246 c 128,-1,62
 760.990047196 1258.56692438 760.990047196 1258.56692438 705.776439762 1103.24389569 c 128,-1,63
 650.562832329 947.920866992 650.562832329 947.920866992 650.562832329 854.636893617 c 1,0,-1
EndSplineSet
EndChar

StartChar: zero
Encoding: 38 48 17
Width: 1263
Flags: HW
LayerCount: 2
Fore
SplineSet
487.5 541 m 128,-1,1
 479 474 479 474 479 390 c 128,-1,2
 479 306 479 306 480.5 269.5 c 128,-1,3
 482 233 482 233 489.5 183.5 c 128,-1,4
 497 134 497 134 513.5 114.5 c 0,5,6
 555.384615385 65 555.384615385 65 639 65 c 0,7,8
 721.25 65 721.25 65 752.5 105 c 0,9,10
 779.722507708 139.844809866 779.722507708 139.844809866 785.861253854 169.422404933 c 128,-1,11
 792 199 792 199 795 217 c 128,-1,12
 798 235 798 235 799.5 271 c 128,-1,13
 801 307 801 307 801 330.5 c 2,14,15
 801 399 l 2,16,17
 801 610.166666667 801 610.166666667 746 711 c 0,18,19
 734 733 734 733 725 742.5 c 128,-1,20
 716 752 716 752 716 757.5 c 128,-1,21
 716 763 716 763 729.5 780 c 128,-1,22
 743 797 743 797 758.5 824 c 128,-1,23
 774 851 774 851 787.5 932.5 c 128,-1,24
 801 1014 801 1014 801 1099.5 c 128,-1,25
 801 1185 801 1185 800.5 1211 c 128,-1,26
 800 1237 800 1237 798 1273.5 c 128,-1,27
 796 1310 796 1310 792 1327.5 c 128,-1,28
 788 1345 788 1345 780 1368.5 c 128,-1,29
 772 1392 772 1392 760.5 1402 c 128,-1,30
 749 1412 749 1412 732 1423 c 128,-1,31
 715 1434 715 1434 692 1437.5 c 128,-1,32
 669 1441 669 1441 639 1441 c 128,-1,33
 609 1441 609 1441 586.5 1437.5 c 128,-1,34
 564 1434 564 1434 547 1423 c 128,-1,35
 530 1412 530 1412 518.5 1402 c 128,-1,36
 507 1392 507 1392 499 1368.5 c 128,-1,37
 491 1345 491 1345 487 1327.5 c 128,-1,38
 483 1310 483 1310 481 1273.5 c 0,39,40
 478 1218.75 478 1218.75 478 1127.875 c 128,-1,41
 478 1037 478 1037 486.5 964.5 c 128,-1,42
 495 892 495 892 507.5 857.5 c 128,-1,43
 520 823 520 823 532.5 802.5 c 128,-1,44
 545 782 545 782 553.5 772 c 128,-1,45
 562 762 562 762 562 756 c 128,-1,46
 562 750 562 750 553.5 738.5 c 128,-1,47
 545 727 545 727 532.5 703.5 c 128,-1,48
 520 680 520 680 508 644 c 128,-1,0
 496 608 496 608 487.5 541 c 128,-1,1
1114 565.5 m 128,-1,50
 1104 504 1104 504 1104 403.5 c 128,-1,51
 1104 303 1104 303 1064.5 207.5 c 128,-1,52
 1025 112 1025 112 958.5 53 c 128,-1,53
 892 -6 892 -6 810 -37.5 c 128,-1,54
 728 -69 728 -69 639 -69 c 128,-1,55
 550 -69 550 -69 468 -37.5 c 128,-1,56
 386 -6 386 -6 319.5 53 c 128,-1,57
 253 112 253 112 213.5 207.5 c 128,-1,58
 174 303 174 303 174 402 c 128,-1,59
 174 501 174 501 161 563 c 128,-1,60
 148 625 148 625 130 657 c 128,-1,61
 112 689 112 689 94 708.5 c 128,-1,62
 76 728 76 728 63 737 c 128,-1,63
 50 746 50 746 50 750 c 128,-1,64
 50 754 50 754 63 762.5 c 128,-1,65
 76 771 76 771 94 789.5 c 128,-1,66
 112 808 112 808 130 839 c 0,67,68
 174 914.777777778 174 914.777777778 174 1057.38888889 c 128,-1,69
 174 1200 174 1200 213.5 1299 c 128,-1,70
 253 1398 253 1398 319.5 1459.5 c 128,-1,71
 386 1521 386 1521 468 1554 c 128,-1,72
 550 1587 550 1587 639 1587 c 128,-1,73
 728 1587 728 1587 810 1554.5 c 128,-1,74
 892 1522 892 1522 958.5 1460.5 c 128,-1,75
 1025 1399 1025 1399 1064.5 1299.5 c 128,-1,76
 1104 1200 1104 1200 1104 1097.5 c 128,-1,77
 1104 995 1104 995 1115.5 933.5 c 128,-1,78
 1127 872 1127 872 1143 841 c 128,-1,79
 1159 810 1159 810 1175 791 c 128,-1,80
 1191 772 1191 772 1202.5 762.5 c 128,-1,81
 1214 753 1214 753 1214 749.5 c 128,-1,82
 1214 746 1214 746 1200.5 735.5 c 128,-1,83
 1187 725 1187 725 1174.5 710.5 c 128,-1,84
 1162 696 1162 696 1143 661.5 c 128,-1,49
 1124 627 1124 627 1114 565.5 c 128,-1,50
EndSplineSet
EndChar

StartChar: one
Encoding: 39 49 18
Width: 650
Flags: HW
LayerCount: 2
Fore
SplineSet
161 1562 m 0,0,1
 259.888888889 1562 259.888888889 1562 326 1477 c 1,2,3
 329 1480 329 1480 333.5 1486 c 128,-1,4
 338 1492 338 1492 354.5 1506.5 c 128,-1,5
 371 1521 371 1521 388.5 1532.5 c 0,6,7
 433.391304348 1562 433.391304348 1562 484.695652174 1562 c 128,-1,8
 536 1562 536 1562 562.5 1547 c 128,-1,9
 589 1532 589 1532 593 1517.5 c 2,10,-1
 597 1503 l 1,11,12
 528 1436 528 1436 502 1362 c 128,-1,13
 476 1288 476 1288 476 1165 c 128,-1,14
 476 1042 476 1042 487 967.5 c 128,-1,15
 498 893 498 893 514 859 c 128,-1,16
 530 825 530 825 546.5 806 c 128,-1,17
 563 787 563 787 574 777 c 128,-1,18
 585 767 585 767 585 757.5 c 128,-1,19
 585 748 585 748 574 738 c 128,-1,20
 563 728 563 728 546.5 707.5 c 128,-1,21
 530 687 530 687 514 652 c 0,22,23
 476 568.875 476 568.875 476 395.9375 c 128,-1,24
 476 223 476 223 502 140.5 c 128,-1,25
 528 58 528 58 597 -14 c 1,26,27
 597 -50.1666666667 597 -50.1666666667 541 -67.5 c 0,28,29
 520 -74 520 -74 482.5 -74 c 128,-1,30
 445 -74 445 -74 404 -52.5 c 128,-1,31
 363 -31 363 -31 344.5 -10 c 2,32,-1
 326 11 l 1,33,34
 290.96969697 -41.5454545455 290.96969697 -41.5454545455 218 -65 c 0,35,36
 190 -74 190 -74 161.5 -74 c 128,-1,37
 133 -74 133 -74 112 -68 c 128,-1,38
 91 -62 91 -62 80.5 -53 c 0,39,40
 59.5 -35 59.5 -35 56 -14 c 1,41,42
 125 58 125 58 151 140.5 c 128,-1,43
 177 223 177 223 177 348 c 132,-1,44
 177 473 177 473 166 545 c 128,-1,45
 155 617 155 617 139 652 c 128,-1,46
 123 687 123 687 106.5 707.5 c 128,-1,47
 90 728 90 728 79 738 c 128,-1,48
 68 748 68 748 68 757.5 c 128,-1,49
 68 767 68 767 79 777 c 128,-1,50
 90 787 90 787 106.5 806 c 128,-1,51
 123 825 123 825 139 859 c 0,52,53
 177 939.75 177 939.75 177 1113.875 c 128,-1,54
 177 1288 177 1288 151 1362 c 128,-1,55
 125 1436 125 1436 56 1503 c 1,56,57
 56 1538.72093023 56 1538.72093023 111.5 1555.5 c 0,58,59
 133 1562 133 1562 161 1562 c 0,0,1
EndSplineSet
EndChar

StartChar: two
Encoding: 40 50 19
Width: 1164
Flags: HW
LayerCount: 2
Fore
SplineSet
1041 367 m 1,0,1
 1114 342.666666667 1114 342.666666667 1114 291 c 0,2,3
 1114 259 1114 259 1090.5 228 c 128,-1,4
 1067 197 1067 197 1035 176.5 c 0,5,6
 968.503546099 133.90070922 968.503546099 133.90070922 944 129 c 1,7,8
 1024 68 1024 68 1024 2 c 128,-1,9
 1024 -64 1024 -64 990 -74 c 1,10,11
 890 0 890 0 796 0 c 0,12,13
 761.407091542 0 761.407091542 0 701.041589748 -18.9126457758 c 128,-1,14
 640.676087954 -37.8252915516 640.676087954 -37.8252915516 627.449140379 -41.835652327 c 128,-1,15
 614.222192804 -45.8460131024 614.222192804 -45.8460131024 590.878701697 -52.1891355258 c 128,-1,16
 567.535210589 -58.5322579493 567.535210589 -58.5322579493 551.220702993 -61.7561983619 c 0,17,18
 508.909121672 -70.1174692207 508.909121672 -70.1174692207 476.808052445 -70.1174692207 c 0,19,20
 356.743245451 -70.1174692207 356.743245451 -70.1174692207 311 46 c 1,21,22
 272.894736842 1.54385964912 272.894736842 1.54385964912 216.447368421 -37.2280701754 c 128,-1,23
 160 -76 160 -76 130 -76 c 128,-1,24
 100 -76 100 -76 78 -55.5 c 128,-1,25
 56 -35 56 -35 56 -11.5 c 128,-1,26
 56 12 56 12 61 24 c 1,27,28
 547.284552846 510.284552846 547.284552846 510.284552846 680 828.5 c 0,29,30
 724 934 724 934 724 996 c 128,-1,31
 724 1058 724 1058 707 1088 c 128,-1,32
 690 1118 690 1118 669.5 1130 c 128,-1,33
 649 1142 649 1142 632 1151 c 128,-1,34
 615 1160 615 1160 615 1163.5 c 128,-1,35
 615 1167 615 1167 638.5 1191.5 c 0,36,37
 708 1263.95744681 708 1263.95744681 708 1310 c 2,38,-1
 708 1318 l 1,39,40
 697 1402 697 1402 640.5 1455 c 128,-1,41
 584 1508 584 1508 500 1508 c 128,-1,42
 416 1508 416 1508 368.5 1453 c 128,-1,43
 321 1398 321 1398 321 1315.5 c 128,-1,44
 321 1233 321 1233 376 1167.5 c 128,-1,45
 431 1102 431 1102 527 1102 c 0,46,47
 539 1102 539 1102 545 1103 c 1,48,49
 545 1068.85714286 545 1068.85714286 528.5 1053.92857143 c 0,50,51
 493.210526316 1022 493.210526316 1022 433 1022 c 0,52,53
 381.702515682 1022 381.702515682 1022 314.43197092 1054.12910499 c 0,54,55
 310.505405309 1056.00447316 310.505405309 1056.00447316 310.248128296 1056.00447316 c 128,-1,56
 309.990851283 1056.00447316 309.990851283 1056.00447316 308.937281717 1051.66079762 c 128,-1,57
 307.883712151 1047.31712208 307.883712151 1047.31712208 304.991519563 1038.33718264 c 128,-1,58
 302.099326974 1029.35724321 302.099326974 1029.35724321 293.96312328 1007.54805246 c 128,-1,59
 285.826919587 985.738861722 285.826919587 985.738861722 273.426517357 967.616284373 c 128,-1,60
 261.026115126 949.493707025 261.026115126 949.493707025 244.273321196 930.658665158 c 0,61,62
 208.109544991 890 208.109544991 890 150 890 c 0,63,64
 128.6 890 128.6 890 111 901 c 1,65,66
 151 948 151 948 151 999 c 0,67,68
 151 1017 151 1017 127 1099.5 c 128,-1,69
 103 1182 103 1182 103 1242.5 c 128,-1,70
 103 1303 103 1303 130.5 1363 c 128,-1,71
 158 1423 158 1423 203.5 1463.5 c 128,-1,72
 249 1504 249 1504 307.5 1532 c 0,73,74
 420.321428571 1586 420.321428571 1586 539.660714286 1586 c 128,-1,75
 659 1586 659 1586 755.5 1551 c 128,-1,76
 852 1516 852 1516 917.5 1457 c 0,77,78
 1056 1332.24427481 1056 1332.24427481 1056 1157 c 0,79,80
 1056 951.87804878 1056 951.87804878 950 789 c 0,81,82
 868.365829478 663.562128222 868.365829478 663.562128222 774.182914739 566.781064111 c 0,83,84
 650.292682927 439.473170732 650.292682927 439.473170732 443 246 c 1,85,-1
 785 240 l 1,86,87
 877 240 877 240 933 269 c 128,-1,88
 989 298 989 298 1041 367 c 1,0,1
EndSplineSet
EndChar

StartChar: three
Encoding: 41 51 20
Width: 1139
Flags: HW
LayerCount: 2
Fore
SplineSet
544 842.5 m 128,-1,1
 576 833 576 833 614.5 833 c 128,-1,2
 653 833 653 833 692.5 886.5 c 128,-1,3
 732 940 732 940 732 999 c 128,-1,4
 732 1058 732 1058 715 1088 c 128,-1,5
 698 1118 698 1118 677.5 1130 c 128,-1,6
 657 1142 657 1142 640 1151 c 128,-1,7
 623 1160 623 1160 623 1163.5 c 128,-1,8
 623 1167 623 1167 646.5 1191.5 c 0,9,10
 716 1263.95744681 716 1263.95744681 716 1310 c 2,11,-1
 716 1318 l 1,12,13
 705 1402 705 1402 648.5 1455 c 128,-1,14
 592 1508 592 1508 508 1508 c 128,-1,15
 424 1508 424 1508 376.5 1453 c 128,-1,16
 329 1398 329 1398 329 1315.5 c 128,-1,17
 329 1233 329 1233 384 1167.5 c 128,-1,18
 439 1102 439 1102 535 1102 c 0,19,20
 547 1102 547 1102 553 1103 c 1,21,22
 553 1068.85714286 553 1068.85714286 536.5 1053.92857143 c 0,23,24
 501.210526316 1022 501.210526316 1022 441 1022 c 0,25,26
 389.702515682 1022 389.702515682 1022 322.43197092 1054.12910499 c 0,27,28
 318.505405309 1056.00447316 318.505405309 1056.00447316 318.248128296 1056.00447316 c 128,-1,29
 317.990851283 1056.00447316 317.990851283 1056.00447316 316.937281717 1051.66079762 c 128,-1,30
 315.883712151 1047.31712208 315.883712151 1047.31712208 312.991519563 1038.33718264 c 128,-1,31
 310.099326974 1029.35724321 310.099326974 1029.35724321 301.96312328 1007.54805246 c 128,-1,32
 293.826919587 985.738861722 293.826919587 985.738861722 281.426517357 967.616284373 c 128,-1,33
 269.026115126 949.493707025 269.026115126 949.493707025 252.273321196 930.658665158 c 0,34,35
 216.109544991 890 216.109544991 890 158 890 c 0,36,37
 136.6 890 136.6 890 119 901 c 1,38,39
 159 948 159 948 159 999 c 0,40,41
 159 1017 159 1017 135 1099.5 c 128,-1,42
 111 1182 111 1182 111 1242.5 c 128,-1,43
 111 1303 111 1303 138.5 1363 c 128,-1,44
 166 1423 166 1423 211.5 1463.5 c 128,-1,45
 257 1504 257 1504 315.5 1532 c 0,46,47
 428.321428571 1586 428.321428571 1586 547.660714286 1586 c 128,-1,48
 667 1586 667 1586 763.5 1551 c 128,-1,49
 860 1516 860 1516 925.5 1457 c 0,50,51
 1064 1332.24427481 1064 1332.24427481 1064 1157 c 0,52,53
 1064 1052 1064 1052 1008 949 c 128,-1,54
 952 846 952 846 839 761 c 1,55,56
 956 675 956 675 1013.5 571.5 c 128,-1,57
 1071 468 1071 468 1071 371.5 c 128,-1,58
 1071 275 1071 275 1033 196 c 128,-1,59
 995 117 995 117 928.5 57 c 128,-1,60
 862 -3 862 -3 763.5 -38.5 c 128,-1,61
 665 -74 665 -74 560 -74 c 128,-1,62
 455 -74 455 -74 368.5 -48 c 128,-1,63
 282 -22 282 -22 213 26.5 c 128,-1,64
 144 75 144 75 103 154 c 128,-1,65
 62 233 62 233 62 332 c 0,66,67
 62 374 62 374 88.5 449.5 c 128,-1,68
 115 525 115 525 115 566.5 c 128,-1,69
 115 608 115 608 81 654 c 1,70,71
 95 664 95 664 118 664 c 0,72,73
 180 664 180 664 227.5 602.5 c 128,-1,74
 275 541 275 541 276 477 c 1,75,76
 342 512 342 512 391 512 c 128,-1,77
 440 512 440 512 464 502.5 c 128,-1,78
 488 493 488 493 498 478.5 c 0,79,80
 515 453.85 515 453.85 515 434 c 2,81,-1
 515 426 l 1,82,83
 429 420 429 420 382.5 354 c 128,-1,84
 336 288 336 288 336 205 c 128,-1,85
 336 122 336 122 375.5 64.5 c 128,-1,86
 415 7 415 7 495 7 c 128,-1,87
 575 7 575 7 642 71 c 128,-1,88
 709 135 709 135 709 230 c 0,89,90
 709 278 709 278 644.5 339.5 c 0,91,92
 623 360 623 360 623 363 c 128,-1,93
 623 366 623 366 639.5 375.5 c 128,-1,94
 656 385 656 385 676.5 397.5 c 128,-1,95
 697 410 697 410 713.5 441.5 c 128,-1,96
 730 473 730 473 730 533.5 c 128,-1,97
 730 594 730 594 692.5 649.5 c 128,-1,98
 655 705 655 705 614.5 705 c 128,-1,99
 574 705 574 705 540 695.5 c 128,-1,100
 506 686 506 686 490 686 c 128,-1,101
 474 686 474 686 462 709 c 128,-1,102
 450 732 450 732 450 767 c 0,103,104
 450 852 450 852 502 852 c 0,105,0
 512 852 512 852 544 842.5 c 128,-1,1
EndSplineSet
EndChar

StartChar: four
Encoding: 42 52 21
Width: 1243
Flags: HW
LayerCount: 2
Fore
SplineSet
565 1477 m 1,0,1
 586.043478261 1565 586.043478261 1565 692 1565 c 0,2,3
 724.230007353 1565 724.230007353 1565 763.392887438 1551.62144435 c 128,-1,4
 802.555767522 1538.2428887 802.555767522 1538.2428887 802.555767522 1524.80723166 c 0,5,6
 802.555767522 1519.44456913 802.555767522 1519.44456913 795 1515 c 0,7,8
 736 1480 736 1480 661 1364.5 c 128,-1,9
 586 1249 586 1249 521.5 1108.5 c 0,10,11
 385.176399027 811.54703974 385.176399027 811.54703974 311 607 c 2,12,-1
 278 516 l 1,13,14
 443 516 443 516 684 515 c 1,15,-1
 682 812 l 2,16,17
 682 931 682 931 663 992.5 c 128,-1,18
 644 1054 644 1054 592 1114 c 1,19,20
 592 1146.32258065 592 1146.32258065 632.5 1162 c 0,21,22
 648 1168 648 1168 676 1168 c 128,-1,23
 704 1168 704 1168 736.5 1149 c 128,-1,24
 769 1130 769 1130 783.5 1110.5 c 2,25,-1
 798 1091 l 1,26,-1
 800 1091 l 1,27,28
 842.964285714 1176.92857143 842.964285714 1176.92857143 911.5 1213 c 0,29,30
 940 1228 940 1228 971 1228 c 128,-1,31
 1002 1228 1002 1228 1021 1214.5 c 128,-1,32
 1040 1201 1040 1201 1046 1174 c 1,33,34
 994 1100 994 1100 975 1026.5 c 128,-1,35
 956 953 956 953 956 812 c 2,36,-1
 956 515 l 1,37,-1
 958 515 l 2,38,39
 1025 515 1025 515 1066.5 531.5 c 128,-1,40
 1108 548 1108 548 1146 584 c 1,41,42
 1169.86206897 584 1169.86206897 584 1181.5 546.5 c 0,43,44
 1186 532 1186 532 1186 510 c 128,-1,45
 1186 488 1186 488 1171.5 463.5 c 0,46,47
 1150.74008811 428.422907489 1150.74008811 428.422907489 1129 416 c 1,48,49
 1186 368.5 1186 368.5 1186 317 c 0,50,51
 1186 256 1186 256 1146 246 c 1,52,53
 1050 336 1050 336 967 336 c 2,54,-1
 956 336 l 1,55,56
 959 205 959 205 983 130 c 128,-1,57
 1007 55 1007 55 1066 -13 c 1,58,59
 1066 -45.4615384615 1066 -45.4615384615 1015.5 -61 c 0,60,61
 996 -67 996 -67 962 -67 c 128,-1,62
 928 -67 928 -67 890.5 -47.5 c 128,-1,63
 853 -28 853 -28 836.5 -9 c 2,64,-1
 820 10 l 1,65,66
 789.428571429 -35.8571428571 789.428571429 -35.8571428571 721.5 -58.5 c 0,67,68
 696 -67 696 -67 663 -67 c 128,-1,69
 630 -67 630 -67 606 -53.5 c 128,-1,70
 582 -40 582 -40 578 -26.5 c 2,71,-1
 574 -13 l 1,72,73
 629 51 629 51 653.5 121 c 128,-1,74
 678 191 678 191 682 307 c 1,75,76
 675 308 675 308 649.5 308 c 128,-1,77
 624 308 624 308 551 277 c 128,-1,78
 478 246 478 246 445 246 c 0,79,80
 345 246 345 246 298 360 c 1,81,82
 284.436363636 326.090909091 284.436363636 326.090909091 253.218181818 298.545454545 c 0,83,84
 193.666666667 246 193.666666667 246 142 246 c 0,85,86
 53 246 53 246 53 324 c 0,87,88
 53 391.869565217 53 391.869565217 89.5 449 c 0,89,90
 101 467 101 467 106 476 c 128,-1,91
 111 485 111 485 126.5 505 c 128,-1,92
 142 525 142 525 147 531 c 128,-1,93
 152 537 152 537 170.5 559 c 128,-1,94
 189 581 189 581 193 586 c 1,95,-1
 390 1068 l 2,96,97
 419.685207838 1140.43190713 419.685207838 1140.43190713 419.685207838 1227.92206199 c 128,-1,98
 419.685207838 1315.41221686 419.685207838 1315.41221686 392.510602192 1395.7089102 c 128,-1,99
 365.335996547 1476.00560354 365.335996547 1476.00560354 339 1503 c 1,100,101
 340 1505 340 1505 341.5 1509 c 128,-1,102
 343 1513 343 1513 350 1523.5 c 128,-1,103
 357 1534 357 1534 366.5 1541.5 c 0,104,105
 392.466666667 1562 392.466666667 1562 429.233333333 1562 c 128,-1,106
 466 1562 466 1562 492 1553 c 128,-1,107
 518 1544 518 1544 531 1532 c 0,108,109
 558.397849462 1506.70967742 558.397849462 1506.70967742 565 1477 c 1,0,1
EndSplineSet
EndChar

StartChar: five
Encoding: 43 53 22
Width: 1119
Flags: HW
LayerCount: 2
Fore
SplineSet
778 1231 m 1,0,-1
 468 1209 l 1,1,2
 356 1209 356 1209 283 1266 c 1,3,-1
 283 911 l 1,4,5
 441 1000 441 1000 591 1000 c 0,6,7
 795 1000 795 1000 924 841 c 128,-1,8
 1053 682 1053 682 1053 438 c 0,9,10
 1053 223.883333333 1053 223.883333333 931 78.5 c 0,11,12
 803.027972028 -74 803.027972028 -74 551 -74 c 128,-1,13
 298.93258427 -74 298.93258427 -74 163 57.5 c 0,14,15
 63 154.239130435 63 154.239130435 63 315 c 0,16,17
 63 355 63 355 89.5 427 c 128,-1,18
 116 499 116 499 116 540 c 128,-1,19
 116 581 116 581 82 627 c 1,20,21
 96 637 96 637 119 637 c 0,22,23
 181 637 181 637 228.5 575.5 c 128,-1,24
 276 514 276 514 277 450 c 1,25,26
 343 485 343 485 389 485 c 128,-1,27
 435 485 435 485 454.5 468 c 128,-1,28
 474 451 474 451 482 425.5 c 0,29,30
 496 380.875 496 380.875 496 347 c 2,31,-1
 496 339 l 1,32,33
 470 351 470 351 449 351 c 0,34,35
 397 351 397 351 368 295 c 128,-1,36
 339 239 339 239 339 172 c 128,-1,37
 339 105 339 105 400.5 59 c 128,-1,38
 462 13 462 13 546.5 13 c 128,-1,39
 631 13 631 13 694 69.5 c 128,-1,40
 757 126 757 126 757 234 c 0,41,42
 757 400.615384615 757 400.615384615 644 474.5 c 0,43,44
 631 483 631 483 631 487 c 128,-1,45
 631 491 631 491 653 517 c 0,46,47
 719 595 719 595 719 643 c 0,48,49
 719 777 719 777 659.5 842 c 128,-1,50
 600 907 600 907 519.5 907 c 128,-1,51
 439 907 439 907 369 871 c 128,-1,52
 299 835 299 835 254 776 c 0,53,54
 231 746 231 746 199 746 c 128,-1,55
 167 746 167 746 146.5 765.5 c 128,-1,56
 126 785 126 785 126 804.5 c 128,-1,57
 126 824 126 824 127 1509 c 1,58,-1
 646 1476 l 1,59,60
 771 1476 771 1476 839 1491 c 128,-1,61
 907 1506 907 1506 966 1546 c 1,62,63
 998.322580645 1546 998.322580645 1546 1014 1505.5 c 0,64,65
 1020 1490 1020 1490 1020 1470 c 0,66,67
 1020 1387.5 1020 1387.5 943 1349 c 1,68,69
 986.8 1334.4 986.8 1334.4 1011.5 1285 c 0,70,71
 1020 1268 1020 1268 1020 1243.5 c 128,-1,72
 1020 1219 1020 1219 1015.5 1194 c 128,-1,73
 1011 1169 1011 1169 1004 1156 c 0,74,75
 990.682926829 1131.26829268 990.682926829 1131.26829268 974 1122 c 1,76,77
 891 1231 891 1231 778 1231 c 1,0,-1
EndSplineSet
EndChar

StartChar: six
Encoding: 44 54 23
Width: 1170
Flags: HW
LayerCount: 2
Fore
SplineSet
974 1041 m 1,0,-1
 980 970 l 1,1,2
 974 969 974 969 954 969 c 128,-1,3
 934 969 934 969 909.5 986.5 c 128,-1,4
 885 1004 885 1004 873.5 1031.5 c 0,5,6
 853 1080.52173913 853 1080.52173913 853 1128 c 1,7,-1
 857 1177 l 1,8,9
 834 1172 834 1172 796.5 1172 c 128,-1,10
 759 1172 759 1172 728 1182 c 128,-1,11
 697 1192 697 1192 683 1208 c 0,12,13
 658 1236.57142857 658 1236.57142857 658 1253.28571429 c 0,14,15
 658 1275 658 1275 662 1285 c 1,16,17
 681 1279 681 1279 711.5 1279 c 128,-1,18
 742 1279 742 1279 783 1303.5 c 128,-1,19
 824 1328 824 1328 824 1360 c 0,20,21
 824 1427 824 1427 708 1427 c 0,22,23
 575.441176471 1427 575.441176471 1427 491 1328 c 0,24,25
 425 1250.62068966 425 1250.62068966 425 1117 c 0,26,27
 425 1038 425 1038 449 946 c 1,28,29
 521 972 521 972 605 972 c 0,30,31
 774 972 774 972 892 892 c 128,-1,32
 1010 812 1010 812 1025 672 c 0,33,34
 1038.54054054 536.594594595 1038.54054054 536.594594595 1114 480 c 0,35,36
 1122 474 1122 474 1122 470.5 c 128,-1,37
 1122 467 1122 467 1108.5 458.5 c 128,-1,38
 1095 450 1095 450 1078.5 436 c 128,-1,39
 1062 422 1062 422 1048.5 380.5 c 128,-1,40
 1035 339 1035 339 1035 270 c 128,-1,41
 1035 201 1035 201 1011 139.5 c 128,-1,42
 987 78 987 78 946 37.5 c 128,-1,43
 905 -3 905 -3 848 -30 c 128,-1,44
 791 -57 791 -57 728.5 -68.5 c 128,-1,45
 666 -80 666 -80 596 -80 c 128,-1,46
 526 -80 526 -80 461.5 -68.5 c 128,-1,47
 397 -57 397 -57 337 -29.5 c 128,-1,48
 277 -2 277 -2 233 38 c 0,49,50
 137 125.272727273 137 125.272727273 137 277 c 0,51,52
 137 339 137 339 123.5 380.5 c 128,-1,53
 110 422 110 422 93.5 436 c 128,-1,54
 77 450 77 450 63.5 458.5 c 128,-1,55
 50 467 50 467 50 470.5 c 128,-1,56
 50 474 50 474 59.5 484 c 128,-1,57
 69 494 69 494 82 512.5 c 128,-1,58
 95 531 95 531 108 557 c 0,59,60
 140 621 140 621 140 728 c 1,61,-1
 136 860 l 1,62,63
 136 1276.30656934 136 1276.30656934 368.5 1454.5 c 0,64,65
 495.714285714 1552 495.714285714 1552 653.357142857 1552 c 128,-1,66
 811 1552 811 1552 924 1470 c 128,-1,67
 1037 1388 1037 1388 1037 1267 c 0,68,69
 1037 1173 1037 1173 980 1069 c 0,70,71
 974 1057 974 1057 974 1041 c 1,0,-1
595 55 m 0,72,73
 754 55 754 55 754 282 c 0,74,75
 754 414 754 414 675 453.5 c 0,76,77
 666 458 666 458 666 461 c 128,-1,78
 666 464 666 464 676 468.5 c 128,-1,79
 686 473 686 473 700.5 483 c 128,-1,80
 715 493 715 493 729.5 509.5 c 0,81,82
 764 548.75862069 764 548.75862069 764 640.879310345 c 128,-1,83
 764 733 764 733 721 782.5 c 128,-1,84
 678 832 678 832 600.5 832 c 128,-1,85
 523 832 523 832 480.5 783 c 128,-1,86
 438 734 438 734 438 638 c 0,87,88
 438 507.3125 438 507.3125 507 468.5 c 0,89,90
 515 464 515 464 515 461 c 128,-1,91
 515 458 515 458 506 454 c 128,-1,92
 497 450 497 450 484.5 440.5 c 128,-1,93
 472 431 472 431 459 414.5 c 0,94,95
 428 375.153846154 428 375.153846154 428 273.076923077 c 128,-1,96
 428 171 428 171 472 113 c 128,-1,97
 516 55 516 55 595 55 c 0,72,73
EndSplineSet
EndChar

StartChar: seven
Encoding: 45 55 24
Width: 1120
Flags: HW
LayerCount: 2
Fore
SplineSet
847 1438 m 1,0,1
 945.4 1561 945.4 1561 1011 1561 c 0,2,3
 1031 1561 1031 1561 1052.5 1542.5 c 128,-1,4
 1074 1524 1074 1524 1074 1505 c 128,-1,5
 1074 1486 1074 1486 1066 1472 c 0,6,7
 814.847151968 1041.71607653 814.847151968 1041.71607653 718.423575984 832.358038267 c 128,-1,8
 622 623 622 623 590 501 c 128,-1,9
 558 379 558 379 558 244.5 c 128,-1,10
 558 110 558 110 635 -40 c 1,11,-1
 636 -44 l 1,12,13
 636 -67 636 -67 573 -67 c 128,-1,14
 510 -67 510 -67 452 -38.5 c 128,-1,15
 394 -10 394 -10 366 51 c 1,16,17
 327 0 327 0 250.5 -33.5 c 128,-1,18
 174 -67 174 -67 126.5 -67 c 128,-1,19
 79 -67 79 -67 79 -47 c 0,20,21
 79 -37 79 -37 90 -23 c 0,22,23
 161 67 161 67 254.5 316 c 128,-1,24
 348 565 348 565 348 731 c 0,25,26
 348 774 348 774 335 832 c 1,27,28
 510.964685616 888.850129199 510.964685616 888.850129199 680.5 1103 c 0,29,30
 756.767605634 1199.33802817 756.767605634 1199.33802817 812 1305 c 1,31,32
 575 1304 575 1304 456 1304 c 128,-1,33
 337 1304 337 1304 279.5 1281.5 c 128,-1,34
 222 1259 222 1259 180.5 1219.5 c 128,-1,35
 139 1180 139 1180 93 1112 c 1,36,37
 62 1132.66666667 62 1132.66666667 62 1180.33333333 c 128,-1,38
 62 1228 62 1228 80.5 1271.5 c 0,39,40
 110.240506329 1341.43037975 110.240506329 1341.43037975 139 1363 c 1,41,42
 108.649253731 1380.34328358 108.649253731 1380.34328358 85.3246268657 1417.17164179 c 128,-1,43
 62 1454 62 1454 62 1485 c 0,44,45
 62 1550 62 1550 95 1560 c 1,46,47
 227 1488 227 1488 353 1488 c 0,48,49
 408 1488 408 1488 527.5 1522.5 c 128,-1,50
 647 1557 647 1557 698 1557 c 0,51,52
 809 1557 809 1557 847 1438 c 1,0,1
EndSplineSet
EndChar

StartChar: eight
Encoding: 46 56 25
Width: 1096
Flags: HW
LayerCount: 2
Fore
SplineSet
163.5 941.5 m 128,-1,1
 94 1054 94 1054 94 1168 c 128,-1,2
 94 1282 94 1282 135.5 1359 c 128,-1,3
 177 1436 177 1436 245.5 1484 c 0,4,5
 389.635416667 1585 389.635416667 1585 570 1585 c 0,6,7
 801.116129032 1585 801.116129032 1585 913 1435.5 c 0,8,9
 971 1358 971 1358 971 1249 c 128,-1,10
 971 1140 971 1140 890.5 1038 c 128,-1,11
 810 936 810 936 682 872 c 1,12,13
 1038 711 1038 711 1038 347 c 0,14,15
 1038 92.1492537313 1038 92.1492537313 817 -20 c 0,16,17
 688.911764706 -85 688.911764706 -85 511 -85 c 0,18,19
 291.771428571 -85 291.771428571 -85 174 29.5 c 0,20,21
 63 137.416666667 63 137.416666667 63 281.708333333 c 128,-1,22
 63 426 63 426 139.5 550.5 c 128,-1,23
 216 675 216 675 358 750 c 1,24,0
 233 829 233 829 163.5 941.5 c 128,-1,1
689 318 m 0,25,26
 689 503.95 689 503.95 576 600 c 0,27,28
 506 659.5 506 659.5 417 704 c 1,29,-1
 400.5 671 l 2,30,31
 360.294117647 590.588235294 360.294117647 590.588235294 354.647058824 567.294117647 c 0,32,33
 341 511 341 511 341 474 c 128,-1,34
 341 437 341 437 357 407 c 128,-1,35
 373 377 373 377 389 361 c 128,-1,36
 405 345 405 345 405 342 c 128,-1,37
 405 339 405 339 389.5 320 c 0,38,39
 342 261.774193548 342 261.774193548 342 192.887096774 c 128,-1,40
 342 124 342 124 394 77.5 c 128,-1,41
 446 31 446 31 516.5 31 c 128,-1,42
 587 31 587 31 638 102.5 c 128,-1,43
 689 174 689 174 689 318 c 0,25,26
457.5 1423.5 m 128,-1,45
 405 1370 405 1370 405 1257.5 c 128,-1,46
 405 1145 405 1145 447 1074 c 128,-1,47
 489 1003 489 1003 621 919 c 1,48,49
 644 942 644 942 650 949 c 128,-1,50
 656 956 656 956 668.5 969.5 c 128,-1,51
 681 983 681 983 685 988.5 c 128,-1,52
 689 994 689 994 698.5 1006.5 c 128,-1,53
 708 1019 708 1019 712 1026 c 128,-1,54
 716 1033 716 1033 722.5 1045 c 128,-1,55
 729 1057 729 1057 731.5 1065.5 c 0,56,57
 738 1087.6 738 1087.6 738 1108.3 c 128,-1,58
 738 1129 738 1129 730.5 1150.5 c 128,-1,59
 723 1172 723 1172 712.5 1187 c 128,-1,60
 702 1202 702 1202 691 1213.5 c 128,-1,61
 680 1225 680 1225 672.5 1232 c 128,-1,62
 665 1239 665 1239 665 1241.5 c 128,-1,63
 665 1244 665 1244 684.5 1257.5 c 0,64,65
 742 1297.30769231 742 1297.30769231 742 1353.15384615 c 128,-1,66
 742 1409 742 1409 694 1443 c 128,-1,67
 646 1477 646 1477 578 1477 c 128,-1,44
 510 1477 510 1477 457.5 1423.5 c 128,-1,45
EndSplineSet
EndChar

StartChar: nine
Encoding: 47 57 26
Width: 1168
Flags: HW
LayerCount: 2
Fore
SplineSet
195 431 m 1,0,-1
 189 502 l 1,1,2
 195 503 195 503 215 503 c 128,-1,3
 235 503 235 503 259.5 485.5 c 128,-1,4
 284 468 284 468 295.5 440.5 c 0,5,6
 316 391.47826087 316 391.47826087 316 344 c 1,7,-1
 312 295 l 1,8,9
 335 300 335 300 372.5 300 c 128,-1,10
 410 300 410 300 441 290 c 128,-1,11
 472 280 472 280 486 264 c 0,12,13
 511 235.428571429 511 235.428571429 511 218.714285714 c 0,14,15
 511 197 511 197 507 187 c 1,16,17
 488 193 488 193 457.5 193 c 128,-1,18
 427 193 427 193 386 168.5 c 128,-1,19
 345 144 345 144 345 112 c 0,20,21
 345 45 345 45 461 45 c 0,22,23
 593.558823529 45 593.558823529 45 678 144 c 0,24,25
 744 221.379310345 744 221.379310345 744 355 c 0,26,27
 744 434 744 434 720 526 c 1,28,29
 648 500 648 500 564 500 c 0,30,31
 395 500 395 500 277 580 c 128,-1,32
 159 660 159 660 144 800 c 0,33,34
 130.459459459 935.405405405 130.459459459 935.405405405 55 992 c 0,35,36
 47 998 47 998 47 1001.5 c 128,-1,37
 47 1005 47 1005 60.5 1013.5 c 128,-1,38
 74 1022 74 1022 90.5 1036 c 128,-1,39
 107 1050 107 1050 120.5 1091.5 c 128,-1,40
 134 1133 134 1133 134 1202 c 128,-1,41
 134 1271 134 1271 158 1332.5 c 128,-1,42
 182 1394 182 1394 223 1434.5 c 128,-1,43
 264 1475 264 1475 321 1502 c 128,-1,44
 378 1529 378 1529 440.5 1540.5 c 128,-1,45
 503 1552 503 1552 573 1552 c 128,-1,46
 643 1552 643 1552 707.5 1540.5 c 128,-1,47
 772 1529 772 1529 832 1501.5 c 128,-1,48
 892 1474 892 1474 936 1434 c 0,49,50
 1032 1346.72727273 1032 1346.72727273 1032 1195 c 0,51,52
 1032 1133 1032 1133 1045.5 1091.5 c 128,-1,53
 1059 1050 1059 1050 1075.5 1036 c 128,-1,54
 1092 1022 1092 1022 1105.5 1013.5 c 128,-1,55
 1119 1005 1119 1005 1119 1001 c 128,-1,56
 1119 997 1119 997 1109.5 987.5 c 128,-1,57
 1100 978 1100 978 1087 959.5 c 128,-1,58
 1074 941 1074 941 1061 915 c 0,59,60
 1029 851 1029 851 1029 744 c 1,61,-1
 1033 612 l 1,62,63
 1033 195.693430657 1033 195.693430657 800.5 17.5 c 0,64,65
 673.285714286 -80 673.285714286 -80 515.642857143 -80 c 128,-1,66
 358 -80 358 -80 245 2 c 128,-1,67
 132 84 132 84 132 205 c 0,68,69
 132 299 132 299 189 403 c 0,70,71
 195 415 195 415 195 431 c 1,0,-1
574 1417 m 0,72,73
 415 1417 415 1417 415 1190 c 0,74,75
 415 1058 415 1058 494 1018.5 c 0,76,77
 503 1014 503 1014 503 1011 c 128,-1,78
 503 1008 503 1008 493 1003.5 c 128,-1,79
 483 999 483 999 468.5 989 c 128,-1,80
 454 979 454 979 439.5 962.5 c 0,81,82
 405 923.24137931 405 923.24137931 405 831.120689655 c 128,-1,83
 405 739 405 739 448 689.5 c 128,-1,84
 491 640 491 640 568.5 640 c 128,-1,85
 646 640 646 640 688.5 689 c 128,-1,86
 731 738 731 738 731 834 c 0,87,88
 731 964.6875 731 964.6875 662 1003.5 c 0,89,90
 654 1008 654 1008 654 1011 c 128,-1,91
 654 1014 654 1014 663 1018 c 128,-1,92
 672 1022 672 1022 685 1031.5 c 128,-1,93
 698 1041 698 1041 710.5 1057.5 c 0,94,95
 741 1097.76 741 1097.76 741 1199.38 c 128,-1,96
 741 1301 741 1301 697 1359 c 128,-1,97
 653 1417 653 1417 574 1417 c 0,72,73
EndSplineSet
EndChar

StartChar: colon
Encoding: 48 58 27
Width: 441
Flags: HW
LayerCount: 2
Fore
SplineSet
225 326 m 1,0,1
 436 142 l 1,2,-1
 225 -48 l 1,3,-1
 13 135 l 1,4,5
 13 141 13 141 114.5 233.5 c 128,-1,6
 216 326 216 326 225 326 c 1,0,1
225 1006.09960938 m 4,7,8
 225.011232964 1006.09960938 225.011232964 1006.09960938 330.505616482 914.112600567 c 128,-1,9
 436 822.125591755 436 822.125591755 436 822.099609375 c 2,10,-1
 225 632.099609375 l 2,11,12
 224.955095906 632.099609375 224.955095906 632.099609375 118.977547953 723.582565208 c 128,-1,13
 13 815.06552104 13 815.06552104 13 815.099609375 c 0,14,15
 13 820.854371563 13 820.854371563 114.738588219 913.476990472 c 128,-1,16
 216.477176438 1006.09960938 216.477176438 1006.09960938 225 1006.09960938 c 4,7,8
EndSplineSet
EndChar

StartChar: semicolon
Encoding: 49 59 28
Width: 459
Flags: HW
LayerCount: 2
Fore
SplineSet
225 1006.09960938 m 0,0,1
 225.011232964 1006.09960938 225.011232964 1006.09960938 330.505616482 914.112600567 c 128,-1,2
 436 822.125591755 436 822.125591755 436 822.099609375 c 2,3,-1
 225 632.099609375 l 2,4,5
 224.955095906 632.099609375 224.955095906 632.099609375 118.977547953 723.582565208 c 128,-1,6
 13 815.06552104 13 815.06552104 13 815.099609375 c 0,7,8
 13 820.854371563 13 820.854371563 114.738588219 913.476990472 c 128,-1,9
 216.477176438 1006.09960938 216.477176438 1006.09960938 225 1006.09960938 c 0,0,1
89 -283 m 1,10,-1
 89 -189 l 1,11,12
 170 -169 170 -169 210.5 -122 c 128,-1,13
 251 -75 251 -75 251 13 c 1,14,-1
 249 13 l 1,15,16
 213 -3 213 -3 141 -3 c 1,17,18
 79 79 79 79 79 183 c 1,19,20
 95 216 95 216 132.5 237.5 c 128,-1,21
 170 259 170 259 228 259 c 128,-1,22
 286 259 286 259 351 224 c 1,23,24
 378 124 378 124 378 6 c 128,-1,25
 378 -112 378 -112 300.5 -191.5 c 128,-1,26
 223 -271 223 -271 89 -283 c 1,10,-1
EndSplineSet
EndChar

StartChar: less
Encoding: 50 60 29
Width: 1209
Flags: HW
LayerCount: 2
Fore
SplineSet
1135 216 m 1,0,-1
 1135 41 l 1,1,-1
 66 498 l 1,2,-1
 66 648 l 1,3,-1
 1135 1107 l 1,4,-1
 1135 931 l 1,5,-1
 290 573 l 1,6,-1
 1135 216 l 1,0,-1
EndSplineSet
EndChar

StartChar: equal
Encoding: 51 61 30
Width: 1215
Flags: HW
LayerCount: 2
Fore
SplineSet
1121 870 m 1,0,-1
 1121 707 l 1,1,-1
 94 707 l 1,2,-1
 94 870 l 1,3,-1
 1121 870 l 1,0,-1
1121 441 m 1,4,-1
 1121 278 l 1,5,-1
 94 278 l 1,6,-1
 94 441 l 1,7,-1
 1121 441 l 1,4,-1
EndSplineSet
EndChar

StartChar: greater
Encoding: 52 62 31
Width: 1208
Flags: HW
LayerCount: 2
Fore
SplineSet
74 216 m 1,0,-1
 919 573 l 1,1,-1
 74 931 l 1,2,-1
 74 1106 l 1,3,-1
 1143 648 l 1,4,-1
 1143 498 l 1,5,-1
 74 41 l 1,6,-1
 74 216 l 1,0,-1
EndSplineSet
EndChar

StartChar: question
Encoding: 53 63 32
Width: 1043
Flags: HW
LayerCount: 2
Fore
SplineSet
671 1188 m 0,0,1
 671 1365 671 1365 514 1365 c 0,2,3
 466 1365 466 1365 427.5 1336 c 128,-1,4
 389 1307 389 1307 389 1249 c 128,-1,5
 389 1191 389 1191 435.5 1162 c 128,-1,6
 482 1133 482 1133 544 1130 c 1,7,8
 544 1116.63636364 544 1116.63636364 537.5 1099.5 c 0,9,10
 532 1085 532 1085 521.5 1075.5 c 128,-1,11
 511 1066 511 1066 488 1057.5 c 128,-1,12
 465 1049 465 1049 434.5 1049 c 128,-1,13
 404 1049 404 1049 360.013513514 1060.72972973 c 128,-1,14
 316.027027027 1072.45945946 316.027027027 1072.45945946 309 1083 c 1,15,16
 294.171806167 1026.98237885 294.171806167 1026.98237885 259.5 975.5 c 0,17,18
 243 951 243 951 213.5 934 c 128,-1,19
 184 917 184 917 151 917 c 128,-1,20
 118 917 118 917 100 911 c 1,21,22
 150 966 150 966 150 1026 c 0,23,24
 150 1042 150 1042 126 1119 c 128,-1,25
 102 1196 102 1196 102 1242 c 0,26,27
 102 1379.02325581 102 1379.02325581 199 1467 c 0,28,29
 242 1506 242 1506 321.731481481 1545.5 c 128,-1,30
 401.462962963 1585 401.462962963 1585 506 1585 c 0,31,32
 746 1585 746 1585 881.5 1473.5 c 128,-1,33
 1017 1362 1017 1362 1017 1155 c 0,34,35
 1017 899 1017 899 845 753 c 0,36,37
 789.060085837 705.051502146 789.060085837 705.051502146 763 628.5 c 0,38,39
 755 605 755 605 745 599 c 1,40,-1
 737 597 l 1,41,42
 732 597 732 597 683 605.399902344 c 128,-1,43
 634 613.799804688 634 613.799804688 605 613.799804688 c 0,44,45
 419 613.799804688 419 613.799804688 419 348.099609375 c 0,46,47
 419 313.726614958 419 313.726614958 387.577712372 300.348824507 c 0,48,49
 373.947568239 294.545898438 373.947568239 294.545898438 351.516307334 294.545898438 c 128,-1,50
 329.085046429 294.545898438 329.085046429 294.545898438 307.542523215 312.343606026 c 128,-1,51
 286 330.141313614 286 330.141313614 286 348.972737799 c 128,-1,52
 286 367.804161984 286 367.804161984 279.893510097 399.004697683 c 128,-1,53
 273.787020194 430.205233381 273.787020194 430.205233381 267.680530291 476.565902203 c 128,-1,54
 261.574040388 522.926571025 261.574040388 522.926571025 261.574040388 565.356379173 c 128,-1,55
 261.574040388 607.786187321 261.574040388 607.786187321 268.642623202 648.104115574 c 0,56,57
 272.329276937 669.132127084 272.329276937 669.132127084 278.68863874 688.931991767 c 128,-1,58
 285.048000543 708.731856451 285.048000543 708.731856451 293.842046918 727.618938928 c 128,-1,59
 302.636093294 746.506021405 302.636093294 746.506021405 315.120774476 764.208391502 c 128,-1,60
 327.605455657 781.910761599 327.605455657 781.910761599 352.096845476 806.249498447 c 128,-1,61
 376.588235294 830.588235294 376.588235294 830.588235294 403.5 918.5 c 0,62,63
 411 943 411 943 416.894613565 943 c 128,-1,64
 422.789227131 943 422.789227131 943 463.760397025 928.641601562 c 128,-1,65
 504.731566919 914.283203125 504.731566919 914.283203125 530.99609375 914.283203125 c 0,66,67
 671 914.283203125 671 914.283203125 671 1188 c 0,0,1
377 175.599609375 m 0,68,69
 377.011843302 175.599609375 377.011843302 175.599609375 482.505921651 83.6126537861 c 128,-1,70
 588 -8.37430180272 588 -8.37430180272 588 -8.400390625 c 2,71,-1
 377 -198.400390625 l 2,72,73
 376.982864089 -198.400390625 376.982864089 -198.400390625 270.991432044 -106.924721098 c 128,-1,74
 165 -15.449051572 165 -15.449051572 165 -15.400390625 c 0,75,76
 165 -9.64623520324 165 -9.64623520324 266.738656513 82.9766870859 c 128,-1,77
 368.477313027 175.599609375 368.477313027 175.599609375 377 175.599609375 c 0,68,69
EndSplineSet
EndChar

StartChar: at
Encoding: 54 64 33
Width: 1798
Flags: HW
LayerCount: 2
Fore
SplineSet
696 692.5 m 128,-1,1
 659 592 659 592 659 492.5 c 128,-1,2
 659 393 659 393 706 330.5 c 128,-1,3
 753 268 753 268 829.5 268 c 128,-1,4
 906 268 906 268 977 348 c 128,-1,5
 1048 428 1048 428 1085.5 534.5 c 128,-1,6
 1123 641 1123 641 1123 736 c 128,-1,7
 1123 831 1123 831 1081.5 884.5 c 128,-1,8
 1040 938 1040 938 958 938 c 128,-1,9
 876 938 876 938 804.5 865.5 c 128,-1,0
 733 793 733 793 696 692.5 c 128,-1,1
1172 923 m 1,10,-1
 1200 1038 l 1,11,-1
 1367 1038 l 1,12,-1
 1214 379 l 1,13,14
 1210 368 1210 368 1210 342.5 c 128,-1,15
 1210 317 1210 317 1227.5 291.5 c 128,-1,16
 1245 266 1245 266 1284.5 266 c 128,-1,17
 1324 266 1324 266 1378.5 304 c 128,-1,18
 1433 342 1433 342 1482 404 c 128,-1,19
 1531 466 1531 466 1564.5 558.5 c 128,-1,20
 1598 651 1598 651 1598 755 c 128,-1,21
 1598 859 1598 859 1550.5 962.5 c 128,-1,22
 1503 1066 1503 1066 1419.5 1145 c 128,-1,23
 1336 1224 1336 1224 1212.5 1271.5 c 128,-1,24
 1089 1319 1089 1319 946.5 1319 c 128,-1,25
 804 1319 804 1319 676.5 1266 c 128,-1,26
 549 1213 549 1213 453 1117 c 128,-1,27
 357 1021 357 1021 301 875 c 128,-1,28
 245 729 245 729 245 570.5 c 128,-1,29
 245 412 245 412 295.5 291 c 128,-1,30
 346 170 346 170 438.5 82 c 128,-1,31
 531 -6 531 -6 668 -56 c 128,-1,32
 805 -106 805 -106 971 -106 c 0,33,34
 1327 -106 1327 -106 1536 95 c 1,35,-1
 1642 49 l 1,36,37
 1378 -237 1378 -237 973 -237 c 0,38,39
 792 -237 792 -237 640 -192 c 128,-1,40
 488 -147 488 -147 383 -71 c 128,-1,41
 278 5 278 5 205 107.5 c 0,42,43
 64 305.479452055 64 305.479452055 64 557 c 0,44,45
 64 829.394557823 64 829.394557823 208.5 1054.5 c 0,46,47
 365.920374933 1299.73310109 365.920374933 1299.73310109 635.5 1394.5 c 0,48,49
 782 1446 782 1446 952 1446 c 128,-1,50
 1122 1446 1122 1446 1268.5 1390.5 c 128,-1,51
 1415 1335 1415 1335 1516 1241 c 128,-1,52
 1617 1147 1617 1147 1674.5 1018.5 c 128,-1,53
 1732 890 1732 890 1732 765.5 c 128,-1,54
 1732 641 1732 641 1694 532.5 c 128,-1,55
 1656 424 1656 424 1591.5 337 c 128,-1,56
 1527 250 1527 250 1431.5 195 c 128,-1,57
 1336 140 1336 140 1237.5 140 c 128,-1,58
 1139 140 1139 140 1088.5 188.5 c 128,-1,59
 1038 237 1038 237 1038 298 c 1,60,-1
 1036 298 l 1,61,62
 987 237 987 237 913 190.5 c 128,-1,63
 839 144 839 144 779 143 c 128,-1,64
 719 142 719 142 679.5 155 c 128,-1,65
 640 168 640 168 603 194.5 c 0,66,67
 520.95415543 253.262564354 520.95415543 253.262564354 499 379 c 1,68,69
 480 438 480 438 480 519 c 128,-1,70
 480 600 480 600 516.5 700.5 c 128,-1,71
 553 801 553 801 613.5 882.5 c 128,-1,72
 674 964 674 964 762.5 1015.5 c 128,-1,73
 851 1067 851 1067 938 1067 c 128,-1,74
 1025 1067 1025 1067 1077.5 1030 c 128,-1,75
 1130 993 1130 993 1172 923 c 1,10,-1
EndSplineSet
EndChar

StartChar: A
Encoding: 55 65 34
Width: 1261
Flags: HW
LayerCount: 2
Fore
SplineSet
981 55 m 1,0,1
 928.5 -50 928.5 -50 820 -50 c 0,2,3
 762.941176471 -50 762.941176471 -50 742.470588235 -35.5 c 0,4,5
 709.9408867 -12.4581280788 709.9408867 -12.4581280788 701 9 c 1,6,7
 764 85 764 85 764 202 c 0,8,9
 764 303.465015309 764 303.465015309 750.651960143 350.190919946 c 128,-1,10
 737.303920285 396.916824584 737.303920285 396.916824584 720.455398577 453.757097678 c 128,-1,11
 703.606876868 510.597370771 703.606876868 510.597370771 690.15625 565.249023438 c 1,12,-1
 683 565.25 l 1,13,-1
 454.108398438 564.166015625 l 1,14,15
 448.243309448 539.306460261 448.243309448 539.306460261 433.31579309 481.112193396 c 128,-1,16
 418.388276732 422.917926532 418.388276732 422.917926532 411.72309269 393.107089707 c 0,17,18
 392 304.89318681 392 304.89318681 392 220 c 0,19,20
 392 91 392 91 465 9 c 1,21,22
 464 7 464 7 463 3 c 128,-1,23
 462 -1 462 -1 455.5 -11.5 c 128,-1,24
 449 -22 449 -22 441 -29.5 c 0,25,26
 419.133333333 -50 419.133333333 -50 387.566666667 -50 c 128,-1,27
 356 -50 356 -50 332.5 -39 c 128,-1,28
 309 -28 309 -28 295.5 -13 c 0,29,30
 266.3203125 19.421875 266.3203125 19.421875 255 55 c 1,31,32
 213.918367347 13.9183673469 213.918367347 13.9183673469 154.959183673 -18.0408163265 c 128,-1,33
 96 -50 96 -50 53 -50 c 0,34,35
 -17 -50 -17 -50 -17 2 c 2,36,-1
 -17 9 l 1,37,38
 65 74 65 74 108 147.5 c 128,-1,39
 151 221 151 221 191 364 c 2,40,-1
 242.895507812 547.4609375 l 1,41,42
 181.705731978 531.908380795 181.705731978 531.908380795 134 495 c 1,43,44
 124.307692308 495 124.307692308 495 115.653846154 510 c 128,-1,45
 107 525 107 525 107 546 c 0,46,47
 107 593 107 593 177 629 c 1,48,49
 159 635 159 635 140.5 653.5 c 0,50,51
 107 687 107 687 107 708.5 c 128,-1,52
 107 730 107 730 110 740.5 c 128,-1,53
 113 751 113 751 116.5 756 c 0,54,55
 123.698113208 766.283018868 123.698113208 766.283018868 134 768 c 1,56,57
 195.880994377 720.125354591 195.880994377 720.125354591 287.942382812 706.709960938 c 1,58,-1
 404 1117 l 2,59,60
 443 1255 443 1255 443 1337 c 128,-1,61
 443 1419 443 1419 390 1502 c 1,62,-1
 390 1506 l 2,63,64
 390 1562 390 1562 503 1562 c 0,65,66
 561.272727273 1562 561.272727273 1562 629 1487.5 c 0,67,68
 644 1471 644 1471 660 1447 c 1,69,70
 688.542372881 1518.3559322 688.542372881 1518.3559322 774.5 1549.5 c 0,71,72
 809 1562 809 1562 843 1562 c 128,-1,73
 877 1562 877 1562 895 1547 c 128,-1,74
 913 1532 913 1532 921 1502 c 1,75,76
 892.05078125 1418.24135256 892.05078125 1418.24135256 892.05078125 1310.62021899 c 128,-1,77
 892.05078125 1202.99908541 892.05078125 1202.99908541 910.025390625 1118.99954271 c 128,-1,78
 928 1035 928 1035 955.5 961.5 c 128,-1,79
 983 888 983 888 1007.5 854 c 128,-1,80
 1032 820 1032 820 1053 800.5 c 128,-1,81
 1074 781 1074 781 1086.5 771.5 c 128,-1,82
 1099 762 1099 762 1099 753 c 128,-1,83
 1099 744 1099 744 1091 733.5 c 128,-1,84
 1083 723 1083 723 1073 711.5 c 0,85,86
 1047 681.6 1047 681.6 1047 592 c 0,87,88
 1047 423 1047 423 1116.5 255.5 c 128,-1,89
 1186 88 1186 88 1280 9 c 1,90,-1
 1280 5 l 2,91,92
 1280 -50 1280 -50 1180.61363636 -50 c 128,-1,93
 1081.22727273 -50 1081.22727273 -50 981 55 c 1,0,1
657.557617188 698.0078125 m 1,94,95
 577.33045439 1025.51267449 577.33045439 1025.51267449 572 1054 c 1,96,97
 530.319104243 883.749752987 530.319104243 883.749752987 485.961914062 698.216796875 c 1,98,99
 537.081894462 697.799302073 537.081894462 697.799302073 595.70214844 697.795898438 c 2,100,-1
 657.557617188 698.0078125 l 1,94,95
EndSplineSet
EndChar

StartChar: B
Encoding: 56 66 35
Width: 1149
Flags: HW
LayerCount: 2
Fore
SplineSet
888 761 m 1,0,1
 936 756 936 756 974 716 c 0,2,3
 1044 642.315789474 1044 642.315789474 1044 569 c 0,4,5
 1044 516.209302326 1044 516.209302326 1109.5 437 c 0,6,7
 1131 411 1131 411 1131 406 c 128,-1,8
 1131 401 1131 401 1109.5 374 c 0,9,10
 1044 291.744186047 1044 291.744186047 1044 202.872093023 c 128,-1,11
 1044 114 1044 114 990.5 58 c 0,12,13
 887.321428571 -50 887.321428571 -50 664 -50 c 0,14,15
 560 -50 560 -50 479 -27 c 128,-1,16
 398 -4 398 -4 350 65 c 1,17,18
 343.538461538 54.2307692308 343.538461538 54.2307692308 320.769230769 29.6153846154 c 128,-1,19
 298 5 298 5 277.5 -10 c 0,20,21
 222.833333333 -50 222.833333333 -50 176.916666667 -50 c 0,22,23
 98.2307692308 -50 98.2307692308 -50 69 -12 c 2,24,-1
 59 1 l 1,25,26
 123 57 123 57 151 149 c 128,-1,27
 179 241 179 241 179 361 c 128,-1,28
 179 481 179 481 168 551 c 128,-1,29
 157 621 157 621 141 655 c 128,-1,30
 125 689 125 689 108.5 709 c 128,-1,31
 92 729 92 729 81 738.5 c 128,-1,32
 70 748 70 748 70 757.5 c 128,-1,33
 70 767 70 767 81 777 c 128,-1,34
 92 787 92 787 108.5 806.5 c 128,-1,35
 125 826 125 826 141 860 c 0,36,37
 179 940.75 179 940.75 179 1113.875 c 128,-1,38
 179 1287 179 1287 152.5 1362.5 c 128,-1,39
 126 1438 126 1438 58 1503 c 1,40,41
 58 1538.72093023 58 1538.72093023 113.5 1555.5 c 0,42,43
 135 1562 135 1562 175 1562 c 128,-1,44
 215 1562 215 1562 261.5 1536 c 128,-1,45
 308 1510 308 1510 329 1484.5 c 2,46,-1
 350 1459 l 1,47,48
 431.972727278 1562.09960938 431.972727278 1562.09960938 664 1562.09960938 c 0,49,50
 819.87896548 1562.09960938 819.87896548 1562.09960938 922.803178079 1507.67879136 c 0,51,52
 1034 1448.88386005 1034 1448.88386005 1034 1323 c 0,53,54
 1034 1245.24324324 1034 1245.24324324 1082.5 1191.5 c 128,-1,55
 1131 1137.75675676 1131 1137.75675676 1131 1132.37837838 c 128,-1,56
 1131 1127 1131 1127 1117.5 1115.5 c 128,-1,57
 1104 1104 1104 1104 1087.5 1088 c 0,58,59
 1044 1045.81818182 1044 1045.81818182 1044 958 c 128,-1,60
 1044 870.146666667 1044 870.146666667 974.5 802.5 c 0,61,62
 937 766 937 766 888 761 c 1,0,1
764 1137 m 2,63,-1
 765.155381944 1195.73778393 l 1,64,65
 765.155381944 1372 765.155381944 1372 638 1372 c 0,66,67
 558.111111111 1372 558.111111111 1372 533.555555556 1352.5 c 128,-1,68
 509 1333 509 1333 498.5 1320.5 c 128,-1,69
 488 1308 488 1308 484 1287.5 c 0,70,71
 478 1256.75 478 1256.75 478 1220 c 2,72,-1
 477 853 l 1,73,-1
 575 853 l 2,74,75
 743 853 743 853 761 1057 c 0,76,77
 764 1091 764 1091 764 1137 c 2,63,-1
766.026149584 337.255666194 m 1,78,-1
 765 400 l 1,79,80
 765 568.117647059 765 568.117647059 703.5 626 c 0,81,82
 642.9375 683 642.9375 683 516 683 c 1,83,-1
 477 682 l 1,84,85
 478 658 478 658 478 468.5 c 128,-1,86
 478 279 478 279 479.5 261.5 c 128,-1,87
 481 244 481 244 489 216.5 c 128,-1,88
 497 189 497 189 513 173.5 c 0,89,90
 553.774193548 134 553.774193548 134 638 134 c 0,91,92
 766.026149584 134 766.026149584 134 766.026149584 337.255666194 c 1,78,-1
EndSplineSet
EndChar

StartChar: C
Encoding: 57 67 36
Width: 1106
Flags: HW
LayerCount: 2
Fore
SplineSet
681 891 m 0,0,1
 588.27342556 891 588.27342556 891 588.27342556 930.601496619 c 0,2,3
 588.27342556 935.356800155 588.27342556 935.356800155 605.418202816 962.615623187 c 128,-1,4
 622.562980072 989.874446219 622.562980072 989.874446219 643.13671278 1024.7743162 c 0,5,6
 698 1117.84063617 698 1117.84063617 698 1226 c 0,7,8
 698 1351.88372093 698 1351.88372093 650.5 1379.5 c 0,9,10
 629 1392 629 1392 594 1392 c 128,-1,11
 559 1392 559 1392 532 1380 c 128,-1,12
 505 1368 505 1368 490.5 1349.5 c 128,-1,13
 476 1331 476 1331 467.5 1300.5 c 0,14,15
 455 1255.64705882 455 1255.64705882 455 1168.32352941 c 128,-1,16
 455 1081 455 1081 463 1010 c 128,-1,17
 471 939 471 939 483.5 902 c 128,-1,18
 496 865 496 865 510 839 c 128,-1,19
 524 813 524 813 536.5 803.5 c 0,20,21
 565 781.84 565 781.84 565 769.42 c 128,-1,22
 565 757 565 757 554 747.5 c 128,-1,23
 543 738 543 738 526.5 718 c 128,-1,24
 510 698 510 698 494 664 c 0,25,26
 456 583.25 456 583.25 456 395 c 2,27,-1
 456 334.5 l 2,28,29
 456 199.571428571 456 199.571428571 481 158.5 c 0,30,31
 504.470588235 119.941176471 504.470588235 119.941176471 520.735294118 112.970588235 c 0,32,33
 600.720257235 78.691318328 600.720257235 78.691318328 652.5 110 c 0,34,35
 699 138.11627907 699 138.11627907 699 273 c 0,36,37
 699 531 699 531 595 545 c 1,38,39
 595 585.545454545 595 585.545454545 649 601.5 c 0,40,41
 671 608 671 608 702 608 c 0,42,43
 765 608 765 608 819 550 c 1,44,45
 881.585987261 605.222929936 881.585987261 605.222929936 924.292993631 616.611464968 c 128,-1,46
 967 628 967 628 993 628 c 0,47,48
 1040.53333333 628 1040.53333333 628 1051.5 604.5 c 2,49,-1
 1055 597 l 1,50,51
 1014 542 1014 542 1002.5 466 c 128,-1,52
 991 390 991 390 991 287 c 128,-1,53
 991 184 991 184 963 117.5 c 128,-1,54
 935 51 935 51 893 12.5 c 128,-1,55
 851 -26 851 -26 794 -51 c 0,56,57
 698.24 -93 698.24 -93 585 -93 c 0,58,59
 380 -93 380 -93 264 26.5 c 128,-1,60
 148 146 148 146 148 396 c 0,61,62
 148 628.818181818 148 628.818181818 77.5 710 c 0,63,64
 61 729 61 729 50 739 c 128,-1,65
 39 749 39 749 39 757.5 c 128,-1,66
 39 766 39 766 50 774.5 c 128,-1,67
 61 783 61 783 77.5 800 c 128,-1,68
 94 817 94 817 110 846.5 c 0,69,70
 148 916.5625 148 916.5625 148 1096 c 0,71,72
 148 1586 148 1586 602 1586 c 0,73,74
 785.810810811 1586 785.810810811 1586 895 1485 c 0,75,76
 987 1399.9 987 1399.9 987 1235 c 0,77,78
 987 1003 987 1003 1065 907 c 1,79,80
 1061.94117647 894.764705882 1061.94117647 894.764705882 1045.47058824 884.882352941 c 128,-1,81
 1029 875 1029 875 1002 875 c 128,-1,82
 975 875 975 875 945 883 c 128,-1,83
 915 891 915 891 895 902.5 c 128,-1,84
 875 914 875 914 859 925.5 c 128,-1,85
 843 937 843 937 835.5 944 c 128,-1,86
 828 951 828 951 824 947 c 128,-1,87
 820 943 820 943 806 933.5 c 128,-1,88
 792 924 792 924 753.5 907.5 c 128,-1,89
 715 891 715 891 681 891 c 0,0,1
EndSplineSet
EndChar

StartChar: D
Encoding: 58 68 37
Width: 1211
Flags: HW
LayerCount: 2
Fore
SplineSet
752 1218.09960938 m 0,0,1
 752 1372.09960938 752 1372.09960938 630 1372.09960938 c 0,2,3
 521.83059131 1372.09960938 521.83059131 1372.09960938 499.695274639 1300.92833665 c 0,4,5
 490 1269.75530011 490 1269.75530011 490 1198.32816746 c 128,-1,6
 490 1126.90103481 490 1126.90103481 494.191448008 1053.5741532 c 128,-1,7
 498.382896016 980.247271599 498.382896016 980.247271599 505.085519922 936.685929833 c 128,-1,8
 511.788143829 893.124588066 511.788143829 893.124588066 519.894071914 862.028668749 c 128,-1,9
 528 830.932749431 528 830.932749431 536.105928086 815.721191744 c 128,-1,10
 544.211856171 800.509634057 544.211856171 800.509634057 550.914480078 790.788888808 c 0,11,12
 566 768.910517269 566 768.910517269 566 757.955258635 c 128,-1,13
 566 747 566 747 554 729 c 128,-1,14
 542 711 542 711 528 682.5 c 0,15,16
 490 605.142857143 490 605.142857143 490 362 c 4,17,18
 490 210.555555556 490 210.555555556 519.5 174.5 c 0,19,20
 552.636363636 134 552.636363636 134 621 134 c 0,21,22
 687.615437529 134 687.615437529 134 707.13941286 155.09073829 c 128,-1,23
 726.66338819 176.181476581 726.66338819 176.181476581 734.87948125 190.815437522 c 128,-1,24
 743.095574309 205.449398463 743.095574309 205.449398463 746.771086422 236.384581263 c 0,25,26
 752.001704939 280.408416591 752.001704939 280.408416591 752.001704939 357.780666413 c 2,27,-1
 752 371 l 2,28,29
 752 608.857142857 752 608.857142857 714 683.5 c 0,30,31
 700 711 700 711 688 729.5 c 128,-1,32
 676 748 676 748 676 758.281353998 c 128,-1,33
 676 768.562707995 676 768.562707995 683.828 779.339906109 c 128,-1,34
 691.656 790.117104223 691.656 790.117104223 702.828 811.493086992 c 128,-1,35
 714 832.869069761 714 832.869069761 725.172 872.383962522 c 0,36,37
 752 967.273466907 752 967.273466907 752 1218.09960938 c 0,0,1
59 10 m 1,38,39
 180 121.833333333 180 121.833333333 180 365 c 0,40,41
 180 574.25 180 574.25 142 655 c 0,42,43
 116.882882883 708.373873874 116.882882883 708.373873874 93.9414414414 728.186936937 c 128,-1,44
 71 748 71 748 71 757.5 c 128,-1,45
 71 767 71 767 82 777.5 c 128,-1,46
 93 788 93 788 109.5 808 c 128,-1,47
 126 828 126 828 142 863.5 c 0,48,49
 180 947.8125 180 947.8125 180 1121.40625 c 128,-1,50
 180 1295 180 1295 153.5 1367 c 128,-1,51
 127 1439 127 1439 59 1503 c 1,52,53
 59 1538.72093023 59 1538.72093023 114.5 1555.5 c 0,54,55
 136 1562 136 1562 174.5 1562 c 128,-1,56
 213 1562 213 1562 257.5 1537 c 128,-1,57
 302 1512 302 1512 322 1487 c 2,58,-1
 342 1462 l 1,59,60
 430.407407408 1562.09960938 430.407407408 1562.09960938 678 1562.09960938 c 0,61,62
 865.577288169 1562.09960938 865.577288169 1562.09960938 960.886533587 1473.60352679 c 0,63,64
 1082 1361.14783292 1082 1361.14783292 1082 1126 c 0,65,66
 1082 857.833333333 1082 857.833333333 1160 775.5 c 0,67,68
 1169 766 1169 766 1169 757 c 128,-1,69
 1169 748 1169 748 1160 738.5 c 128,-1,70
 1151 729 1151 729 1138.5 709 c 128,-1,71
 1126 689 1126 689 1113 655 c 0,72,73
 1082 573.923076923 1082 573.923076923 1082 368.961538462 c 128,-1,74
 1082 164 1082 164 976.5 57 c 128,-1,75
 871 -50 871 -50 686 -50 c 0,76,77
 440 -50 440 -50 342 65 c 1,78,79
 299 -6.66666666667 299 -6.66666666667 225 -37.5 c 0,80,81
 195 -50 195 -50 157 -50 c 128,-1,82
 119 -50 119 -50 93 -35 c 128,-1,83
 67 -20 67 -20 63 -5 c 2,84,-1
 59 10 l 1,38,39
EndSplineSet
EndChar

StartChar: E
Encoding: 59 69 38
Width: 1082
Flags: HW
LayerCount: 2
Fore
SplineSet
844 855 m 0,0,1
 844 801 844 801 774 759 c 1,2,3
 793.021276596 752.659574468 793.021276596 752.659574468 811.010638298 731.829787234 c 0,4,5
 844 693.631578947 844 693.631578947 844 666.815789474 c 0,6,7
 844 618.307692308 844 618.307692308 823.5 612 c 2,8,-1
 817 610 l 1,9,10
 726.65625 669 726.65625 669 532 669 c 1,11,-1
 488 230 l 1,12,13
 488 163.615384615 488 163.615384615 528.5 147 c 0,14,15
 560.1875 134 560.1875 134 606.59375 134 c 128,-1,16
 653 134 653 134 679.5 170.5 c 128,-1,17
 706 207 706 207 706 261 c 0,18,19
 706 350 706 350 635 419 c 1,20,21
 645 459 645 459 693.5 459 c 0,22,23
 779 459 779 459 822.5 415.5 c 2,24,-1
 837 401 l 1,25,26
 895 459 895 459 969 459 c 0,27,28
 998 459 998 459 1015.5 449 c 128,-1,29
 1033 439 1033 439 1039 419 c 1,30,31
 958 355 958 355 958 212.72 c 128,-1,32
 958 70.44 958 70.44 1049 -6 c 1,33,34
 1049 -31.875 1049 -31.875 1007 -45 c 0,35,36
 991 -50 991 -50 970 -50 c 0,37,38
 871.25 -50 871.25 -50 800 45 c 1,39,40
 761 -2 761 -2 694 -26 c 128,-1,41
 627 -50 627 -50 581.5 -50 c 128,-1,42
 536 -50 536 -50 509.5 -43.5 c 128,-1,43
 483 -37 483 -37 462.5 -27 c 128,-1,44
 442 -17 442 -17 424 -4.5 c 128,-1,45
 406 8 406 8 393 20 c 0,46,47
 367 44 367 44 352 64 c 1,48,49
 310.6625 -4.89583333333 310.6625 -4.89583333333 228.5 -37.5 c 0,50,51
 197 -50 197 -50 158 -50 c 128,-1,52
 119 -50 119 -50 93 -35 c 128,-1,53
 67 -20 67 -20 63 -5 c 2,54,-1
 59 10 l 1,55,56
 106.511293634 38.9199178645 106.511293634 38.9199178645 123.755646817 63.4599589322 c 128,-1,57
 141 88 141 88 149.5 101.5 c 128,-1,58
 158 115 158 115 164 143 c 128,-1,59
 170 171 170 171 173 188.5 c 128,-1,60
 176 206 176 206 177.5 247.5 c 128,-1,61
 179 289 179 289 179 315 c 2,62,-1
 179 399 l 2,63,64
 179 654.863636364 179 654.863636364 81 739.5 c 0,65,66
 70 749 70 749 70 758 c 128,-1,67
 70 767 70 767 81 777 c 128,-1,68
 92 787 92 787 108.5 806 c 128,-1,69
 125 825 125 825 141 859 c 0,70,71
 179 939.75 179 939.75 179 1112.375 c 128,-1,72
 179 1285 179 1285 152.5 1361.5 c 128,-1,73
 126 1438 126 1438 58 1503 c 1,74,75
 58 1538.72093023 58 1538.72093023 113.5 1555.5 c 0,76,77
 135 1562 135 1562 175 1562 c 128,-1,78
 215 1562 215 1562 261.5 1533 c 128,-1,79
 308 1504 308 1504 329 1475.5 c 2,80,-1
 350 1447 l 1,81,82
 444.090909091 1562 444.090909091 1562 562 1562 c 0,83,84
 625 1562 625 1562 692.5 1537.5 c 128,-1,85
 760 1513 760 1513 799 1466 c 1,86,87
 871 1562 871 1562 969 1562 c 0,88,89
 1002 1562 1002 1562 1022 1550.5 c 128,-1,90
 1042 1539 1042 1539 1048 1516 c 1,91,92
 998 1478 998 1478 977.5 1430 c 128,-1,93
 957 1382 957 1382 957 1312 c 0,94,95
 957 1188 957 1188 1038 1127 c 1,96,97
 1034.07627119 1111.30508475 1034.07627119 1111.30508475 1015.53813559 1099.65254237 c 128,-1,98
 997 1088 997 1088 964.5 1088 c 128,-1,99
 932 1088 932 1088 899 1102 c 128,-1,100
 866 1116 866 1116 851 1130.5 c 2,101,-1
 836 1145 l 1,102,103
 779 1088 779 1088 705 1088 c 0,104,105
 676 1088 676 1088 658 1098 c 128,-1,106
 640 1108 640 1108 634 1127 c 1,107,108
 705 1191 705 1191 705 1277 c 0,109,110
 705 1372 705 1372 596.765933241 1372 c 128,-1,111
 488.531866482 1372 488.531866482 1372 488.531866482 1303.43381234 c 0,112,113
 488.531866482 1298.86641123 488.531866482 1298.86641123 489 1294 c 2,114,-1
 532 847 l 1,115,116
 642 847 642 847 705.5 859.5 c 128,-1,117
 769 872 769 872 817 905 c 1,118,119
 826.6 905 826.6 905 835.3 890.5 c 128,-1,120
 844 876 844 876 844 855 c 0,0,1
EndSplineSet
EndChar

StartChar: F
Encoding: 60 70 39
Width: 975
Flags: HW
LayerCount: 2
Fore
SplineSet
751 741 m 1,0,1
 822 693.666666667 822 693.666666667 822 639 c 0,2,3
 822 596.307692308 822 596.307692308 801.5 590 c 2,4,-1
 795 588 l 1,5,6
 701.454545455 651 701.454545455 651 521 651 c 1,7,-1
 488 385 l 1,8,-1
 488 301.5 l 2,9,10
 488 138.352941176 488 138.352941176 517.5 91.5 c 0,11,12
 544.0625 49.3125 544.0625 49.3125 565.03125 32.15625 c 128,-1,13
 586 15 586 15 609 1 c 1,14,15
 593.714285714 -29.5714285714 593.714285714 -29.5714285714 559.357142857 -39.7857142857 c 128,-1,16
 525 -50 525 -50 492.5 -50 c 128,-1,17
 460 -50 460 -50 419 -21.5 c 128,-1,18
 378 7 378 7 358.5 35.5 c 2,19,-1
 339 64 l 1,20,21
 297.395454545 -5.34090909091 297.395454545 -5.34090909091 221.5 -37.5 c 0,22,23
 192 -50 192 -50 166.5 -50 c 128,-1,24
 141 -50 141 -50 123 -44.5 c 128,-1,25
 105 -39 105 -39 93.5 -31.5 c 0,26,27
 68.1689189189 -14.9797297297 68.1689189189 -14.9797297297 58 1 c 1,28,29
 106.739219713 30.6673511294 106.739219713 30.6673511294 123.369609856 54.3336755647 c 128,-1,30
 140 78 140 78 148.5 91 c 128,-1,31
 157 104 157 104 163 131.5 c 128,-1,32
 169 159 169 159 172 176.5 c 128,-1,33
 175 194 175 194 176.5 235 c 128,-1,34
 178 276 178 276 178 301.5 c 2,35,-1
 178 385 l 2,36,37
 178 653.863636364 178 653.863636364 80 738.5 c 0,38,39
 69 748 69 748 69 757.5 c 128,-1,40
 69 767 69 767 80 777 c 128,-1,41
 91 787 91 787 107.5 806 c 128,-1,42
 124 825 124 825 140 859 c 0,43,44
 178 939.75 178 939.75 178 1112.375 c 128,-1,45
 178 1285 178 1285 151.5 1361.5 c 128,-1,46
 125 1438 125 1438 57 1503 c 1,47,48
 57 1538.72093023 57 1538.72093023 112.5 1555.5 c 0,49,50
 134 1562 134 1562 165 1562 c 128,-1,51
 196 1562 196 1562 229.5 1551 c 128,-1,52
 263 1540 263 1540 285.5 1525 c 0,53,54
 332.84375 1493.4375 332.84375 1493.4375 361 1457 c 1,55,56
 439.75 1562 439.75 1562 539 1562 c 0,57,58
 594 1562 594 1562 651.5 1537.5 c 128,-1,59
 709 1513 709 1513 744 1466 c 1,60,61
 748.517241379 1475.03448276 748.517241379 1475.03448276 767.75862069 1495.51724138 c 128,-1,62
 787 1516 787 1516 804.5 1528.5 c 0,63,64
 851.4 1562 851.4 1562 887.2 1562 c 128,-1,65
 923 1562 923 1562 939 1557.5 c 128,-1,66
 955 1553 955 1553 963 1546.5 c 0,67,68
 978.457627119 1533.94067797 978.457627119 1533.94067797 982 1518 c 1,69,70
 931 1480 931 1480 910.5 1431 c 128,-1,71
 890 1382 890 1382 890 1312 c 0,72,73
 890 1189 890 1189 972 1127 c 1,74,75
 968.06557377 1111.26229508 968.06557377 1111.26229508 949.032786885 1099.63114754 c 128,-1,76
 930 1088 930 1088 901 1088 c 0,77,78
 835.034482759 1088 835.034482759 1088 780 1145 c 1,79,80
 761.490825688 1122.78899083 761.490825688 1122.78899083 727.245412844 1105.39449541 c 128,-1,81
 693 1088 693 1088 662 1088 c 128,-1,82
 631 1088 631 1088 613.5 1098 c 128,-1,83
 596 1108 596 1108 590 1127 c 1,84,85
 660 1191 660 1191 660 1266 c 0,86,87
 660 1308 660 1308 640 1339.5 c 128,-1,88
 620 1371 620 1371 575 1371 c 0,89,90
 487.66160194 1371 487.66160194 1371 487.66160194 1296.06788272 c 0,91,92
 487.66160194 1291.65553696 487.66160194 1291.65553696 488 1287 c 2,93,-1
 521 833 l 1,94,95
 706.272727273 833 706.272727273 833 795 894 c 1,96,97
 804.6 894 804.6 894 813.3 879.5 c 128,-1,98
 822 865 822 865 822 840.5 c 128,-1,99
 822 816 822 816 804 790 c 128,-1,100
 786 764 786 764 768.5 752.5 c 2,101,-1
 751 741 l 1,0,1
EndSplineSet
EndChar

StartChar: G
Encoding: 61 71 40
Width: 1119
Flags: HW
LayerCount: 2
Fore
SplineSet
147 1126 m 0,0,1
 147 1586 147 1586 604 1586 c 0,2,3
 790.945945946 1586 790.945945946 1586 901.5 1485 c 0,4,5
 996 1398.66666667 996 1398.66666667 996 1235 c 0,6,7
 996 1003 996 1003 1074 907 c 1,8,9
 1070.94117647 894.764705882 1070.94117647 894.764705882 1054.47058824 884.882352941 c 128,-1,10
 1038 875 1038 875 1018 875 c 128,-1,11
 998 875 998 875 980 878.5 c 128,-1,12
 962 882 962 882 947.5 887.5 c 128,-1,13
 933 893 933 893 919.5 900.5 c 128,-1,14
 906 908 906 908 895 916 c 128,-1,15
 884 924 884 924 874.5 932 c 128,-1,16
 865 940 865 940 858 947 c 128,-1,17
 851 954 851 954 846.5 959.5 c 128,-1,18
 842 965 842 965 839.5 968 c 128,-1,19
 837 971 837 971 834 966 c 128,-1,20
 831 961 831 961 820.5 948 c 128,-1,21
 810 935 810 935 777 913 c 128,-1,22
 744 891 744 891 716.018939846 891 c 128,-1,23
 688.037879692 891 688.037879692 891 670.193628714 894.144393256 c 128,-1,24
 652.349377736 897.288786512 652.349377736 897.288786512 641.192044952 901.975015853 c 128,-1,25
 630.034712168 906.661245194 630.034712168 906.661245194 621.727811106 913.231612514 c 128,-1,26
 613.420910044 919.801979835 613.420910044 919.801979835 609.430057084 925.470913673 c 128,-1,27
 605.439204123 931.13984751 605.439204123 931.13984751 603.104907443 937.511531671 c 0,28,29
 599.99237342 946.007488459 599.99237342 946.007488459 599.99237342 953.261064665 c 128,-1,30
 599.99237342 960.514640872 599.99237342 960.514640872 626.994280065 1008.19841942 c 0,31,32
 708 1151.24975507 708 1151.24975507 708 1228 c 0,33,34
 708 1351.23913043 708 1351.23913043 656 1379.5 c 0,35,36
 633 1392 633 1392 592.5 1392 c 128,-1,37
 552 1392 552 1392 521.5 1373.5 c 128,-1,38
 491 1355 491 1355 477 1319 c 0,39,40
 454 1259.85714286 454 1259.85714286 454 1158.42857143 c 128,-1,41
 454 1057 454 1057 466 985.5 c 128,-1,42
 478 914 478 914 495 878 c 128,-1,43
 512 842 512 842 528.5 820.5 c 128,-1,44
 545 799 545 799 557 786.5 c 128,-1,45
 569 774 569 774 569 765.5 c 128,-1,46
 569 757 569 757 558 747.5 c 128,-1,47
 547 738 547 738 530.5 718 c 128,-1,48
 514 698 514 698 498 664 c 0,49,50
 460 583.25 460 583.25 460 395 c 2,51,-1
 460 340 l 2,52,53
 460 210.555555556 460 210.555555556 469.5 186.277777778 c 128,-1,54
 479 162 479 162 485 147 c 128,-1,55
 491 132 491 132 499 124.5 c 128,-1,56
 507 117 507 117 517.5 109.5 c 0,57,58
 536.4 96 536.4 96 570.2 96 c 128,-1,59
 604 96 604 96 626.5 113 c 128,-1,60
 649 130 649 130 660 152.5 c 128,-1,61
 671 175 671 175 677.5 211 c 0,62,63
 686 258.076923077 686 258.076923077 686 343.038461538 c 128,-1,64
 686 428 686 428 668 478 c 128,-1,65
 650 528 650 528 595 573 c 1,66,67
 595 598.875 595 598.875 637 612 c 0,68,69
 653 617 653 617 684 617 c 128,-1,70
 715 617 715 617 752.5 601 c 128,-1,71
 790 585 790 585 807.5 569 c 2,72,-1
 825 553 l 1,73,74
 854.248407643 578.592356688 854.248407643 578.592356688 900.124203822 597.796178344 c 128,-1,75
 946 617 946 617 985 617 c 128,-1,76
 1024 617 1024 617 1043.5 606 c 128,-1,77
 1063 595 1063 595 1069 573 c 1,78,79
 1020 532 1020 532 1004 485 c 128,-1,80
 988 438 988 438 988 328 c 128,-1,81
 988 218 988 218 1015.5 152.5 c 128,-1,82
 1043 87 1043 87 1115 26 c 1,83,84
 1115 -8 1115 -8 1077 -29 c 128,-1,85
 1039 -50 1039 -50 993.5 -50 c 128,-1,86
 948 -50 948 -50 904 -22 c 128,-1,87
 860 6 860 6 832 56 c 1,88,89
 724 -94 724 -94 536.5 -94 c 128,-1,90
 349 -94 349 -94 248 22 c 128,-1,91
 147 138 147 138 147 386 c 0,92,93
 147 654.727272727 147 654.727272727 50 738.5 c 0,94,95
 39 748 39 748 39 757 c 128,-1,96
 39 766 39 766 50 775.5 c 128,-1,97
 61 785 61 785 77 803 c 128,-1,98
 93 821 93 821 109 853 c 0,99,100
 147 929 147 929 147 1126 c 0,0,1
EndSplineSet
EndChar

StartChar: H
Encoding: 62 72 41
Width: 1322
Flags: HW
LayerCount: 2
Fore
SplineSet
806 1562 m 0,0,1
 909.409090909 1562 909.409090909 1562 981 1457 c 1,2,3
 986.172413793 1467.34482759 986.172413793 1467.34482759 1006.0862069 1489.67241379 c 128,-1,4
 1026 1512 1026 1512 1044.5 1525.5 c 0,5,6
 1094.51851852 1562 1094.51851852 1562 1145.75925926 1562 c 128,-1,7
 1197 1562 1197 1562 1223 1547 c 128,-1,8
 1249 1532 1249 1532 1253 1517.5 c 2,9,-1
 1257 1503 l 1,10,11
 1189 1438 1189 1438 1162.5 1361.5 c 128,-1,12
 1136 1285 1136 1285 1136 1163.5 c 128,-1,13
 1136 1042 1136 1042 1147 967.5 c 128,-1,14
 1158 893 1158 893 1174 859 c 128,-1,15
 1190 825 1190 825 1206.5 806 c 128,-1,16
 1223 787 1223 787 1234 777 c 128,-1,17
 1245 767 1245 767 1245 757.5 c 128,-1,18
 1245 748 1245 748 1234 737 c 128,-1,19
 1223 726 1223 726 1206.5 704.5 c 128,-1,20
 1190 683 1190 683 1174 647.5 c 0,21,22
 1136 563.1875 1136 563.1875 1136 398.59375 c 128,-1,23
 1136 234 1136 234 1162.5 154.5 c 128,-1,24
 1189 75 1189 75 1257 10 c 1,25,26
 1257 -26.7209302326 1257 -26.7209302326 1201.5 -43.5 c 0,27,28
 1180 -50 1180 -50 1141.5 -50 c 128,-1,29
 1103 -50 1103 -50 1060.5 -21 c 128,-1,30
 1018 8 1018 8 999.5 36.5 c 2,31,-1
 981 65 l 1,32,33
 937.568181818 -7.38636363636 937.568181818 -7.38636363636 866.5 -37.5 c 0,34,35
 837 -50 837 -50 799.5 -50 c 128,-1,36
 762 -50 762 -50 735.5 -35 c 128,-1,37
 709 -20 709 -20 704.5 -5 c 2,38,-1
 700 10 l 1,39,40
 768 75 768 75 794.5 154.5 c 128,-1,41
 821 234 821 234 821 325.5 c 128,-1,42
 821 417 821 417 820.5 440.5 c 128,-1,43
 820 464 820 464 818.5 497 c 128,-1,44
 817 530 817 530 814 547 c 128,-1,45
 811 564 811 564 805.5 587 c 128,-1,46
 800 610 800 610 791.5 621.5 c 128,-1,47
 783 633 783 633 770.5 646 c 128,-1,48
 758 659 758 659 741.5 665 c 0,49,50
 703 679 703 679 664 679 c 128,-1,51
 625 679 625 679 602 675 c 128,-1,52
 579 671 579 671 562.5 660 c 128,-1,53
 546 649 546 649 534 638 c 128,-1,54
 522 627 522 627 514.5 603.5 c 128,-1,55
 507 580 507 580 502.5 562 c 128,-1,56
 498 544 498 544 496 508.5 c 0,57,58
 493 455.25 493 455.25 493 344.125 c 128,-1,59
 493 233 493 233 519.5 154 c 128,-1,60
 546 75 546 75 614 10 c 1,61,62
 614 -26.1666666667 614 -26.1666666667 558 -43.5 c 0,63,64
 537 -50 537 -50 498.5 -50 c 128,-1,65
 460 -50 460 -50 416.5 -21 c 128,-1,66
 373 8 373 8 353.5 36.5 c 2,67,-1
 334 65 l 1,68,69
 330 55 330 55 310 30 c 128,-1,70
 290 5 290 5 271.5 -10 c 0,71,72
 222.166666667 -50 222.166666667 -50 171.583333333 -50 c 128,-1,73
 121 -50 121 -50 94.5 -35 c 128,-1,74
 68 -20 68 -20 63.5 -5 c 2,75,-1
 59 10 l 1,76,77
 127 75 127 75 153.5 154.5 c 128,-1,78
 180 234 180 234 180 352 c 128,-1,79
 180 470 180 470 169 541 c 128,-1,80
 158 612 158 612 142 647.5 c 128,-1,81
 126 683 126 683 109.5 704.5 c 128,-1,82
 93 726 93 726 82 737 c 128,-1,83
 71 748 71 748 71 757.5 c 128,-1,84
 71 767 71 767 82 777 c 128,-1,85
 93 787 93 787 109.5 806 c 128,-1,86
 126 825 126 825 142 859 c 0,87,88
 180 939.75 180 939.75 180 1112.375 c 128,-1,89
 180 1285 180 1285 153.5 1361.5 c 128,-1,90
 127 1438 127 1438 59 1503 c 1,91,92
 59 1538.16666667 59 1538.16666667 115 1555.5 c 0,93,94
 136 1562 136 1562 165 1562 c 0,95,96
 267.181818182 1562 267.181818182 1562 334 1457 c 1,97,98
 412.75 1562 412.75 1562 509 1562 c 0,99,100
 554 1562 554 1562 580 1547 c 128,-1,101
 606 1532 606 1532 610 1517.5 c 2,102,-1
 614 1503 l 1,103,104
 546 1438 546 1438 519.5 1361.5 c 128,-1,105
 493 1285 493 1285 493 1148 c 2,106,-1
 492.988474515 1116.74532649 l 2,107,108
 492.988474515 947.965698313 492.988474515 947.965698313 514.613433754 910.953439896 c 0,109,110
 533.999048729 877.773937309 533.999048729 877.773937309 547.838778549 870.496933723 c 128,-1,111
 561.678508369 863.219930137 561.678508369 863.219930137 576.963545171 857.276866053 c 0,112,113
 603.394738508 847 603.394738508 847 646.285555701 847 c 128,-1,114
 689.176372893 847 689.176372893 847 714.873352727 852.74078139 c 128,-1,115
 740.570332561 858.481562781 740.570332561 858.481562781 758.748684476 866.583224593 c 128,-1,116
 776.927036391 874.684886405 776.927036391 874.684886405 788.552535862 894.566171675 c 128,-1,117
 800.178035332 914.447456946 800.178035332 914.447456946 806.848035022 931.236712788 c 128,-1,118
 813.518034712 948.025968631 813.518034712 948.025968631 816.58595007 983.399806794 c 0,119,120
 821.004952862 1034.35202396 821.004952862 1034.35202396 821.004952862 1123.883766 c 2,121,-1
 821 1148 l 2,122,123
 821 1285 821 1285 794.5 1361.5 c 128,-1,124
 768 1438 768 1438 700 1503 c 1,125,126
 700 1537.85714286 700 1537.85714286 757 1555.5 c 0,127,128
 778 1562 778 1562 806 1562 c 0,0,1
EndSplineSet
EndChar

StartChar: I
Encoding: 63 73 42
Width: 665
Flags: HW
LayerCount: 2
Fore
SplineSet
164 1562 m 0,0,1
 262.181818182 1562 262.181818182 1562 329 1457 c 1,2,3
 332 1461 332 1461 336.5 1468 c 128,-1,4
 341 1475 341 1475 357.5 1493.5 c 128,-1,5
 374 1512 374 1512 391.5 1525.5 c 0,6,7
 438.814814815 1562 438.814814815 1562 488.907407407 1562 c 128,-1,8
 539 1562 539 1562 565.5 1547 c 128,-1,9
 592 1532 592 1532 596 1517.5 c 2,10,-1
 600 1503 l 1,11,12
 531 1436 531 1436 505 1362 c 128,-1,13
 479 1288 479 1288 479 1173.5 c 128,-1,14
 479 1059 479 1059 487 991.5 c 128,-1,15
 495 924 495 924 507 888 c 128,-1,16
 519 852 519 852 533.5 827.5 c 128,-1,17
 548 803 548 803 560 793.5 c 0,18,19
 588 771.333333333 588 771.333333333 588 760.166666667 c 128,-1,20
 588 749 588 749 577 739 c 128,-1,21
 566 729 566 729 550 709 c 128,-1,22
 534 689 534 689 517.5 655.5 c 0,23,24
 479 577.333333333 479 577.333333333 479 409.166666667 c 128,-1,25
 479 241 479 241 505 160.5 c 128,-1,26
 531 80 531 80 600 10 c 1,27,28
 600 -26.1666666667 600 -26.1666666667 544 -43.5 c 0,29,30
 523 -50 523 -50 485.5 -50 c 128,-1,31
 448 -50 448 -50 407 -21 c 128,-1,32
 366 8 366 8 347.5 36.5 c 2,33,-1
 329 65 l 1,34,35
 325 55 325 55 305 30 c 128,-1,36
 285 5 285 5 267 -10 c 0,37,38
 219 -50 219 -50 177.5 -50 c 128,-1,39
 136 -50 136 -50 115 -44 c 128,-1,40
 94 -38 94 -38 84 -29 c 0,41,42
 62.2352941176 -9.41176470588 62.2352941176 -9.41176470588 59 10 c 1,43,44
 128 80 128 80 154 160.5 c 128,-1,45
 180 241 180 241 180 362.5 c 128,-1,46
 180 484 180 484 169 553 c 128,-1,47
 158 622 158 622 142 655.5 c 128,-1,48
 126 689 126 689 109.5 709 c 128,-1,49
 93 729 93 729 82 739 c 128,-1,50
 71 749 71 749 71 758 c 128,-1,51
 71 767 71 767 82 777 c 128,-1,52
 93 787 93 787 109.5 806 c 128,-1,53
 126 825 126 825 142 859 c 0,54,55
 180 939.75 180 939.75 180 1113.875 c 128,-1,56
 180 1288 180 1288 154 1362 c 128,-1,57
 128 1436 128 1436 59 1503 c 1,58,59
 59 1538.72093023 59 1538.72093023 114.5 1555.5 c 0,60,61
 136 1562 136 1562 164 1562 c 0,0,1
EndSplineSet
EndChar

StartChar: J
Encoding: 64 74 43
Width: 794
Flags: HW
LayerCount: 2
Fore
SplineSet
311 1562 m 0,0,1
 407.181818182 1562 407.181818182 1562 474 1457 c 1,2,3
 478.888888889 1466.77777778 478.888888889 1466.77777778 498.444444444 1489.38888889 c 128,-1,4
 518 1512 518 1512 536 1525.5 c 0,5,6
 584.666666667 1562 584.666666667 1562 626.833333333 1562 c 128,-1,7
 669 1562 669 1562 690.5 1556 c 128,-1,8
 712 1550 712 1550 722 1541 c 0,9,10
 743.960784314 1521.23529412 743.960784314 1521.23529412 747 1503 c 1,11,12
 679 1443 679 1443 652.5 1362 c 128,-1,13
 626 1281 626 1281 626 1161.5 c 128,-1,14
 626 1042 626 1042 637 967.5 c 128,-1,15
 648 893 648 893 664 859 c 128,-1,16
 680 825 680 825 695.5 806 c 128,-1,17
 711 787 711 787 722 777 c 128,-1,18
 733 767 733 767 733 757.5 c 128,-1,19
 733 748 733 748 722 738.5 c 128,-1,20
 711 729 711 729 695.5 709 c 128,-1,21
 680 689 680 689 664 655 c 0,22,23
 626 574.25 626 574.25 626 386 c 0,24,25
 626 102 626 102 537.5 -22.5 c 128,-1,26
 449 -147 449 -147 247 -147 c 0,27,28
 159 -147 159 -147 61 -207 c 1,29,30
 21 -197 21 -197 21 -136.568965517 c 128,-1,31
 21 -76.1379310345 21 -76.1379310345 78 -27 c 1,32,33
 55.9514563107 -8.62621359223 55.9514563107 -8.62621359223 38.4757281553 24.6868932039 c 128,-1,34
 21 58 21 58 21 83.5 c 128,-1,35
 21 109 21 109 25 123.5 c 128,-1,36
 29 138 29 138 35 145 c 0,37,38
 46.4545454545 158.363636364 46.4545454545 158.363636364 61 162 c 1,39,40
 116.583333333 93 116.583333333 93 216 93 c 0,41,42
 257.333333333 93 257.333333333 93 277.166666667 110.5 c 128,-1,43
 297 128 297 128 303 143 c 128,-1,44
 309 158 309 158 313 169.5 c 128,-1,45
 317 181 317 181 319.5 203 c 128,-1,46
 322 225 322 225 323.5 240.5 c 128,-1,47
 325 256 325 256 326 285 c 128,-1,48
 327 314 327 314 327 333 c 2,49,-1
 327 387 l 2,50,51
 327 658.727272727 327 658.727272727 230 742.5 c 0,52,53
 219 752 219 752 219 761 c 128,-1,54
 219 770 219 770 230 779.5 c 128,-1,55
 241 789 241 789 257 807.5 c 128,-1,56
 273 826 273 826 289 859.5 c 0,57,58
 327 939.0625 327 939.0625 327 1109.53125 c 128,-1,59
 327 1280 327 1280 300 1361 c 128,-1,60
 273 1442 273 1442 206 1503 c 1,61,62
 206 1538.16666667 206 1538.16666667 262 1555.5 c 0,63,64
 283 1562 283 1562 311 1562 c 0,0,1
EndSplineSet
EndChar

StartChar: K
Encoding: 65 75 44
Width: 1359
Flags: HW
LayerCount: 2
Fore
SplineSet
1061 1456 m 1,0,1
 1167 1562 1167 1562 1246 1562 c 0,2,3
 1328.71428571 1562 1328.71428571 1562 1348.35714286 1545.5 c 0,4,5
 1378 1520.6 1378 1520.6 1378 1505 c 1,6,7
 1257 1450 1257 1450 1193.5 1356 c 128,-1,8
 1130 1262 1130 1262 1130 1162 c 128,-1,9
 1130 1062 1130 1062 1117.5 997 c 128,-1,10
 1105 932 1105 932 1085 895 c 128,-1,11
 1065 858 1065 858 1041.5 832 c 128,-1,12
 1018 806 1018 806 994 795 c 128,-1,13
 970 784 970 784 950 776.5 c 128,-1,14
 930 769 930 769 917.5 763 c 128,-1,15
 905 757 905 757 905 747 c 128,-1,16
 905 737 905 737 921.5 728.5 c 128,-1,17
 938 720 938 720 963 712.5 c 128,-1,18
 988 705 988 705 1017.5 682 c 128,-1,19
 1047 659 1047 659 1072 625 c 0,20,21
 1130 546.12 1130 546.12 1130 364 c 0,22,23
 1130 239 1130 239 1193.5 133 c 128,-1,24
 1257 27 1257 27 1378 -35 c 1,25,26
 1371 -92 1371 -92 1246 -92 c 0,27,28
 1209 -92 1209 -92 1165 -58 c 128,-1,29
 1121 -24 1121 -24 1096 9.5 c 2,30,-1
 1071 43 l 1,31,32
 1055.12328767 -36.3835616438 1055.12328767 -36.3835616438 1005.5 -77.5 c 0,33,34
 988 -92 988 -92 969 -92 c 0,35,36
 913 -92 913 -92 859 48 c 128,-1,37
 805 188 805 188 776 355.5 c 128,-1,38
 747 523 747 523 747 635 c 2,39,-1
 747 649 l 1,40,41
 732.19731278 661.525350724 732.19731278 661.525350724 686.982607288 661.525350724 c 2,42,-1
 645 661 l 1,43,-1
 577 661 l 2,44,45
 541 661 541 661 515 665 c 1,46,-1
 504 406 l 1,47,48
 504 236 504 236 536.5 143.5 c 128,-1,49
 569 51 569 51 654 -33 c 1,50,51
 624.5 -92 624.5 -92 531.339285714 -92 c 128,-1,52
 438.178571429 -92 438.178571429 -92 355 45 c 1,53,54
 333.642857143 2.28571428571 333.642857143 2.28571428571 298.821428571 -29.8571428571 c 0,55,56
 231.5 -92 231.5 -92 186.25 -92 c 128,-1,57
 141 -92 141 -92 116 -85 c 128,-1,58
 91 -78 91 -78 79.5 -67 c 0,59,60
 60.5299145299 -48.8547008547 60.5299145299 -48.8547008547 56 -33 c 1,61,62
 133 51 133 51 163.5 144 c 128,-1,63
 194 237 194 237 194 369 c 128,-1,64
 194 501 194 501 181 572 c 128,-1,65
 168 643 168 643 150 679 c 128,-1,66
 132 715 132 715 114 737 c 128,-1,67
 96 759 96 759 83 770 c 128,-1,68
 70 781 70 781 70 789.5 c 128,-1,69
 70 798 70 798 79 807 c 128,-1,70
 88 816 88 816 102 824.5 c 128,-1,71
 116 833 116 833 132 853.5 c 128,-1,72
 148 874 148 874 162 901.5 c 0,73,74
 194 964.357142857 194 964.357142857 194 1111.17857143 c 128,-1,75
 194 1258 194 1258 164 1341 c 128,-1,76
 134 1424 134 1424 55 1499 c 1,77,78
 67.8739495798 1537.62184874 67.8739495798 1537.62184874 125 1554.5 c 0,79,80
 147 1561 147 1561 174 1561 c 0,81,82
 274.08 1561 274.08 1561 355 1442 c 1,83,84
 398.432432432 1514.38738739 398.432432432 1514.38738739 476 1548 c 0,85,86
 506 1561 506 1561 538 1561 c 128,-1,87
 570 1561 570 1561 595 1554 c 128,-1,88
 620 1547 620 1547 631.5 1535.5 c 0,89,90
 649.666666667 1517.33333333 649.666666667 1517.33333333 654 1500 c 1,91,92
 569 1427 569 1427 536.5 1345 c 128,-1,93
 504 1263 504 1263 504 1112.5 c 128,-1,94
 504 962 504 962 513 849 c 1,95,96
 539 843 539 843 575 843 c 0,97,98
 635.5 843 635.5 843 720.5 853 c 2,99,-1
 746 856 l 1,100,101
 754 907 754 907 767 1010 c 128,-1,102
 780 1113 780 1113 789.5 1177.5 c 0,103,104
 815.419354839 1353.47877759 815.419354839 1353.47877759 888 1491 c 1,105,106
 903.055555556 1536.16666667 903.055555556 1536.16666667 938.5 1554.5 c 0,107,108
 953 1562 953 1562 975 1562 c 128,-1,109
 997 1562 997 1562 1020 1535.5 c 128,-1,110
 1043 1509 1043 1509 1052 1482.5 c 2,111,-1
 1061 1456 l 1,0,1
EndSplineSet
EndChar

StartChar: L
Encoding: 66 76 45
Width: 873
Flags: HW
LayerCount: 2
Fore
SplineSet
778 -50 m 1,0,1
 684.470588235 10 684.470588235 10 634.235294118 10 c 128,-1,2
 584 10 584 10 537 -20 c 128,-1,3
 490 -50 490 -50 463 -50 c 0,4,5
 398 -50 398 -50 320 64 c 1,6,7
 306.436363636 30.0909090909 306.436363636 30.0909090909 275.218181818 2.54545454545 c 0,8,9
 215.666666667 -50 215.666666667 -50 167.333333333 -50 c 128,-1,10
 119 -50 119 -50 93 -35 c 128,-1,11
 67 -20 67 -20 63 -5 c 2,12,-1
 59 10 l 1,13,14
 126.74566474 54.0346820809 126.74566474 54.0346820809 143.5 90.5 c 0,15,16
 152 109 152 109 158.5 121.5 c 128,-1,17
 165 134 165 134 168.5 161 c 128,-1,18
 172 188 172 188 174.5 204.5 c 128,-1,19
 177 221 177 221 178 259 c 128,-1,20
 179 297 179 297 179 320.5 c 2,21,-1
 179 395 l 2,22,23
 179 626.181818182 179 626.181818182 108.5 709.5 c 0,24,25
 92 729 92 729 81 739 c 128,-1,26
 70 749 70 749 70 758 c 128,-1,27
 70 767 70 767 81 777 c 128,-1,28
 92 787 92 787 108.5 806 c 128,-1,29
 125 825 125 825 141 859 c 0,30,31
 179 939.75 179 939.75 179 1112.375 c 128,-1,32
 179 1285 179 1285 152.5 1361.5 c 128,-1,33
 126 1438 126 1438 58 1503 c 1,34,35
 58 1538.72093023 58 1538.72093023 113.5 1555.5 c 0,36,37
 135 1562 135 1562 165.5 1562 c 128,-1,38
 196 1562 196 1562 225.5 1551 c 128,-1,39
 255 1540 255 1540 273 1525 c 0,40,41
 310.714285714 1493.57142857 310.714285714 1493.57142857 329 1457 c 1,42,43
 333.888888889 1466.77777778 333.888888889 1466.77777778 353.444444444 1489.38888889 c 128,-1,44
 373 1512 373 1512 391 1525.5 c 0,45,46
 439.666666667 1562 439.666666667 1562 480.333333333 1562 c 128,-1,47
 521 1562 521 1562 542.5 1556 c 128,-1,48
 564 1550 564 1550 574 1541 c 0,49,50
 595.960784314 1521.23529412 595.960784314 1521.23529412 599 1503 c 1,51,52
 531 1438 531 1438 504.5 1361.5 c 128,-1,53
 478 1285 478 1285 478 1163.5 c 128,-1,54
 478 1042 478 1042 489 967.5 c 128,-1,55
 500 893 500 893 516 859 c 128,-1,56
 532 825 532 825 548.5 806 c 128,-1,57
 565 787 565 787 576 777 c 128,-1,58
 587 767 587 767 587 758 c 128,-1,59
 587 749 587 749 576 739 c 128,-1,60
 565 729 565 729 548.5 709.5 c 128,-1,61
 532 690 532 690 516 657 c 0,62,63
 478 578.625 478 578.625 478 395 c 1,64,-1
 477.087489531 283.34710403 l 2,65,66
 477.087489531 239.123346481 477.087489531 239.123346481 482.917581653 226.122170444 c 128,-1,67
 488.747673775 213.120994406 488.747673775 213.120994406 509.56133672 213.120994406 c 1,68,-1
 610 219 l 1,69,70
 675 219 675 219 707 234 c 128,-1,71
 739 249 739 249 778 288 c 1,72,73
 801.862068966 288 801.862068966 288 813.5 250.5 c 0,74,75
 818 236 818 236 818 214 c 128,-1,76
 818 192 818 192 803.5 167.5 c 0,77,78
 782.740088106 132.422907489 782.740088106 132.422907489 761 120 c 1,79,80
 818 72.5 818 72.5 818 21 c 0,81,82
 818 -40 818 -40 778 -50 c 1,0,1
EndSplineSet
EndChar

StartChar: M
Encoding: 67 77 46
Width: 1497
Flags: HW
LayerCount: 2
Fore
SplineSet
597 377.799804688 m 1,0,1
 618.94140625 410.968093081 618.94140625 410.968093081 618.94140625 466.020507812 c 0,2,3
 618.94140625 570.293757046 618.94140625 570.293757046 543 700.799804688 c 2,4,-1
 462 840 l 1,5,6
 458 701 458 701 458 375 c 0,7,8
 458 232 458 232 484.5 154.5 c 128,-1,9
 511 77 511 77 579 10 c 1,10,-1
 575 -5 l 2,11,12
 571 -20 571 -20 545 -35 c 128,-1,13
 519 -50 519 -50 469 -50 c 128,-1,14
 419 -50 419 -50 371 -10 c 0,15,16
 353 5 353 5 333 30 c 128,-1,17
 313 55 313 55 309 65 c 1,18,19
 287.586374696 25.4671532847 287.586374696 25.4671532847 250.5 -9.5 c 0,20,21
 233 -26 233 -26 207.5 -38 c 128,-1,22
 182 -50 182 -50 154 -50 c 128,-1,23
 126 -50 126 -50 105 -43.5 c 0,24,25
 49 -26.1666666667 49 -26.1666666667 49 10 c 1,26,27
 117 77 117 77 143.5 154.5 c 128,-1,28
 170 232 170 232 170 400.4375 c 128,-1,29
 170 568.875 170 568.875 132 652 c 0,30,31
 116 687 116 687 99.5 707.5 c 128,-1,32
 83 728 83 728 72 738 c 128,-1,33
 61 748 61 748 61 757.5 c 128,-1,34
 61 767 61 767 72 777 c 128,-1,35
 83 787 83 787 99.5 806 c 128,-1,36
 116 825 116 825 132 859 c 128,-1,37
 148 893 148 893 159 967.5 c 128,-1,38
 170 1042 170 1042 170 1165 c 128,-1,39
 170 1288 170 1288 144 1362 c 128,-1,40
 118 1436 118 1436 49 1503 c 1,41,-1
 53 1517.5 l 2,42,43
 57 1532 57 1532 83.5 1547 c 128,-1,44
 110 1562 110 1562 146 1562 c 128,-1,45
 182 1562 182 1562 208 1550.5 c 0,46,47
 277.654320988 1519.69135802 277.654320988 1519.69135802 309 1457 c 1,48,49
 375.818181818 1562 375.818181818 1562 474 1562 c 0,50,51
 502 1562 502 1562 523.5 1555.5 c 0,52,53
 579 1538.72093023 579 1538.72093023 579 1503 c 1,54,55
 496 1417 496 1417 473 1310 c 1,56,-1
 751 748 l 1,57,-1
 1022 1288 l 1,58,59
 1002.85600907 1406.3446712 1002.85600907 1406.3446712 912 1503 c 1,60,61
 915.039215686 1521.23529412 915.039215686 1521.23529412 937 1541 c 0,62,63
 947 1550 947 1550 968.5 1556 c 128,-1,64
 990 1562 990 1562 1031.59259259 1562 c 128,-1,65
 1073.18518519 1562 1073.18518519 1562 1120.5 1525.5 c 0,66,67
 1138 1512 1138 1512 1154.5 1493.5 c 128,-1,68
 1171 1475 1171 1475 1175.5 1468 c 128,-1,69
 1180 1461 1180 1461 1183 1457 c 1,70,71
 1245.04545455 1562 1245.04545455 1562 1337 1562 c 0,72,73
 1365 1562 1365 1562 1386.5 1555.5 c 0,74,75
 1442 1538.72093023 1442 1538.72093023 1442 1503 c 1,76,77
 1373 1436 1373 1436 1347 1362 c 128,-1,78
 1321 1288 1321 1288 1321 1130 c 128,-1,79
 1321 972 1321 972 1349 888 c 0,80,81
 1361 852 1361 852 1375.5 827.5 c 128,-1,82
 1390 803 1390 803 1402 793.5 c 128,-1,83
 1414 784 1414 784 1422 775 c 128,-1,84
 1430 766 1430 766 1430 757 c 128,-1,85
 1430 748 1430 748 1419 738 c 128,-1,86
 1408 728 1408 728 1392 707.5 c 128,-1,87
 1376 687 1376 687 1359.5 652 c 128,-1,88
 1343 617 1343 617 1332 545 c 128,-1,89
 1321 473 1321 473 1321 352.5 c 128,-1,90
 1321 232 1321 232 1347 154.5 c 128,-1,91
 1373 77 1373 77 1442 10 c 1,92,-1
 1438 -5 l 2,93,94
 1434 -20 1434 -20 1408 -35 c 128,-1,95
 1382 -50 1382 -50 1334.16666667 -50 c 128,-1,96
 1286.33333333 -50 1286.33333333 -50 1227.86363636 1.59090909091 c 0,97,98
 1197.72727273 28.1818181818 1197.72727273 28.1818181818 1183 65 c 1,99,-1
 1164.5 36.5 l 2,100,101
 1146 8 1146 8 1105 -21 c 128,-1,102
 1064 -50 1064 -50 1027 -50 c 128,-1,103
 990 -50 990 -50 969 -43.5 c 0,104,105
 912 -25.8571428571 912 -25.8571428571 912 10 c 1,106,107
 980 77 980 77 1006.5 154.5 c 128,-1,108
 1033 232 1033 232 1033 446.5 c 128,-1,109
 1033 661 1033 661 1030 811 c 1,110,-1
 969 700.799804688 l 2,111,112
 873.758789062 528.74263804 873.758789062 528.74263804 873.758789062 450.884182698 c 0,113,114
 873.758789062 404.746820955 873.758789062 404.746820955 892 377.799804688 c 1,115,116
 891.16481905 373.163188707 891.16481905 373.163188707 887.15451895 367.179542297 c 0,117,118
 885.224489796 364.299804688 885.224489796 364.299804688 881.376093294 361.420067079 c 128,-1,119
 877.527696793 358.540329469 877.527696793 358.540329469 872.501457726 356.159134134 c 128,-1,120
 867.475218659 353.777938799 867.475218659 353.777938799 859.533527697 352.288871743 c 128,-1,121
 851.591836735 350.799804688 851.591836735 350.799804688 838.395918367 350.799804688 c 128,-1,122
 825.2 350.799804688 825.2 350.799804688 808.948533865 358.365382377 c 0,123,124
 768.497856276 377.196467605 768.497856276 377.196467605 746 420.799804688 c 1,125,126
 705.446601942 350.799804688 705.446601942 350.799804688 652.770359794 350.799804688 c 128,-1,127
 600.094117647 350.799804688 600.094117647 350.799804688 597 377.799804688 c 1,0,1
EndSplineSet
EndChar

StartChar: N
Encoding: 68 78 47
Width: 1322
Flags: HW
LayerCount: 2
Fore
SplineSet
330 65 m 1,0,1
 261 -50 261 -50 165 -50 c 0,2,3
 120 -50 120 -50 93.5 -35 c 128,-1,4
 67 -20 67 -20 63 -5 c 2,5,-1
 59 10 l 1,6,7
 128 77 128 77 154 154.5 c 128,-1,8
 180 232 180 232 180 352.5 c 128,-1,9
 180 473 180 473 169 545 c 128,-1,10
 158 617 158 617 142 652 c 128,-1,11
 126 687 126 687 109.5 707.5 c 128,-1,12
 93 728 93 728 82 738 c 128,-1,13
 71 748 71 748 71 757.5 c 128,-1,14
 71 767 71 767 82 777 c 128,-1,15
 93 787 93 787 109.5 806 c 128,-1,16
 126 825 126 825 142 859 c 0,17,18
 180 939.75 180 939.75 180 1113.875 c 128,-1,19
 180 1288 180 1288 154 1362 c 128,-1,20
 128 1436 128 1436 59 1503 c 1,21,22
 59 1538.16666667 59 1538.16666667 115 1555.5 c 0,23,24
 136 1562 136 1562 165 1562 c 0,25,26
 263.181818182 1562 263.181818182 1562 330 1457 c 1,27,28
 334.888888889 1466.77777778 334.888888889 1466.77777778 354.444444444 1489.38888889 c 128,-1,29
 374 1512 374 1512 392 1525.5 c 0,30,31
 440.666666667 1562 440.666666667 1562 490.333333333 1562 c 128,-1,32
 540 1562 540 1562 566 1547 c 128,-1,33
 592 1532 592 1532 596 1517.5 c 2,34,-1
 600 1503 l 1,35,36
 539 1454 539 1454 512.5 1398.5 c 128,-1,37
 486 1343 486 1343 480 1251 c 1,38,-1
 805 741 l 1,39,40
 837 838 837 838 837 1148 c 0,41,42
 837 1288 837 1288 811 1362 c 128,-1,43
 785 1436 785 1436 716 1503 c 1,44,45
 716 1538.72093023 716 1538.72093023 771.5 1555.5 c 0,46,47
 793 1562 793 1562 821 1562 c 0,48,49
 919.181818182 1562 919.181818182 1562 986 1457 c 1,50,51
 989 1461 989 1461 993.5 1468 c 128,-1,52
 998 1475 998 1475 1014.5 1493.5 c 128,-1,53
 1031 1512 1031 1512 1048.5 1525.5 c 0,54,55
 1095.81481481 1562 1095.81481481 1562 1145.90740741 1562 c 128,-1,56
 1196 1562 1196 1562 1222.5 1547 c 128,-1,57
 1249 1532 1249 1532 1253 1517.5 c 2,58,-1
 1257 1503 l 1,59,60
 1188 1436 1188 1436 1162 1362 c 128,-1,61
 1136 1288 1136 1288 1136 1165 c 128,-1,62
 1136 1042 1136 1042 1147 967.5 c 128,-1,63
 1158 893 1158 893 1174 859 c 128,-1,64
 1190 825 1190 825 1206.5 806 c 128,-1,65
 1223 787 1223 787 1234 777 c 128,-1,66
 1245 767 1245 767 1245 757.5 c 128,-1,67
 1245 748 1245 748 1234 738 c 128,-1,68
 1223 728 1223 728 1206.5 707.5 c 128,-1,69
 1190 687 1190 687 1174 652 c 0,70,71
 1136 568.875 1136 568.875 1136 399.9375 c 128,-1,72
 1136 231 1136 231 1162 154 c 128,-1,73
 1188 77 1188 77 1257 10 c 1,74,75
 1257 -26.1666666667 1257 -26.1666666667 1201 -43.5 c 0,76,77
 1180 -50 1180 -50 1142.5 -50 c 128,-1,78
 1105 -50 1105 -50 1064 -21 c 128,-1,79
 1023 8 1023 8 1004.5 36.5 c 2,80,-1
 986 65 l 1,81,82
 982 55 982 55 962 30 c 128,-1,83
 942 5 942 5 924 -10 c 0,84,85
 876 -50 876 -50 834.5 -50 c 128,-1,86
 793 -50 793 -50 772 -44 c 128,-1,87
 751 -38 751 -38 740.5 -29 c 0,88,89
 719.5 -11 719.5 -11 716 10 c 1,90,91
 775 63 775 63 801.5 124 c 128,-1,92
 828 185 828 185 835 284 c 1,93,-1
 485 781 l 1,94,95
 479 658 479 658 479 445 c 128,-1,96
 479 232 479 232 505 154.5 c 128,-1,97
 531 77 531 77 600 10 c 1,98,99
 600 -26.7209302326 600 -26.7209302326 544.5 -43.5 c 0,100,101
 523 -50 523 -50 495 -50 c 0,102,103
 397.083333333 -50 397.083333333 -50 330 65 c 1,0,1
EndSplineSet
EndChar

StartChar: O
Encoding: 69 79 48
Width: 1241
Flags: HW
LayerCount: 2
Fore
SplineSet
497 440.5 m 2,0,1
 497 365 l 2,2,3
 497 235.1 497 235.1 507.5 213.05 c 128,-1,4
 518 191 518 191 525 176 c 128,-1,5
 532 161 532 161 541.5 154.5 c 128,-1,6
 551 148 551 148 563.5 140.5 c 0,7,8
 599.253968254 119.047619048 599.253968254 119.047619048 663 131 c 0,9,10
 711.876712329 140.164383562 711.876712329 140.164383562 730 179 c 0,11,12
 754.949622166 232.463476071 754.949622166 232.463476071 756.974811083 294.231738035 c 128,-1,13
 759 356 759 356 759 375.5 c 2,14,-1
 759 432 l 2,15,16
 759 619.125 759 619.125 704 708.5 c 0,17,18
 692 728 692 728 683 736.5 c 128,-1,19
 674 745 674 745 674 750 c 128,-1,20
 674 755 674 755 687.5 770 c 128,-1,21
 701 785 701 785 716.5 809.5 c 128,-1,22
 732 834 732 834 745.5 907 c 128,-1,23
 759 980 759 980 759 1059 c 128,-1,24
 759 1138 759 1138 758.5 1164 c 128,-1,25
 758 1190 758 1190 756.5 1226 c 128,-1,26
 755 1262 755 1262 751.5 1280 c 128,-1,27
 748 1298 748 1298 741.5 1321 c 128,-1,28
 735 1344 735 1344 725.5 1354 c 128,-1,29
 716 1364 716 1364 702.5 1374.5 c 0,30,31
 680 1392 680 1392 637.5 1392 c 128,-1,32
 595 1392 595 1392 572.5 1385.5 c 128,-1,33
 550 1379 550 1379 535.5 1360 c 128,-1,34
 521 1341 521 1341 513 1322.5 c 128,-1,35
 505 1304 505 1304 501 1262 c 0,36,37
 496 1209.5 496 1209.5 496 1104.75 c 128,-1,38
 496 1000 496 1000 504.5 935 c 128,-1,39
 513 870 513 870 525.5 839 c 128,-1,40
 538 808 538 808 550.5 790 c 128,-1,41
 563 772 563 772 571.5 763.5 c 128,-1,42
 580 755 580 755 580 749.5 c 128,-1,43
 580 744 580 744 571.5 734 c 128,-1,44
 563 724 563 724 550.5 703 c 128,-1,45
 538 682 538 682 526 650 c 0,46,47
 497 572.666666667 497 572.666666667 497 440.5 c 2,0,1
1102 565.5 m 128,-1,49
 1092 504 1092 504 1092 391.5 c 128,-1,50
 1092 279 1092 279 1062 179 c 128,-1,51
 1032 79 1032 79 971 19.5 c 128,-1,52
 910 -40 910 -40 826 -66.5 c 128,-1,53
 742 -93 742 -93 627 -93 c 128,-1,54
 512 -93 512 -93 428 -66.5 c 128,-1,55
 344 -40 344 -40 283 19.5 c 0,56,57
 162 137.524590164 162 137.524590164 162 421 c 0,58,59
 162 660.153846154 162 660.153846154 51 737 c 0,60,61
 38 746 38 746 38 750 c 128,-1,62
 38 754 38 754 51 762.5 c 128,-1,63
 64 771 64 771 82 789.5 c 128,-1,64
 100 808 100 808 118 839 c 0,65,66
 162 914.777777778 162 914.777777778 162 1048.88888889 c 128,-1,67
 162 1183 162 1183 175.5 1263.5 c 128,-1,68
 189 1344 189 1344 217 1399.5 c 128,-1,69
 245 1455 245 1455 282.5 1492 c 128,-1,70
 320 1529 320 1529 375 1549.5 c 128,-1,71
 430 1570 430 1570 489.5 1578 c 128,-1,72
 549 1586 549 1586 628 1586 c 128,-1,73
 707 1586 707 1586 766 1578 c 128,-1,74
 825 1570 825 1570 880 1549.5 c 128,-1,75
 935 1529 935 1529 972 1492 c 128,-1,76
 1009 1455 1009 1455 1037 1399.5 c 0,77,78
 1092 1290.48214286 1092 1290.48214286 1092 1077 c 0,79,80
 1092 843.869565217 1092 843.869565217 1190.5 762.5 c 0,81,82
 1202 753 1202 753 1202 749.5 c 128,-1,83
 1202 746 1202 746 1188.5 735.5 c 128,-1,84
 1175 725 1175 725 1162.5 710.5 c 128,-1,85
 1150 696 1150 696 1131 661.5 c 128,-1,48
 1112 627 1112 627 1102 565.5 c 128,-1,49
EndSplineSet
EndChar

StartChar: P
Encoding: 70 80 49
Width: 1062
Flags: HW
LayerCount: 2
Fore
SplineSet
505 -50 m 0,0,1
 400.875 -50 400.875 -50 329 65 c 1,2,3
 325 55 325 55 305 30 c 128,-1,4
 285 5 285 5 267 -10 c 0,5,6
 219 -50 219 -50 177.5 -50 c 128,-1,7
 136 -50 136 -50 115 -44 c 128,-1,8
 94 -38 94 -38 84 -29 c 0,9,10
 62.2352941176 -9.41176470588 62.2352941176 -9.41176470588 59 10 c 1,11,12
 127 78 127 78 153.5 162.5 c 128,-1,13
 180 247 180 247 180 368 c 128,-1,14
 180 489 180 489 169 557 c 128,-1,15
 158 625 158 625 142 658 c 128,-1,16
 126 691 126 691 109.5 710 c 128,-1,17
 93 729 93 729 82 739 c 128,-1,18
 71 749 71 749 71 757.5 c 128,-1,19
 71 766 71 766 82 776 c 128,-1,20
 93 786 93 786 109.5 804.5 c 128,-1,21
 126 823 126 823 142 856 c 0,22,23
 180 934.375 180 934.375 180 1106.1875 c 128,-1,24
 180 1278 180 1278 153.5 1357 c 128,-1,25
 127 1436 127 1436 59 1503 c 1,26,27
 59 1538.72093023 59 1538.72093023 114.5 1555.5 c 0,28,29
 136 1562 136 1562 166.5 1562 c 128,-1,30
 197 1562 197 1562 228.5 1552 c 128,-1,31
 260 1542 260 1542 281.5 1528 c 0,32,33
 329.300970874 1496.87378641 329.300970874 1496.87378641 354 1466 c 1,34,35
 387.925106185 1525.86090945 387.925106185 1525.86090945 523.465346614 1551.71319423 c 0,36,37
 577.92 1562.09960938 577.92 1562.09960938 644.210333123 1562.09960938 c 128,-1,38
 710.500666247 1562.09960938 710.500666247 1562.09960938 771.248193653 1544.87750061 c 128,-1,39
 831.995721059 1527.65539184 831.995721059 1527.65539184 881.815057319 1495.200318 c 0,40,41
 988.341907217 1425.80283021 988.341907217 1425.80283021 1016 1299 c 0,42,43
 1037.5615942 1197.07246377 1037.5615942 1197.07246377 1066.5 1164 c 0,44,45
 1077 1152 1077 1152 1084.5 1144 c 128,-1,46
 1092 1136 1092 1136 1092 1131.5 c 128,-1,47
 1092 1127 1092 1127 1087.5 1121.5 c 128,-1,48
 1083 1116 1083 1116 1075 1104.5 c 128,-1,49
 1067 1093 1067 1093 1057.5 1074 c 0,50,51
 1033.18181818 1025.36363636 1033.18181818 1025.36363636 1017.59090909 937.181818182 c 128,-1,52
 1002 849 1002 849 961 787.5 c 128,-1,53
 920 726 920 726 867 689 c 128,-1,54
 814 652 814 652 747 628 c 0,55,56
 629.75 586 629.75 586 490 586 c 1,57,-1
 490 396 l 2,58,59
 490 245 490 245 516.5 162.5 c 128,-1,60
 543 80 543 80 611 10 c 1,61,62
 611 -26.4186046512 611 -26.4186046512 554.5 -43.5 c 0,63,64
 533 -50 533 -50 505 -50 c 0,0,1
676.5 1350 m 128,-1,66
 647 1372 647 1372 606 1372 c 128,-1,67
 565 1372 565 1372 527.5 1356 c 128,-1,68
 490 1340 490 1340 490 1322 c 2,69,-1
 490 748 l 1,70,71
 589 755 589 755 647.5 788 c 128,-1,72
 706 821 706 821 706 871 c 2,73,-1
 706 1302 l 2,74,65
 706 1328 706 1328 676.5 1350 c 128,-1,66
EndSplineSet
EndChar

StartChar: Q
Encoding: 71 81 50
Width: 1241
Flags: HW
LayerCount: 2
Fore
SplineSet
496 440.5 m 2,0,1
 496 365 l 2,2,3
 496 235.1 496 235.1 506.5 213.05 c 128,-1,4
 517 191 517 191 524 176 c 128,-1,5
 531 161 531 161 540.5 154.5 c 128,-1,6
 550 148 550 148 562.5 140.5 c 0,7,8
 598.253968254 119.047619048 598.253968254 119.047619048 662 131 c 0,9,10
 710.876712329 140.164383562 710.876712329 140.164383562 729 179 c 0,11,12
 753.949622166 232.463476071 753.949622166 232.463476071 755.974811083 294.231738035 c 128,-1,13
 758 356 758 356 758 375.5 c 2,14,-1
 758 432 l 2,15,16
 758 664.722222222 758 664.722222222 682 736.5 c 0,17,18
 673 745 673 745 673 750 c 128,-1,19
 673 755 673 755 686.5 770 c 128,-1,20
 700 785 700 785 715.5 809.5 c 128,-1,21
 731 834 731 834 744.5 907 c 128,-1,22
 758 980 758 980 758 1059 c 128,-1,23
 758 1138 758 1138 757.5 1164 c 128,-1,24
 757 1190 757 1190 755.5 1226 c 128,-1,25
 754 1262 754 1262 750.5 1280 c 128,-1,26
 747 1298 747 1298 740.5 1321 c 128,-1,27
 734 1344 734 1344 724.5 1354 c 128,-1,28
 715 1364 715 1364 701.5 1374.5 c 0,29,30
 679 1392 679 1392 636.5 1392 c 128,-1,31
 594 1392 594 1392 571.5 1385.5 c 128,-1,32
 549 1379 549 1379 534.5 1360 c 128,-1,33
 520 1341 520 1341 512 1322.5 c 128,-1,34
 504 1304 504 1304 500 1262 c 0,35,36
 495 1209.5 495 1209.5 495 1104.75 c 128,-1,37
 495 1000 495 1000 503.5 935 c 128,-1,38
 512 870 512 870 524.5 839 c 128,-1,39
 537 808 537 808 549.5 790 c 128,-1,40
 562 772 562 772 570.5 763.5 c 128,-1,41
 579 755 579 755 579 749.5 c 128,-1,42
 579 744 579 744 570.5 734 c 128,-1,43
 562 724 562 724 550 703 c 128,-1,44
 538 682 538 682 525.5 650 c 0,45,46
 496 574.48 496 574.48 496 440.5 c 2,0,1
807 -144 m 128,-1,48
 828 -125 828 -125 867.357142857 -125 c 128,-1,49
 906.714285714 -125 906.714285714 -125 973 -154 c 1,50,51
 973 -114.034482759 973 -114.034482759 995 -68.5172413793 c 0,52,53
 1037.3 19 1037.3 19 1114 19 c 0,54,55
 1132 19 1132 19 1146 12 c 1,56,57
 1122 -22 1122 -22 1122 -65 c 1,58,-1
 1138 -189 l 1,59,60
 1138 -315 1138 -315 1048.5 -388.5 c 128,-1,61
 959 -462 959 -462 837 -462 c 0,62,63
 725 -462 725 -462 640.5 -377.5 c 0,64,65
 550 -287 550 -287 550 -115 c 0,66,67
 550 -104.158611957 550 -104.158611957 551.038927114 -88.972364971 c 1,68,69
 256.045136845 -63.7938613218 256.045136845 -63.7938613218 186.268199872 196.747682301 c 0,70,71
 161 291.09713478 161 291.09713478 161 396.04856739 c 128,-1,72
 161 501 161 501 148 563 c 128,-1,73
 135 625 135 625 117 657 c 128,-1,74
 99 689 99 689 81 708.5 c 128,-1,75
 63 728 63 728 50 737 c 128,-1,76
 37 746 37 746 37 750 c 128,-1,77
 37 754 37 754 50 762.5 c 128,-1,78
 63 771 63 771 81 789.5 c 128,-1,79
 99 808 99 808 117 839 c 0,80,81
 161 914.777777778 161 914.777777778 161 1048.88888889 c 128,-1,82
 161 1183 161 1183 174.5 1263.5 c 128,-1,83
 188 1344 188 1344 216 1399.5 c 128,-1,84
 244 1455 244 1455 281.5 1492 c 128,-1,85
 319 1529 319 1529 374 1549.5 c 128,-1,86
 429 1570 429 1570 488.5 1578 c 128,-1,87
 548 1586 548 1586 627 1586 c 128,-1,88
 706 1586 706 1586 765 1578 c 128,-1,89
 824 1570 824 1570 879 1549.5 c 128,-1,90
 934 1529 934 1529 971 1492 c 128,-1,91
 1008 1455 1008 1455 1036 1399.5 c 0,92,93
 1091 1290.48214286 1091 1290.48214286 1091 1077 c 0,94,95
 1091 843.869565217 1091 843.869565217 1189.5 762.5 c 0,96,97
 1201 753 1201 753 1201 749.5 c 128,-1,98
 1201 746 1201 746 1187.5 735.5 c 128,-1,99
 1174 725 1174 725 1161.5 710.5 c 128,-1,100
 1149 696 1149 696 1130 661.5 c 0,101,102
 1091 590.684210526 1091 590.684210526 1091 421 c 0,103,104
 1091 86.0177719175 1091 86.0177719175 912.190604794 -26.0138704112 c 0,105,106
 817.065501776 -84.9128927616 817.065501776 -84.9128927616 664.253702248 -91.2528679926 c 1,107,108
 660 -116.536575748 660 -116.536575748 660 -142 c 0,109,110
 660 -233 660 -233 703.5 -281 c 128,-1,111
 747 -329 747 -329 792 -329 c 128,-1,112
 837 -329 837 -329 857.5 -311 c 128,-1,113
 878 -293 878 -293 878 -269.5 c 128,-1,114
 878 -246 878 -246 858.5 -230 c 128,-1,115
 839 -214 839 -214 816.5 -214 c 128,-1,116
 794 -214 794 -214 776 -216 c 0,117,118
 775 -216 775 -216 775 -206.5 c 128,-1,119
 775 -197 775 -197 780.5 -180 c 128,-1,47
 786 -163 786 -163 807 -144 c 128,-1,48
EndSplineSet
EndChar

StartChar: R
Encoding: 72 82 51
Width: 1211
Flags: HW
LayerCount: 2
Fore
SplineSet
329 55 m 1,0,1
 324.111111111 45.2222222222 324.111111111 45.2222222222 304.555555556 22.6111111111 c 128,-1,2
 285 0 285 0 267 -13.5 c 0,3,4
 218.333333333 -50 218.333333333 -50 168.666666667 -50 c 128,-1,5
 119 -50 119 -50 93 -35 c 128,-1,6
 67 -20 67 -20 63 -5 c 2,7,-1
 59 10 l 1,8,9
 125 70 125 70 152.5 159 c 128,-1,10
 180 248 180 248 180 364.5 c 128,-1,11
 180 481 180 481 169 551 c 128,-1,12
 158 621 158 621 142 655 c 128,-1,13
 126 689 126 689 109.5 709 c 128,-1,14
 93 729 93 729 82 738.5 c 128,-1,15
 71 748 71 748 71 757.5 c 128,-1,16
 71 767 71 767 82 777.5 c 128,-1,17
 93 788 93 788 109.5 808 c 128,-1,18
 126 828 126 828 142 863.5 c 0,19,20
 180 947.8125 180 947.8125 180 1121.40625 c 128,-1,21
 180 1295 180 1295 153.5 1367 c 128,-1,22
 127 1439 127 1439 59 1503 c 1,23,24
 59 1538.72093023 59 1538.72093023 114.5 1555.5 c 0,25,26
 136 1562 136 1562 167.5 1562 c 128,-1,27
 199 1562 199 1562 232 1551.5 c 128,-1,28
 265 1541 265 1541 287.5 1526.5 c 0,29,30
 334.092920354 1496.47345133 334.092920354 1496.47345133 362 1462 c 1,31,32
 366.90077319 1475.84397941 366.90077319 1475.84397941 386.880386595 1494.96384027 c 128,-1,33
 406.86 1514.08370114 406.86 1514.08370114 432.333 1527.27292138 c 0,34,35
 499.595522496 1562.09960938 499.595522496 1562.09960938 584.700210177 1562.09960938 c 128,-1,36
 669.804897858 1562.09960938 669.804897858 1562.09960938 712.260290665 1559.07632369 c 128,-1,37
 754.715683472 1556.053038 754.715683472 1556.053038 797.030813169 1548.33495648 c 128,-1,38
 839.345942866 1540.61687496 839.345942866 1540.61687496 872.927419892 1528.09198532 c 128,-1,39
 906.508896919 1515.56709569 906.508896919 1515.56709569 936.622174597 1495.81518838 c 128,-1,40
 966.735452276 1476.06328107 966.735452276 1476.06328107 987.927182239 1449.7709565 c 0,41,42
 1033.04464126 1393.79426757 1033.04464126 1393.79426757 1040.52232063 1329.89713378 c 128,-1,43
 1048 1266 1048 1266 1061 1234.5 c 128,-1,44
 1074 1203 1074 1203 1086.5 1189 c 0,45,46
 1119 1152.6 1119 1152.6 1119 1147.3 c 128,-1,47
 1119 1142 1119 1142 1109 1130 c 128,-1,48
 1099 1118 1099 1118 1086.5 1100.5 c 0,49,50
 1052.84090909 1053.37727273 1052.84090909 1053.37727273 1045.42045455 975.188636364 c 128,-1,51
 1038 897 1038 897 995 846 c 128,-1,52
 952 795 952 795 887 789 c 1,53,54
 1005.18573414 750.250578972 1005.18573414 750.250578972 1041.5 621.5 c 0,55,56
 1062.02816901 548.718309859 1062.02816901 548.718309859 1075.01408451 418.85915493 c 128,-1,57
 1088 289 1088 289 1100 226.5 c 0,58,59
 1127.17402408 84.9686245896 1127.17402408 84.9686245896 1224 23 c 1,60,61
 1138 -64 1138 -64 999 -64 c 0,62,63
 922 -64 922 -64 870 -22 c 128,-1,64
 818 20 818 20 794.5 87 c 128,-1,65
 771 154 771 154 758.5 234.5 c 128,-1,66
 746 315 746 315 740.5 396 c 128,-1,67
 735 477 735 477 725.5 544 c 0,68,69
 704.089552239 695 704.089552239 695 624 695 c 2,70,-1
 490 695 l 1,71,-1
 490 385 l 2,72,73
 490 238 490 238 514 158.5 c 128,-1,74
 538 79 538 79 601 10 c 1,75,76
 601 -26.7209302326 601 -26.7209302326 545.5 -43.5 c 0,77,78
 524 -50 524 -50 495.5 -50 c 128,-1,79
 467 -50 467 -50 439 -39 c 128,-1,80
 411 -28 411 -28 392 -13 c 0,81,82
 352.355769231 18.2980769231 352.355769231 18.2980769231 329 55 c 1,0,1
691 1350 m 128,-1,84
 662 1372 662 1372 619.5 1372 c 128,-1,85
 577 1372 577 1372 533.5 1356 c 128,-1,86
 490 1340 490 1340 490 1322 c 2,87,-1
 490 851 l 1,88,89
 608 851 608 851 664 877.5 c 128,-1,90
 720 904 720 904 720 963 c 2,91,-1
 720 1302 l 2,92,83
 720 1328 720 1328 691 1350 c 128,-1,84
EndSplineSet
EndChar

StartChar: S
Encoding: 73 83 52
Width: 1043
Flags: HW
LayerCount: 2
Fore
SplineSet
670 305 m 0,0,1
 670 436 670 436 605 520.5 c 128,-1,2
 540 605 540 605 432 605 c 0,3,4
 403 605 403 605 367 596 c 128,-1,5
 331 587 331 587 326 587 c 1,6,-1
 318 589 l 1,7,8
 308 594 308 594 300.5 618.5 c 0,9,10
 276.916478555 695.539503386 276.916478555 695.539503386 218 743 c 0,11,12
 26 898 26 898 26 1155 c 0,13,14
 26 1362 26 1362 161.5 1474 c 128,-1,15
 297 1586 297 1586 537 1586 c 0,16,17
 642.454545455 1586 642.454545455 1586 721.727272727 1546 c 128,-1,18
 801 1506 801 1506 844 1467.5 c 0,19,20
 941 1380.65116279 941 1380.65116279 941 1242 c 0,21,22
 941 1196 941 1196 917 1119 c 128,-1,23
 893 1042 893 1042 893 1026 c 0,24,25
 893 966 893 966 943 911 c 1,26,27
 925 917 925 917 892 917 c 128,-1,28
 859 917 859 917 829.5 934 c 128,-1,29
 800 951 800 951 783 975.5 c 0,30,31
 749.784615385 1023.36923077 749.784615385 1023.36923077 734 1083 c 1,32,33
 726.972972973 1072.45945946 726.972972973 1072.45945946 682.986486486 1060.72972973 c 128,-1,34
 639 1049 639 1049 608.5 1049 c 128,-1,35
 578 1049 578 1049 555 1057.5 c 128,-1,36
 532 1066 532 1066 521.5 1075.5 c 128,-1,37
 511 1085 511 1085 505.5 1099.5 c 0,38,39
 499 1116.63636364 499 1116.63636364 499 1130 c 1,40,41
 561 1133 561 1133 607.5 1162 c 128,-1,42
 654 1191 654 1191 654 1255.5 c 128,-1,43
 654 1320 654 1320 615.5 1356 c 128,-1,44
 577 1392 577 1392 529 1392 c 0,45,46
 372 1392 372 1392 372 1204.09960938 c 0,47,48
 372 1044.7665511 372 1044.7665511 452.796081217 966.878228304 c 0,49,50
 495.2003921 926 495.2003921 926 539.10019605 926 c 128,-1,51
 583 926 583 926 631 939.5 c 128,-1,52
 679 953 679 953 686.5 953 c 128,-1,53
 694 953 694 953 703 927 c 0,54,55
 733.9 837.733333333 733.9 837.733333333 780 807 c 0,56,57
 889 735 889 735 953 622 c 128,-1,58
 1017 509 1017 509 1017 381 c 128,-1,59
 1017 253 1017 253 972 164 c 128,-1,60
 927 75 927 75 853 20 c 0,61,62
 700.963636364 -93 700.963636364 -93 501 -93 c 0,63,64
 316.1875 -93 316.1875 -93 184.5 5 c 0,65,66
 120 53 120 53 81.5 129.5 c 128,-1,67
 43 206 43 206 43 275 c 128,-1,68
 43 344 43 344 69.5 419.5 c 128,-1,69
 96 495 96 495 96 536.5 c 128,-1,70
 96 578 96 578 62 624 c 1,71,72
 76 634 76 634 99 634 c 0,73,74
 161 634 161 634 208.5 572.5 c 128,-1,75
 256 511 256 511 257 447 c 1,76,77
 323 482 323 482 372 482 c 128,-1,78
 421 482 421 482 445 472.5 c 128,-1,79
 469 463 469 463 479 448.5 c 0,80,81
 496 423.85 496 423.85 496 404 c 2,82,-1
 496 396 l 1,83,84
 438 389 438 389 394.5 347.5 c 128,-1,85
 351 306 351 306 351 242 c 128,-1,86
 351 178 351 178 392 147 c 128,-1,87
 433 116 433 116 495.5 116 c 128,-1,88
 558 116 558 116 614 165.5 c 128,-1,89
 670 215 670 215 670 305 c 0,0,1
EndSplineSet
EndChar

StartChar: T
Encoding: 74 84 53
Width: 948
Flags: HW
LayerCount: 2
Fore
SplineSet
48 1224 m 1,0,1
 8 1234 8 1234 8 1289.80769231 c 128,-1,2
 8 1345.61538462 8 1345.61538462 64 1393 c 1,3,4
 40.4637681159 1409.8115942 40.4637681159 1409.8115942 24.231884058 1437.4057971 c 128,-1,5
 8 1465 8 1465 8 1493 c 128,-1,6
 8 1521 8 1521 18 1538.5 c 128,-1,7
 28 1556 28 1556 48 1562 c 1,8,9
 126 1514 126 1514 205 1514 c 0,10,11
 236 1514 236 1514 288.5 1538 c 128,-1,12
 341 1562 341 1562 367 1562 c 0,13,14
 431 1562 431 1562 479 1480 c 1,15,16
 526 1562 526 1562 589 1562 c 0,17,18
 615 1562 615 1562 667.5 1538 c 128,-1,19
 720 1514 720 1514 751 1514 c 0,20,21
 827 1514 827 1514 908 1562 c 1,22,23
 932.655172414 1562 932.655172414 1562 943 1524.5 c 0,24,25
 947 1510 947 1510 947 1487.5 c 128,-1,26
 947 1465 947 1465 932 1440 c 0,27,28
 908.157894737 1400.26315789 908.157894737 1400.26315789 890 1393 c 1,29,30
 912.834008097 1378.72874494 912.834008097 1378.72874494 929.917004049 1349.86437247 c 128,-1,31
 947 1321 947 1321 947 1299 c 128,-1,32
 947 1277 947 1277 943 1262.5 c 128,-1,33
 939 1248 939 1248 933.5 1241 c 0,34,35
 923.111111111 1227.77777778 923.111111111 1227.77777778 908 1224 c 1,36,37
 847.459459459 1294 847.459459459 1294 740 1294 c 1,38,-1
 637 1290 l 1,39,40
 625 1278 625 1278 625 1158 c 128,-1,41
 625 1038 625 1038 636 966 c 128,-1,42
 647 894 647 894 663.5 859.5 c 128,-1,43
 680 825 680 825 696 805 c 128,-1,44
 712 785 712 785 723 775 c 128,-1,45
 734 765 734 765 734 756.5 c 128,-1,46
 734 748 734 748 726 739 c 128,-1,47
 718 730 718 730 706 721 c 128,-1,48
 694 712 694 712 679.5 687.5 c 128,-1,49
 665 663 665 663 653 628 c 0,50,51
 625 546.333333333 625 546.333333333 625 389.666666667 c 128,-1,52
 625 233 625 233 651.5 154 c 128,-1,53
 678 75 678 75 746 10 c 1,54,55
 746 -26.1666666667 746 -26.1666666667 690 -43.5 c 0,56,57
 669 -50 669 -50 631.5 -50 c 128,-1,58
 594 -50 594 -50 554 -21 c 128,-1,59
 514 8 514 8 496.5 36.5 c 2,60,-1
 479 65 l 1,61,62
 450.4 -6.5 450.4 -6.5 376 -37.5 c 0,63,64
 346 -50 346 -50 315.5 -50 c 128,-1,65
 285 -50 285 -50 263.5 -44 c 128,-1,66
 242 -38 242 -38 232 -29 c 0,67,68
 210.235294118 -9.41176470588 210.235294118 -9.41176470588 207 10 c 1,69,70
 275 75 275 75 301.5 154.5 c 128,-1,71
 328 234 328 234 328 355.5 c 128,-1,72
 328 477 328 477 317 550.5 c 128,-1,73
 306 624 306 624 290 657 c 128,-1,74
 274 690 274 690 257.5 708.5 c 128,-1,75
 241 727 241 727 230 737 c 128,-1,76
 219 747 219 747 219 756 c 128,-1,77
 219 765 219 765 230 775 c 128,-1,78
 241 785 241 785 257.5 805 c 128,-1,79
 274 825 274 825 290 859.5 c 0,80,81
 328 941.4375 328 941.4375 328 1101.71875 c 128,-1,82
 328 1262 328 1262 316 1290 c 1,83,84
 316 1294 316 1294 228 1294 c 128,-1,85
 140 1294 140 1294 108 1277.5 c 128,-1,86
 76 1261 76 1261 48 1224 c 1,0,1
EndSplineSet
EndChar

StartChar: U
Encoding: 75 85 54
Width: 1286
Flags: HW
LayerCount: 2
Fore
SplineSet
977 1457 m 1,0,1
 1055.75 1562 1055.75 1562 1151 1562 c 0,2,3
 1196 1562 1196 1562 1222.5 1547 c 128,-1,4
 1249 1532 1249 1532 1253 1517.5 c 2,5,-1
 1257 1503 l 1,6,7
 1189 1438 1189 1438 1162.5 1361.5 c 128,-1,8
 1136 1285 1136 1285 1136 1163.5 c 128,-1,9
 1136 1042 1136 1042 1145 967.5 c 128,-1,10
 1154 893 1154 893 1167 859 c 128,-1,11
 1180 825 1180 825 1192.5 806 c 128,-1,12
 1205 787 1205 787 1214 777 c 128,-1,13
 1223 767 1223 767 1223 758 c 128,-1,14
 1223 749 1223 749 1214 739.5 c 128,-1,15
 1205 730 1205 730 1192.5 711 c 128,-1,16
 1180 692 1180 692 1167 660.5 c 0,17,18
 1136 585.384615385 1136 585.384615385 1136 427.192307692 c 128,-1,19
 1136 269 1136 269 1104 172 c 128,-1,20
 1072 75 1072 75 1008 17 c 0,21,22
 886.620689655 -93 886.620689655 -93 652 -93 c 4,23,24
 279.154639175 -93 279.154639175 -93 189 172 c 0,25,26
 156 269 156 269 156 383 c 128,-1,27
 156 497 156 497 147 563 c 128,-1,28
 138 629 138 629 125 660.5 c 128,-1,29
 112 692 112 692 99.5 711 c 128,-1,30
 87 730 87 730 78 739.5 c 128,-1,31
 69 749 69 749 69 758 c 128,-1,32
 69 767 69 767 78 777 c 128,-1,33
 87 787 87 787 99.5 806 c 128,-1,34
 112 825 112 825 125 859 c 0,35,36
 156 940.076923077 156 940.076923077 156 1112.53846154 c 128,-1,37
 156 1285 156 1285 129.5 1361.5 c 128,-1,38
 103 1438 103 1438 35 1503 c 1,39,40
 35 1538.72093023 35 1538.72093023 90.5 1555.5 c 0,41,42
 112 1562 112 1562 143 1562 c 128,-1,43
 174 1562 174 1562 208 1551 c 128,-1,44
 242 1540 242 1540 265 1525 c 0,45,46
 312.949152542 1493.72881356 312.949152542 1493.72881356 343 1457 c 1,47,48
 421.75 1562 421.75 1562 530 1562 c 0,49,50
 575 1562 575 1562 601.5 1547 c 128,-1,51
 628 1532 628 1532 632 1517.5 c 2,52,-1
 636 1503 l 1,53,54
 568 1438 568 1438 541.5 1361.5 c 128,-1,55
 515 1285 515 1285 515 1152 c 128,-1,56
 515 1019 515 1019 527 936.5 c 128,-1,57
 539 854 539 854 553 830.5 c 128,-1,58
 567 807 567 807 579 792 c 128,-1,59
 591 777 591 777 591 768 c 128,-1,60
 591 759 591 759 579 745 c 128,-1,61
 567 731 567 731 553 709 c 0,62,63
 515 649.285714286 515 649.285714286 515 460 c 2,64,-1
 514.981634527 422.624426079 l 2,65,66
 514.981634527 248.146834041 514.981634527 248.146834041 535.396588277 204.035093958 c 0,67,68
 552.963980275 166.076240892 552.963980275 166.076240892 566.185991458 156.61714557 c 128,-1,69
 579.408002641 147.158050247 579.408002641 147.158050247 593.477318977 139.990927162 c 0,70,71
 618.978968884 127 618.978968884 127 653.928405681 127 c 128,-1,72
 688.877842479 127 688.877842479 127 708.101143447 131.336058862 c 128,-1,73
 727.324444415 135.672117725 727.324444415 135.672117725 741.920214578 142.203066138 c 128,-1,74
 756.51598474 148.73401455 756.51598474 148.73401455 767.544819716 162.14844878 c 128,-1,75
 778.573654692 175.56288301 778.573654692 175.56288301 786.151380558 187.761860376 c 128,-1,76
 793.729106425 199.960837743 793.729106425 199.960837743 798.821582405 221.987912772 c 128,-1,77
 803.914058384 244.014987801 803.914058384 244.014987801 806.731846951 261.416259553 c 128,-1,78
 809.549635517 278.817531305 809.549635517 278.817531305 810.963859497 308.991512566 c 0,79,80
 813.01 352.648108763 813.01 352.648108763 813.01 420.899125 c 2,81,-1
 813 451 l 2,82,83
 813 646.428571429 813 646.428571429 775 707.5 c 0,84,85
 761 730 761 730 749 744.5 c 128,-1,86
 737 759 737 759 737 768 c 128,-1,87
 737 777 737 777 749 792 c 128,-1,88
 761 807 761 807 775 830.5 c 128,-1,89
 789 854 789 854 801 936.5 c 128,-1,90
 813 1019 813 1019 813 1152.5 c 128,-1,91
 813 1286 813 1286 790 1362.5 c 128,-1,92
 767 1439 767 1439 706 1503 c 1,93,94
 706 1538.16666667 706 1538.16666667 762 1555.5 c 0,95,96
 783 1562 783 1562 812 1562 c 0,97,98
 910.181818182 1562 910.181818182 1562 977 1457 c 1,0,1
EndSplineSet
EndChar

StartChar: V
Encoding: 76 86 55
Width: 1271
Flags: HW
LayerCount: 2
Fore
SplineSet
1220 1562 m 0,0,1
 1290 1562 1290 1562 1290 1510 c 2,2,-1
 1290 1503 l 1,3,4
 1190 1423 1190 1423 1117.5 1254.5 c 128,-1,5
 1045 1086 1045 1086 1045 910 c 0,6,7
 1045 838 1045 838 1055 800.5 c 128,-1,8
 1065 763 1065 763 1065 762 c 0,9,10
 930.281564246 552.437988827 930.281564246 552.437988827 873 339.5 c 0,11,12
 850 254 850 254 850 173.5 c 128,-1,13
 850 93 850 93 903 10 c 1,14,-1
 903 6 l 2,15,16
 903 -50 903 -50 790 -50 c 0,17,18
 741.636363636 -50 741.636363636 -50 708.818181818 -21.5 c 0,19,20
 656.208333333 24.1875 656.208333333 24.1875 629 65 c 1,21,22
 600.457627119 -6.35593220339 600.457627119 -6.35593220339 514.5 -37.5 c 0,23,24
 480 -50 480 -50 443 -50 c 128,-1,25
 406 -50 406 -50 384 -35 c 128,-1,26
 362 -20 362 -20 352 10 c 1,27,28
 412 94 412 94 412 199 c 0,29,30
 412 259 412 259 385 368 c 128,-1,31
 358 477 358 477 327 550.5 c 128,-1,32
 296 624 296 624 270 657.5 c 128,-1,33
 244 691 244 691 221.5 711 c 128,-1,34
 199 731 199 731 186.5 740.5 c 128,-1,35
 174 750 174 750 174 759 c 128,-1,36
 174 768 174 768 182 778.5 c 128,-1,37
 190 789 190 789 200 800.5 c 0,38,39
 226 830.4 226 830.4 226 920 c 0,40,41
 226 1099 226 1099 159 1261 c 128,-1,42
 92 1423 92 1423 -7 1503 c 1,43,-1
 -7 1507 l 2,44,45
 -7 1562 -7 1562 92.3863636364 1562 c 128,-1,46
 191.772727273 1562 191.772727273 1562 292 1457 c 1,47,48
 344.5 1562 344.5 1562 453 1562 c 0,49,50
 511 1562 511 1562 531 1547 c 0,51,52
 563.96969697 1522.27272727 563.96969697 1522.27272727 572 1503 c 1,53,54
 509 1427 509 1427 509 1324 c 128,-1,55
 509 1221 509 1221 592.5 811.5 c 128,-1,56
 676 402 676 402 681 368 c 1,57,58
 733 534 733 534 733 596.5 c 128,-1,59
 733 659 733 659 726.5 691 c 128,-1,60
 720 723 720 723 713 735.5 c 128,-1,61
 706 748 706 748 706 753 c 1,62,63
 797.127027027 904.878378378 797.127027027 904.878378378 835.5 1121.5 c 0,64,65
 851 1209 851 1209 851 1315 c 128,-1,66
 851 1421 851 1421 788 1503 c 1,67,68
 789 1505 789 1505 790 1509 c 128,-1,69
 791 1513 791 1513 797.5 1523.5 c 128,-1,70
 804 1534 804 1534 812 1541.5 c 0,71,72
 833.866666667 1562 833.866666667 1562 867.433333333 1562 c 128,-1,73
 901 1562 901 1562 928.5 1551 c 128,-1,74
 956 1540 956 1540 971.5 1525 c 0,75,76
 1005.09502262 1492.48868778 1005.09502262 1492.48868778 1018 1457 c 1,77,78
 1059.08163265 1498.08163265 1059.08163265 1498.08163265 1118.04081633 1530.04081633 c 128,-1,79
 1177 1562 1177 1562 1220 1562 c 0,0,1
EndSplineSet
EndChar

StartChar: W
Encoding: 77 87 56
Width: 1888
Flags: HW
LayerCount: 2
Fore
SplineSet
1811 1562 m 0,0,1
 1881 1562 1881 1562 1881 1510 c 2,2,-1
 1881 1503 l 1,3,4
 1795 1420 1795 1420 1745.5 1259.5 c 128,-1,5
 1696 1099 1696 1099 1696 910 c 0,6,7
 1696 838 1696 838 1706 800.5 c 128,-1,8
 1716 763 1716 763 1716 762 c 0,9,10
 1596.62176166 553.088082902 1596.62176166 553.088082902 1542 332 c 0,11,12
 1521 247 1521 247 1521 169.5 c 128,-1,13
 1521 92 1521 92 1574 10 c 1,14,-1
 1574 6 l 2,15,16
 1574 -50 1574 -50 1461 -50 c 0,17,18
 1412.63636364 -50 1412.63636364 -50 1379.81818182 -21.5 c 0,19,20
 1327.20833333 24.1875 1327.20833333 24.1875 1300 65 c 1,21,22
 1271.45762712 -6.35593220339 1271.45762712 -6.35593220339 1185.5 -37.5 c 0,23,24
 1151 -50 1151 -50 1114 -50 c 128,-1,25
 1077 -50 1077 -50 1055 -35 c 128,-1,26
 1033 -20 1033 -20 1023 10 c 1,27,28
 1083 92 1083 92 1083 195 c 0,29,30
 1083 230.714285714 1083 230.714285714 1070 293.857142857 c 128,-1,31
 1057 357 1057 357 1046 415 c 0,32,33
 1014.74834437 579.781456954 1014.74834437 579.781456954 972 746.5 c 2,34,-1
 957 805 l 1,35,36
 898.797468354 630.392405063 898.797468354 630.392405063 850.898734177 442.696202532 c 128,-1,37
 803 255 803 255 803 173.5 c 128,-1,38
 803 92 803 92 856 10 c 1,39,-1
 856 6 l 2,40,41
 856 -50 856 -50 743 -50 c 0,42,43
 694.636363636 -50 694.636363636 -50 661.818181818 -21.5 c 0,44,45
 609.208333333 24.1875 609.208333333 24.1875 582 65 c 1,46,47
 553.457627119 -6.35593220339 553.457627119 -6.35593220339 467.5 -37.5 c 0,48,49
 433 -50 433 -50 396 -50 c 128,-1,50
 359 -50 359 -50 337 -35 c 128,-1,51
 315 -20 315 -20 305 10 c 1,52,53
 365 92 365 92 365 195 c 0,54,55
 365 249 365 249 339 362.5 c 128,-1,56
 313 476 313 476 284.5 550 c 128,-1,57
 256 624 256 624 233 657.5 c 128,-1,58
 210 691 210 691 190 711 c 128,-1,59
 170 731 170 731 158.5 740.5 c 128,-1,60
 147 750 147 750 147 759 c 128,-1,61
 147 768 147 768 155 778.5 c 128,-1,62
 163 789 163 789 173 800.5 c 0,63,64
 199 830.4 199 830.4 199 920 c 0,65,66
 199 1102 199 1102 145.5 1262 c 128,-1,67
 92 1422 92 1422 6 1503 c 1,68,-1
 6 1507 l 2,69,70
 6 1562 6 1562 97.5454545455 1562 c 128,-1,71
 189.090909091 1562 189.090909091 1562 275 1457 c 1,72,73
 327.5 1562 327.5 1562 436 1562 c 0,74,75
 494 1562 494 1562 514 1547 c 0,76,77
 546.96969697 1522.27272727 546.96969697 1522.27272727 555 1503 c 1,78,79
 494.683495737 1422.81452963 494.683495737 1422.81452963 494.683495737 1313.4223312 c 0,80,81
 494.683495737 1256.46338935 494.683495737 1256.46338935 508.841747868 1183.23169468 c 128,-1,82
 523 1110 523 1110 576 760 c 128,-1,83
 629 410 629 410 634 368 c 1,84,85
 686 534 686 534 686 592 c 128,-1,86
 686 650 686 650 678 681.5 c 128,-1,87
 670 713 670 713 662.5 727 c 128,-1,88
 655 741 655 741 655 745 c 128,-1,89
 655 749 655 749 659 753 c 0,90,91
 812 930.042857143 812 930.042857143 812 1277 c 0,92,93
 812 1327 812 1327 795 1375 c 128,-1,94
 778 1423 778 1423 764 1445 c 128,-1,95
 750 1467 750 1467 724 1503 c 1,96,-1
 724 1504 l 2,97,98
 724 1522.30434783 724 1522.30434783 746 1536.65217391 c 0,99,100
 784.866666667 1562 784.866666667 1562 824.433333333 1562 c 128,-1,101
 864 1562 864 1562 889 1551 c 128,-1,102
 914 1540 914 1540 930.5 1525 c 0,103,104
 964.416666667 1494.16666667 964.416666667 1494.16666667 983 1457 c 1,105,106
 985 1461 985 1461 988 1468 c 128,-1,107
 991 1475 991 1475 1003 1493.5 c 128,-1,108
 1015 1512 1015 1512 1030 1525.5 c 128,-1,109
 1045 1539 1045 1539 1070 1550.5 c 128,-1,110
 1095 1562 1095 1562 1124 1562 c 128,-1,111
 1153 1562 1153 1562 1175.5 1556 c 128,-1,112
 1198 1550 1198 1550 1210 1541 c 0,113,114
 1234.96969697 1522.27272727 1234.96969697 1522.27272727 1243 1503 c 1,115,116
 1180 1427 1180 1427 1180 1310 c 0,117,118
 1180 1195.2173913 1180 1195.2173913 1262 806.608695652 c 128,-1,119
 1344 418 1344 418 1352 368 c 1,120,121
 1384 535 1384 535 1384 597 c 128,-1,122
 1384 659 1384 659 1377 691 c 128,-1,123
 1370 723 1370 723 1363.5 735.5 c 128,-1,124
 1357 748 1357 748 1358.20688683 753.656520092 c 128,-1,125
 1359.41377367 759.313040183 1359.41377367 759.313040183 1363.57060295 770.677894519 c 128,-1,126
 1367.72743223 782.042748856 1367.72743223 782.042748856 1379.72327885 818.043665482 c 128,-1,127
 1391.71912548 854.044582107 1391.71912548 854.044582107 1402.62911201 890.65449383 c 128,-1,128
 1413.53909855 927.264405553 1413.53909855 927.264405553 1426.86285876 979.868543436 c 128,-1,129
 1440.18661896 1032.47268132 1440.18661896 1032.47268132 1449.76869192 1081.52292971 c 0,130,131
 1472.49197077 1197.84248574 1472.49197077 1197.84248574 1472.49197077 1315.10282628 c 128,-1,132
 1472.49197077 1432.36316681 1472.49197077 1432.36316681 1419 1503 c 1,133,134
 1420 1505 1420 1505 1421 1509 c 128,-1,135
 1422 1513 1422 1513 1428.5 1523.5 c 128,-1,136
 1435 1534 1435 1534 1443 1541.5 c 0,137,138
 1464.86666667 1562 1464.86666667 1562 1498.43333333 1562 c 128,-1,139
 1532 1562 1532 1562 1559.5 1551 c 128,-1,140
 1587 1540 1587 1540 1602.5 1525 c 0,141,142
 1636.09502262 1492.48868778 1636.09502262 1492.48868778 1649 1457 c 1,143,144
 1684.53097345 1499.63716814 1684.53097345 1499.63716814 1730.76548673 1530.81858407 c 128,-1,145
 1777 1562 1777 1562 1811 1562 c 0,0,1
EndSplineSet
EndChar

StartChar: X
Encoding: 78 88 57
Width: 1181
Flags: HW
LayerCount: 2
Fore
SplineSet
721 1503 m 1,0,1
 750.5 1562 750.5 1562 816 1562 c 0,2,3
 865.8 1562 865.8 1562 888 1525 c 0,4,5
 907.821428571 1491.96428571 907.821428571 1491.96428571 911 1457 c 1,6,7
 949.105577689 1498.56972112 949.105577689 1498.56972112 1001.05278884 1530.28486056 c 128,-1,8
 1053 1562 1053 1562 1090 1562 c 0,9,10
 1188 1562 1188 1562 1188 1520 c 1,11,-1
 1183 1503 l 1,12,13
 1114 1442 1114 1442 1071 1372.5 c 128,-1,14
 1028 1303 1028 1303 953 1148 c 2,15,-1
 814 862 l 1,16,17
 832 833 832 833 852 811 c 128,-1,18
 872 789 872 789 881 778.5 c 128,-1,19
 890 768 890 768 890 758 c 128,-1,20
 890 748 890 748 880 735.5 c 128,-1,21
 870 723 870 723 850 698.5 c 128,-1,22
 830 674 830 674 814 648 c 1,23,-1
 946 375 l 2,24,25
 956 356 956 356 979 310.5 c 128,-1,26
 1002 265 1002 265 1009.5 250.5 c 128,-1,27
 1017 236 1017 236 1035.5 202 c 128,-1,28
 1054 168 1054 168 1063 154.5 c 128,-1,29
 1072 141 1072 141 1088 116 c 128,-1,30
 1104 91 1104 91 1117 77 c 128,-1,31
 1130 63 1130 63 1146.5 44.5 c 128,-1,32
 1163 26 1163 26 1182 10 c 1,33,34
 1188 2 1188 2 1188 -9 c 0,35,36
 1188 -50 1188 -50 1089 -50 c 0,37,38
 1054 -50 1054 -50 1011.5 -24 c 128,-1,39
 969 2 969 2 944 28.5 c 2,40,-1
 919 55 l 1,41,42
 919 -8.23684210526 919 -8.23684210526 869 -38.5 c 0,43,44
 850 -50 850 -50 827 -50 c 128,-1,45
 804 -50 804 -50 785 -44 c 128,-1,46
 766 -38 766 -38 754.5 -29 c 0,47,48
 731.04 -10.64 731.04 -10.64 719 10 c 1,49,50
 729 60 729 60 729 112.5 c 128,-1,51
 729 165 729 165 673 311 c 2,52,-1
 593 519 l 1,53,-1
 523 311 l 1,54,55
 469 176 469 176 469 114.5 c 128,-1,56
 469 53 469 53 477 10 c 1,57,58
 463.208333333 -14.1354166667 463.208333333 -14.1354166667 430.604166667 -32.0677083333 c 128,-1,59
 398 -50 398 -50 361.5 -50 c 128,-1,60
 325 -50 325 -50 304 -24 c 128,-1,61
 283 2 283 2 280 28.5 c 2,62,-1
 277 55 l 1,63,64
 273 51 273 51 266.5 44 c 128,-1,65
 260 37 260 37 240.5 18.5 c 128,-1,66
 221 0 221 0 201.5 -13.5 c 0,67,68
 148.777777778 -50 148.777777778 -50 108 -50 c 0,69,70
 9 -50 9 -50 9 -9 c 1,71,-1
 14 10 l 1,72,73
 88 76 88 76 137.5 153 c 128,-1,74
 187 230 187 230 248 375 c 2,75,-1
 360 641 l 1,76,77
 344 669 344 669 323.5 695 c 0,78,79
 282 747.634146341 282 747.634146341 282 757.817073171 c 128,-1,80
 282 768 282 768 291 779 c 128,-1,81
 300 790 300 790 321 813.5 c 128,-1,82
 342 837 342 837 360 868 c 1,83,-1
 242 1148 l 1,84,85
 181 1290 181 1290 133.5 1363.5 c 128,-1,86
 86 1437 86 1437 13 1503 c 1,87,88
 8 1510 8 1510 8 1520 c 0,89,90
 8 1562 8 1562 96.3863636364 1562 c 128,-1,91
 184.772727273 1562 184.772727273 1562 285 1457 c 1,92,93
 285 1520.71794872 285 1520.71794872 335.5 1550.5 c 0,94,95
 355 1562 355 1562 383.5 1562 c 128,-1,96
 412 1562 412 1562 435.5 1547 c 128,-1,97
 459 1532 459 1532 475 1503 c 1,98,99
 465 1447 465 1447 465 1402.5 c 128,-1,100
 465 1358 465 1358 516 1212 c 2,101,-1
 593 991 l 1,102,-1
 681 1212 l 1,103,104
 732 1327 732 1327 732 1387.5 c 128,-1,105
 732 1448 732 1448 721 1503 c 1,0,1
EndSplineSet
EndChar

StartChar: Y
Encoding: 79 89 58
Width: 1235
Flags: HW
LayerCount: 2
Fore
SplineSet
1246 1519 m 1,0,-1
 1245 1504 l 1,1,2
 1141.14289595 1423.45775604 1141.14289595 1423.45775604 1039.5 1270.5 c 0,3,4
 988 1193 988 1193 955 1096.5 c 128,-1,5
 922 1000 922 1000 922 930.5 c 128,-1,6
 922 861 922 861 937.5 822 c 128,-1,7
 953 783 953 783 966.5 767.5 c 128,-1,8
 980 752 980 752 983 752 c 1,9,10
 983 743 983 743 985 739 c 1,11,-1
 962 723 l 1,12,13
 841.780040733 646.860692464 841.780040733 646.860692464 807.5 545 c 0,14,15
 790 493 790 493 790 380.5 c 128,-1,16
 790 268 790 268 816.5 181.5 c 128,-1,17
 843 95 843 95 914 10 c 1,18,19
 884 -50 884 -50 791.291666667 -50 c 128,-1,20
 698.583333333 -50 698.583333333 -50 615 68 c 1,21,22
 572.378378378 -3.03603603604 572.378378378 -3.03603603604 494 -37 c 0,23,24
 464 -50 464 -50 432.5 -50 c 128,-1,25
 401 -50 401 -50 376 -43 c 128,-1,26
 351 -36 351 -36 339.5 -25 c 0,27,28
 321.428571429 -7.71428571429 321.428571429 -7.71428571429 317 10 c 1,29,30
 387 95 387 95 413.5 181.5 c 128,-1,31
 440 268 440 268 440 378.5 c 128,-1,32
 440 489 440 489 426.5 534.5 c 128,-1,33
 413 580 413 580 388.5 612 c 128,-1,34
 364 644 364 644 341.5 664.5 c 128,-1,35
 319 685 319 685 289 708 c 128,-1,36
 259 731 259 731 246 744 c 1,37,-1
 248 746 l 1,38,39
 247 748 247 748 247 752 c 128,-1,40
 247 756 247 756 256.5 768 c 128,-1,41
 266 780 266 780 277.5 795 c 0,42,43
 308 834.782608696 308 834.782608696 308 918.891304348 c 128,-1,44
 308 1003 308 1003 275.5 1099 c 128,-1,45
 243 1195 243 1195 191.5 1272.5 c 0,46,47
 93.4655647383 1420.02754821 93.4655647383 1420.02754821 -14 1506 c 1,48,49
 -17 1515 -17 1515 -17 1519 c 0,50,51
 -17 1561 -17 1561 96 1561 c 0,52,53
 171 1561 171 1561 298 1434 c 1,54,55
 298 1472.18181818 298 1472.18181818 318 1503.09090909 c 0,56,57
 355.470588235 1561 355.470588235 1561 400.735294118 1561 c 128,-1,58
 446 1561 446 1561 476.5 1547.5 c 0,59,60
 519.694290976 1528.38121547 519.694290976 1528.38121547 538 1497 c 1,61,62
 508 1437 508 1437 508 1364.5 c 128,-1,63
 508 1292 508 1292 555.5 1062 c 128,-1,64
 603 832 603 832 618 832 c 0,65,66
 638 832 638 832 685.5 1062 c 128,-1,67
 733 1292 733 1292 733 1366.5 c 128,-1,68
 733 1441 733 1441 705 1497 c 1,69,70
 727.338461538 1523.06153846 727.338461538 1523.06153846 763.169230769 1542.03076923 c 128,-1,71
 799 1561 799 1561 832 1561 c 128,-1,72
 865 1561 865 1561 888.5 1548 c 128,-1,73
 912 1535 912 1535 924 1516.5 c 0,74,75
 949.31092437 1477.4789916 949.31092437 1477.4789916 956 1434 c 1,76,77
 1018.80254777 1512.50318471 1018.80254777 1512.50318471 1087.5 1547.5 c 0,78,79
 1114 1561 1114 1561 1135 1561 c 0,80,81
 1246 1561 1246 1561 1246 1519 c 1,0,-1
EndSplineSet
EndChar

StartChar: Z
Encoding: 80 90 59
Width: 1132
Flags: HW
LayerCount: 2
Fore
SplineSet
664 319 m 1,0,1
 656 335 656 335 656 362.5 c 128,-1,2
 656 390 656 390 703.5 425 c 128,-1,3
 751 460 751 460 839 460 c 1,4,-1
 864 459 l 1,5,6
 851 489 851 489 851 542.5 c 128,-1,7
 851 596 851 596 883.5 647.5 c 128,-1,8
 916 699 916 699 974 699 c 1,9,10
 968 675 968 675 968 644.5 c 128,-1,11
 968 614 968 614 985 577 c 128,-1,12
 1002 540 1002 540 1026 510 c 128,-1,13
 1050 480 1050 480 1073.5 448 c 0,14,15
 1131 369.70212766 1131 369.70212766 1131 282.85106383 c 128,-1,16
 1131 196 1131 196 1093.5 123.5 c 128,-1,17
 1056 51 1056 51 995 4.5 c 0,18,19
 867.096774194 -93 867.096774194 -93 702 -93 c 0,20,21
 590 -93 590 -93 498 -39.5 c 128,-1,22
 406 14 406 14 361 118 c 1,23,24
 261.498871332 -9.93002257336 261.498871332 -9.93002257336 150.5 -70 c 0,25,26
 108 -93 108 -93 79 -93 c 128,-1,27
 50 -93 50 -93 28 -72.5 c 128,-1,28
 6 -52 6 -52 6 -28.5 c 128,-1,29
 6 -5 6 -5 11 7 c 1,30,31
 101.393489185 79.7557351977 101.393489185 79.7557351977 228 303.5 c 0,32,33
 286 406 286 406 326.5 528.5 c 128,-1,34
 367 651 367 651 367 749 c 0,35,36
 367 782.166666667 367 782.166666667 354.5 805.083333333 c 128,-1,37
 342 828 342 828 342 831.5 c 128,-1,38
 342 835 342 835 369.5 855.5 c 128,-1,39
 397 876 397 876 435.5 912 c 128,-1,40
 474 948 474 948 513 995 c 128,-1,41
 552 1042 552 1042 579.5 1112 c 128,-1,42
 607 1182 607 1182 607 1263.5 c 128,-1,43
 607 1345 607 1345 554 1394 c 128,-1,44
 501 1443 501 1443 437 1443 c 128,-1,45
 373 1443 373 1443 339.5 1402 c 128,-1,46
 306 1361 306 1361 306 1306 c 128,-1,47
 306 1251 306 1251 337 1211.5 c 128,-1,48
 368 1172 368 1172 409 1172 c 128,-1,49
 450 1172 450 1172 472 1179 c 1,50,51
 480 1163 480 1163 480 1139.5 c 128,-1,52
 480 1116 480 1116 438 1087 c 128,-1,53
 396 1058 396 1058 317 1058 c 1,54,-1
 292 1059 l 1,55,56
 305 1029 305 1029 305 975.5 c 128,-1,57
 305 922 305 922 272.5 870.5 c 128,-1,58
 240 819 240 819 182 819 c 1,59,60
 188 843 188 843 188 875 c 128,-1,61
 188 907 188 907 171 947 c 128,-1,62
 154 987 154 987 130 1019.5 c 128,-1,63
 106 1052 106 1052 82.5 1086 c 0,64,65
 25 1169.19148936 25 1169.19148936 25 1261.09574468 c 128,-1,66
 25 1353 25 1353 87 1422.5 c 128,-1,67
 149 1492 149 1492 241.5 1527 c 128,-1,68
 334 1562 334 1562 444 1562 c 128,-1,69
 554 1562 554 1562 647 1513.5 c 128,-1,70
 740 1465 740 1465 775 1370 c 1,71,72
 878.259067358 1488.01036269 878.259067358 1488.01036269 985.5 1541 c 0,73,74
 1028 1562 1028 1562 1057 1562 c 128,-1,75
 1086 1562 1086 1562 1108 1541.5 c 128,-1,76
 1130 1521 1130 1521 1130 1497.5 c 128,-1,77
 1130 1474 1130 1474 1125 1462 c 1,78,79
 1035.99384826 1394.70266576 1035.99384826 1394.70266576 910.5 1183 c 0,80,81
 853 1086 853 1086 813 969 c 128,-1,82
 773 852 773 852 773 756 c 0,83,84
 773 721 773 721 796 675 c 1,85,86
 796 669.898305085 796 669.898305085 746.5 627.949152542 c 128,-1,87
 697 586 697 586 662.5 544.5 c 128,-1,88
 628 503 628 503 598.5 456 c 0,89,90
 529 345.271186441 529 345.271186441 529 208 c 0,91,92
 529 123 529 123 584 77 c 128,-1,93
 639 31 639 31 708.5 31 c 128,-1,94
 778 31 778 31 815 70.5 c 128,-1,95
 852 110 852 110 852 170 c 128,-1,96
 852 230 852 230 816 278 c 128,-1,97
 780 326 780 326 713 326 c 0,98,99
 692 326 692 326 664 319 c 1,0,1
EndSplineSet
EndChar

StartChar: bracketleft
Encoding: 81 91 60
Width: 666
Flags: HW
LayerCount: 2
Fore
SplineSet
604 -387 m 1,0,-1
 101 -387 l 1,1,-1
 101 1375 l 1,2,-1
 604 1375 l 1,3,-1
 604 1235 l 1,4,-1
 325 1235 l 1,5,-1
 325 -247 l 1,6,-1
 604 -247 l 1,7,-1
 604 -387 l 1,0,-1
EndSplineSet
EndChar

StartChar: backslash
Encoding: 82 92 61
Width: 852
Flags: HW
LayerCount: 2
Fore
SplineSet
215 1395 m 1,0,-1
 804 -35 l 1,1,-1
 639 -35 l 1,2,-1
 50 1395 l 1,3,-1
 215 1395 l 1,0,-1
EndSplineSet
EndChar

StartChar: bracketright
Encoding: 83 93 62
Width: 663
Flags: HW
LayerCount: 2
Fore
SplineSet
561 -387 m 1,0,-1
 58 -387 l 1,1,-1
 58 -247 l 1,2,-1
 337 -247 l 1,3,-1
 337 1235 l 1,4,-1
 58 1235 l 1,5,-1
 58 1375 l 1,6,-1
 561 1375 l 1,7,-1
 561 -387 l 1,0,-1
EndSplineSet
EndChar

StartChar: asciicircum
Encoding: 84 94 63
Width: 1057
Flags: HW
LayerCount: 2
Fore
SplineSet
237 583 m 1,0,-1
 58 583 l 1,1,-1
 456 1315 l 1,2,-1
 603 1315 l 1,3,-1
 999 583 l 1,4,-1
 820 583 l 1,5,-1
 529 1126 l 1,6,-1
 237 583 l 1,0,-1
EndSplineSet
EndChar

StartChar: underscore
Encoding: 85 95 64
Width: 1260
Flags: HW
LayerCount: 2
Fore
SplineSet
111 -154 m 1,0,-1
 1147 -154 l 1,1,-1
 1147 -256 l 1,2,-1
 111 -256 l 1,3,-1
 111 -154 l 1,0,-1
EndSplineSet
EndChar

StartChar: quoteleft
Encoding: 372 8216 65
Width: 448
Flags: HW
LayerCount: 2
Fore
SplineSet
363 1395 m 1,0,-1
 363 1300 l 1,1,2
 281 1279 281 1279 240.5 1232 c 128,-1,3
 200 1185 200 1185 200 1098 c 1,4,-1
 202 1098 l 1,5,6
 237 1115 237 1115 311 1115 c 1,7,8
 372 1034 372 1034 372 928 c 1,9,10
 357 895 357 895 319.5 874 c 128,-1,11
 282 853 282 853 224 853 c 0,12,13
 166 853 166 853 101 888 c 1,14,15
 73 992 73 992 73 1108 c 0,16,17
 73 1224 73 1224 150.5 1303.5 c 128,-1,18
 228 1383 228 1383 363 1395 c 1,0,-1
EndSplineSet
EndChar

StartChar: a
Encoding: 87 97 66
Width: 1133
Flags: HW
LayerCount: 2
Fore
SplineSet
732 107 m 1,0,1
 703.837209302 6.41860465116 703.837209302 6.41860465116 623 -34 c 0,2,3
 585 -53 585 -53 546 -61.5 c 128,-1,4
 507 -70 507 -70 445.125 -70 c 128,-1,5
 383.25 -70 383.25 -70 315 -44 c 0,6,7
 273 -28 273 -28 240.5 -2 c 128,-1,8
 208 24 208 24 181 70.5 c 128,-1,9
 154 117 154 117 142.940298507 176.671641791 c 128,-1,10
 131.880597015 236.343283582 131.880597015 236.343283582 75.5 304 c 0,11,12
 58 325 58 325 58 330 c 128,-1,13
 58 335 58 335 93.3421052632 375.539473684 c 128,-1,14
 128.684210526 416.078947368 128.684210526 416.078947368 138 458 c 0,15,16
 167.252054795 592.559452055 167.252054795 592.559452055 270 648.5 c 0,17,18
 315 673 315 673 367 690 c 128,-1,19
 419 707 419 707 467.5 721 c 128,-1,20
 516 735 516 735 556 754.5 c 128,-1,21
 596 774 596 774 620 811.5 c 128,-1,22
 644 849 644 849 644 921.5 c 128,-1,23
 644 994 644 994 639 1056.5 c 0,24,25
 636 1094 636 1094 628.5 1114 c 128,-1,26
 621 1134 621 1134 609 1153 c 128,-1,27
 597 1172 597 1172 578 1179.5 c 128,-1,28
 559 1187 559 1187 525 1187 c 128,-1,29
 491 1187 491 1187 466 1158 c 128,-1,30
 441 1129 441 1129 441 1085 c 128,-1,31
 441 1041 441 1041 471.5 978.5 c 128,-1,32
 502 916 502 916 555 903 c 1,33,34
 527.731830442 838.804636244 527.731830442 838.804636244 465.365915221 838.902318122 c 128,-1,35
 403 839 403 839 350 880 c 1,36,37
 354.625 875.375 354.625 875.375 328 831 c 0,38,39
 316 811 316 811 299 791 c 128,-1,40
 282 771 282 771 255 757 c 128,-1,41
 228 743 228 743 200 743 c 128,-1,42
 172 743 172 743 160 758 c 1,43,44
 212 810 212 810 212 856 c 0,45,46
 212 873 212 873 198 928.5 c 128,-1,47
 184 984 184 984 184 1011 c 0,48,49
 184 1132.51219512 184 1132.51219512 277 1208.5 c 0,50,51
 318 1242 318 1242 390.857142857 1277 c 128,-1,52
 463.714285714 1312 463.714285714 1312 559 1312 c 0,53,54
 958 1312 958 1312 958 876 c 0,55,56
 958 770.722222222 958 770.722222222 998 688.5 c 0,57,58
 1016.55149935 650.366362451 1016.55149935 650.366362451 1082 612 c 1,59,60
 1082 608 1082 608 1070.5 600 c 128,-1,61
 1059 592 1059 592 1042 574.5 c 128,-1,62
 1025 557 1025 557 1008 530 c 128,-1,63
 991 503 991 503 979.5 452 c 128,-1,64
 968 401 968 401 968 302 c 128,-1,65
 968 203 968 203 994 128.5 c 128,-1,66
 1020 54 1020 54 1070 1 c 1,67,68
 1060.64220183 -16.1559633028 1060.64220183 -16.1559633028 1032 -31.5 c 0,69,70
 1018 -39 1018 -39 992.5 -44.5 c 128,-1,71
 967 -50 967 -50 933.5 -50 c 128,-1,72
 900 -50 900 -50 865.5 -33 c 0,73,74
 781.240384615 8.51923076923 781.240384615 8.51923076923 732 107 c 1,0,1
424.958677686 314.469571751 m 2,75,76
 424.958677686 89 424.958677686 89 520 89 c 0,77,78
 559.529411765 89 559.529411765 89 580 103.5 c 0,79,80
 592 112 592 112 601 120 c 128,-1,81
 610 128 610 128 616.5 145 c 128,-1,82
 623 162 623 162 633.5 188.25 c 128,-1,83
 644 214.5 644 214.5 644 357 c 2,84,85
 644 530.5 l 2,86,87
 644 683 644 683 645 683 c 1,88,89
 619 656 619 656 561.862275449 612.780439122 c 128,-1,90
 504.724550898 569.560878244 504.724550898 569.560878244 471 526 c 0,91,92
 425 466.583333333 425 466.583333333 425 336 c 2,93,-1
 424.958677686 314.469571751 l 2,75,76
EndSplineSet
EndChar

StartChar: b
Encoding: 88 98 67
Width: 1182
Flags: HW
HStem: -70 159<508.672 709.674> -51 21G<111 212.5> 1129 182<577.48 824>
VStem: 177 305<112.91 540.092 681.774 1089.39> 740 303<150.54 554.647 675.402 1081.55>
LayerCount: 2
Fore
SplineSet
161 1678 m 0,0,1
 259.181818182 1678 259.181818182 1678 326 1573 c 1,2,3
 329 1577 329 1577 333.5 1584 c 128,-1,4
 338 1591 338 1591 354.5 1609.5 c 128,-1,5
 371 1628 371 1628 388.5 1641.5 c 0,6,7
 435.814814815 1678 435.814814815 1678 485.907407407 1678 c 128,-1,8
 536 1678 536 1678 562.5 1663 c 128,-1,9
 589 1648 589 1648 593 1633.5 c 2,10,-1
 597 1619 l 1,11,12
 504.948445792 1442.56785444 504.948445792 1442.56785444 485 1205 c 1,13,14
 615 1311 615 1311 743.5 1311 c 128,-1,15
 872 1311 872 1311 957.5 1200.5 c 128,-1,16
 1043 1090 1043 1090 1043 889 c 0,17,18
 1043 691.19047619 1043 691.19047619 1132.5 623 c 0,19,20
 1143 615 1143 615 1143 611 c 1,21,22
 1141 609 1141 609 1128.5 599 c 128,-1,23
 1116 589 1116 589 1107 580.5 c 128,-1,24
 1098 572 1098 572 1085 551 c 128,-1,25
 1072 530 1072 530 1063.5 505 c 0,26,27
 1043 444.705882353 1043 444.705882353 1043 346.852941176 c 128,-1,28
 1043 249 1043 249 1009 169.5 c 128,-1,29
 975 90 975 90 919.5 38.5 c 0,30,31
 802.572815534 -70 802.572815534 -70 638.422122053 -70 c 128,-1,32
 474.271428571 -70 474.271428571 -70 373 69 c 1,33,34
 276 -51 276 -51 161 -51 c 0,35,36
 105.117647059 -51 105.117647059 -51 88.0588235294 -36.5 c 0,37,38
 59.3495145631 -12.0970873786 59.3495145631 -12.0970873786 56 8 c 1,39,40
 123 73 123 73 149.5 148.5 c 128,-1,41
 176 224 176 224 177 360 c 1,42,43
 171.082191781 540.493150685 171.082191781 540.493150685 76 601 c 0,44,45
 65 608 65 608 65 612 c 128,-1,46
 65 616 65 616 76.5 623 c 128,-1,47
 88 630 88 630 104.5 645.5 c 128,-1,48
 121 661 121 661 137.5 687 c 0,49,50
 177 749.242424242 177 749.242424242 177 889 c 2,51,-1
 177 1143 l 2,52,53
 177 1329 177 1329 150.5 1430.5 c 128,-1,54
 124 1532 124 1532 56 1619 c 1,55,56
 56 1654.72093023 56 1654.72093023 111.5 1671.5 c 0,57,58
 133 1678 133 1678 161 1678 c 0,0,1
482 356 m 2,59,-1
 482 289.5 l 2,60,61
 482 168.769230769 482 168.769230769 503.5 139 c 0,62,63
 526.692307692 106.887573964 526.692307692 106.887573964 540.846153846 101.443786982 c 0,64,65
 593.246376812 81.2898550725 593.246376812 81.2898550725 632.123188406 88.6449275362 c 128,-1,66
 671 96 671 96 684.5 106.5 c 128,-1,67
 698 117 698 117 707.5 127 c 128,-1,68
 717 137 717 137 723 157.5 c 128,-1,69
 729 178 729 178 732.5 193.5 c 128,-1,70
 736 209 736 209 737.5 240 c 0,71,72
 740 291.666666667 740 291.666666667 740 351.833333333 c 128,-1,73
 740 412 740 412 733 457.5 c 128,-1,74
 726 503 726 503 713.5 529.5 c 128,-1,75
 701 556 701 556 691 571 c 128,-1,76
 681 586 681 586 667.5 597.5 c 128,-1,77
 654 609 654 609 653.5 612.5 c 128,-1,78
 653 616 653 616 662 623.5 c 128,-1,79
 671 631 671 631 683.5 646 c 128,-1,80
 696 661 696 661 709 686.5 c 0,81,82
 740 747.307692308 740 747.307692308 740 889 c 0,83,84
 740 1129 740 1129 610.5 1129 c 128,-1,85
 481 1129 481 1129 481 889 c 0,86,87
 481 801 481 801 494.5 741.5 c 128,-1,88
 508 682 508 682 524 662 c 128,-1,89
 540 642 540 642 553.5 629.5 c 128,-1,90
 567 617 567 617 567 612.5 c 128,-1,91
 567 608 567 608 558 599.5 c 128,-1,92
 549 591 549 591 537 574 c 128,-1,93
 525 557 525 557 512.5 530.5 c 0,94,95
 482 465.84 482 465.84 482 356 c 2,59,-1
EndSplineSet
EndChar

StartChar: c
Encoding: 89 99 68
Width: 1008
Flags: HW
LayerCount: 2
Fore
SplineSet
949 703 m 1,0,1
 940 679 940 679 901 679 c 128,-1,2
 862 679 862 679 822 705.5 c 128,-1,3
 782 732 782 732 762 758 c 2,4,-1
 742 784 l 1,5,6
 703 759 703 759 662 759 c 128,-1,7
 621 759 621 759 600 764.5 c 128,-1,8
 579 770 579 770 568 778 c 128,-1,9
 557 786 557 786 550 795.5 c 0,10,11
 539 810.428571429 539 810.428571429 539 821 c 1,12,-1
 540 826 l 1,13,14
 593 826 593 826 636.5 889.5 c 128,-1,15
 680 953 680 953 680 1011.5 c 0,16,17
 680 1131 680 1131 564 1131 c 0,18,19
 501.75 1131 501.75 1131 483.375 1106.5 c 128,-1,20
 465 1082 465 1082 457.5 1065.5 c 128,-1,21
 450 1049 450 1049 446.5 1013.5 c 0,22,23
 442 967.857142857 442 967.857142857 442 887.928571429 c 128,-1,24
 442 808 442 808 452 757.5 c 128,-1,25
 462 707 462 707 477 683 c 128,-1,26
 492 659 492 659 506.5 645 c 128,-1,27
 521 631 521 631 531 624 c 128,-1,28
 541 617 541 617 541 612 c 128,-1,29
 541 607 541 607 531 600.5 c 128,-1,30
 521 594 521 594 506.5 581 c 128,-1,31
 492 568 492 568 477 545 c 0,32,33
 442 491.333333333 442 491.333333333 442 365.166666667 c 128,-1,34
 442 239 442 239 489.5 175.5 c 128,-1,35
 537 112 537 112 624 112 c 0,36,37
 718.965517241 112 718.965517241 112 760 182 c 0,38,39
 802 253.647058824 802 253.647058824 802 399 c 0,40,41
 802 417 802 417 823.5 427 c 128,-1,42
 845 437 845 437 877.5 437 c 128,-1,43
 910 437 910 437 935.5 426 c 128,-1,44
 961 415 961 415 961 396 c 0,45,46
 961 152.647058824 961 152.647058824 848 33 c 0,47,48
 750.722222222 -70 750.722222222 -70 595 -70 c 0,49,50
 197 -70 197 -70 143 351 c 0,51,52
 127.087431694 482.278688525 127.087431694 482.278688525 103.543715847 522.639344262 c 128,-1,53
 80 563 80 563 68 577.5 c 128,-1,54
 56 592 56 592 48 599 c 128,-1,55
 40 606 40 606 40 611 c 2,56,-1
 40 613 l 2,57,58
 40 618 40 618 50 625 c 128,-1,59
 60 632 60 632 75 646.5 c 128,-1,60
 90 661 90 661 104.5 685.5 c 0,61,62
 139 743.793103448 139 743.793103448 139 875 c 1,63,64
 144 1081 144 1081 258 1196 c 128,-1,65
 372 1311 372 1311 562 1311 c 0,66,67
 682.138888889 1311 682.138888889 1311 806.5 1237 c 0,68,69
 867 1201 867 1201 906.5 1137.5 c 128,-1,70
 946 1074 946 1074 946 1015 c 128,-1,71
 946 956 946 956 932 887 c 128,-1,72
 918 818 918 818 918 784.5 c 128,-1,73
 918 751 918 751 949 703 c 1,0,1
EndSplineSet
EndChar

StartChar: d
Encoding: 90 100 69
Width: 1188
Flags: HW
LayerCount: 2
Fore
SplineSet
699 291 m 2,0,-1
 699 356.5 l 2,1,2
 699 465.84 699 465.84 677.5 511.42 c 128,-1,3
 656 557 656 557 644 574 c 128,-1,4
 632 591 632 591 623 599.5 c 128,-1,5
 614 608 614 608 614 612.5 c 128,-1,6
 614 617 614 617 627.5 629.5 c 128,-1,7
 641 642 641 642 657 662 c 128,-1,8
 673 682 673 682 686.5 741.5 c 128,-1,9
 700 801 700 801 700 889 c 0,10,11
 700 1149 700 1149 570.5 1149 c 128,-1,12
 441 1149 441 1149 441 889 c 0,13,14
 441 688.5 441 688.5 519 623.5 c 0,15,16
 528 616 528 616 527.5 612.5 c 128,-1,17
 527 609 527 609 513.5 597.5 c 128,-1,18
 500 586 500 586 490 571 c 128,-1,19
 480 556 480 556 467.5 529.5 c 0,20,21
 441 473.32 441 473.32 441 388.66 c 128,-1,22
 441 304 441 304 441.5 279 c 128,-1,23
 442 254 442 254 444.5 217.5 c 128,-1,24
 447 181 447 181 451.5 163.5 c 128,-1,25
 456 146 456 146 465.5 124 c 128,-1,26
 475 102 475 102 489 92.5 c 0,27,28
 523.631578947 69 523.631578947 69 556.815789474 69 c 128,-1,29
 590 69 590 69 605.5 71.5 c 128,-1,30
 621 74 621 74 633.5 80.5 c 128,-1,31
 646 87 646 87 655 93 c 128,-1,32
 664 99 664 99 671 113.5 c 128,-1,33
 678 128 678 128 683 137.5 c 128,-1,34
 688 147 688 147 691 168.5 c 128,-1,35
 694 190 694 190 695.5 203 c 0,36,37
 699 233.333333333 699 233.333333333 699 291 c 2,0,-1
808 69 m 1,38,39
 706.728571429 -70 706.728571429 -70 528 -70 c 0,40,41
 378.427184466 -70 378.427184466 -70 261.5 38.5 c 0,42,43
 206 90 206 90 172 169.5 c 128,-1,44
 138 249 138 249 138 322 c 128,-1,45
 138 395 138 395 132 437.5 c 128,-1,46
 126 480 126 480 117.5 505 c 128,-1,47
 109 530 109 530 96 551 c 128,-1,48
 83 572 83 572 74 580.5 c 128,-1,49
 65 589 65 589 52.5 599 c 128,-1,50
 40 609 40 609 38 611 c 1,51,52
 38 615 38 615 48.5 623 c 128,-1,53
 59 631 59 631 73.5 647 c 128,-1,54
 88 663 88 663 102.5 689 c 0,55,56
 138 752.655172414 138 752.655172414 138 889 c 0,57,58
 138 1090 138 1090 231.5 1200.5 c 128,-1,59
 325 1311 325 1311 471 1311 c 128,-1,60
 617 1311 617 1311 696 1205 c 1,61,62
 676.051554208 1442.56785444 676.051554208 1442.56785444 584 1619 c 1,63,64
 584 1654.16666667 584 1654.16666667 640 1671.5 c 0,65,66
 661 1678 661 1678 690 1678 c 0,67,68
 788.181818182 1678 788.181818182 1678 855 1573 c 1,69,70
 859.888888889 1582.77777778 859.888888889 1582.77777778 879.444444444 1605.38888889 c 128,-1,71
 899 1628 899 1628 917 1641.5 c 0,72,73
 965.666666667 1678 965.666666667 1678 1015.33333333 1678 c 128,-1,74
 1065 1678 1065 1678 1091 1663 c 128,-1,75
 1117 1648 1117 1648 1121 1633.5 c 2,76,-1
 1125 1619 l 1,77,78
 1057 1532 1057 1532 1030.5 1430.5 c 128,-1,79
 1004 1329 1004 1329 1004 1143 c 2,80,-1
 1004 889 l 2,81,82
 1004 684.173913043 1004 684.173913043 1104.5 623 c 0,83,84
 1116 616 1116 616 1116 612 c 128,-1,85
 1116 608 1116 608 1105 601 c 128,-1,86
 1094 594 1094 594 1078 579 c 128,-1,87
 1062 564 1062 564 1046 539.5 c 0,88,89
 1007.97626753 481.276159655 1007.97626753 481.276159655 1004 360 c 1,90,91
 1005 225 1005 225 1031.5 149 c 128,-1,92
 1058 73 1058 73 1125 9 c 1,93,94
 1125 -27.1666666667 1125 -27.1666666667 1069 -44.5 c 0,95,96
 1048 -51 1048 -51 1020 -51 c 0,97,98
 905 -51 905 -51 808 69 c 1,38,39
EndSplineSet
EndChar

StartChar: e
Encoding: 91 101 70
Width: 1053
Flags: HW
HStem: -70 181<541.939 770.702> 1131 181<493.764 662.319>
VStem: 162 305<718.376 1091.05> 694 273<749.427 1104.02> 836 149<187.514 434.078>
LayerCount: 2
Fore
SplineSet
836 401 m 0,0,1
 836 419 836 419 854.5 429 c 128,-1,2
 873 439 873 439 903.5 439 c 128,-1,3
 934 439 934 439 959.5 428 c 128,-1,4
 985 417 985 417 985 398 c 0,5,6
 985 75.0909090909 985 75.0909090909 796 -28 c 0,7,8
 734.114503817 -61.7557251908 734.114503817 -61.7557251908 681.557251908 -65.8778625954 c 128,-1,9
 629 -70 629 -70 599 -70 c 0,10,11
 411 -70 411 -70 297 45.5 c 128,-1,12
 183 161 183 161 162 395 c 1,13,14
 150.098340504 540.795328826 150.098340504 540.795328826 57.5 599 c 0,15,16
 40 610 40 610 38 612 c 1,17,18
 38 615 38 615 51 621.5 c 128,-1,19
 64 628 64 628 82 641.5 c 128,-1,20
 100 655 100 655 118 677 c 0,21,22
 162 730.777777778 162 730.777777778 162 836 c 0,23,24
 162 1312 162 1312 579 1312 c 0,25,26
 777 1312 777 1312 879 1184.5 c 0,27,28
 967 1074.5 967 1074.5 967 865 c 0,29,30
 967 735 967 735 975.5 701 c 128,-1,31
 984 667 984 667 998.5 643 c 128,-1,32
 1013 619 1013 619 1017 611 c 1,33,34
 978 566 978 566 932 566 c 0,35,36
 916 566 916 566 902 572 c 1,37,38
 822 614 822 614 687 614 c 128,-1,39
 552 614 552 614 501 595 c 1,40,41
 460 541.941176471 460 541.941176471 460 402.970588235 c 128,-1,42
 460 264 460 264 510.5 187.5 c 128,-1,43
 561 111 561 111 656.898305085 111 c 128,-1,44
 752.796610169 111 752.796610169 111 794.398305085 183.191176471 c 128,-1,45
 836 255.382352941 836 255.382352941 836 401 c 0,0,1
692 781 m 2,46,-1
 694 909 l 1,47,48
 694 1131 694 1131 595 1131 c 0,49,50
 527.066666667 1131 527.066666667 1131 495 1094 c 0,51,52
 471.133126935 1066.46130031 471.133126935 1066.46130031 469.066563467 1012.73065015 c 128,-1,53
 467 959 467 959 467 863.5 c 128,-1,54
 467 768 467 768 488 716 c 1,55,56
 567 719 567 719 629.5 737.5 c 128,-1,57
 692 756 692 756 692 781 c 2,46,-1
EndSplineSet
EndChar

StartChar: f
Encoding: 92 102 71
Width: 758
Flags: HW
LayerCount: 2
Fore
SplineSet
416.995117188 1499 m 1,0,1
 465.169179857 1481.15722656 465.169179857 1481.15722656 487.821145107 1481.15722656 c 128,-1,2
 510.473110358 1481.15722656 510.473110358 1481.15722656 528.289094647 1485.78379992 c 128,-1,3
 546.105078936 1490.41037329 546.105078936 1490.41037329 561.661426187 1503.93983288 c 128,-1,4
 577.217773438 1517.46929248 577.217773438 1517.46929248 577.217773438 1538.77141997 c 128,-1,5
 577.217773438 1560.07354745 577.217773438 1560.07354745 545.48554237 1578.53677373 c 128,-1,6
 513.753311303 1597 513.753311303 1597 461.987931864 1597 c 128,-1,7
 410.222552426 1597 410.222552426 1597 374.210586023 1576.59593715 c 0,8,9
 308.681640625 1539.46781407 308.681640625 1539.46781407 308.681640625 1449.73046875 c 0,10,11
 308.681640625 1389.09271688 308.681640625 1389.09271688 334.307554094 1324.12000939 c 128,-1,12
 359.933467563 1259.14730189 359.933467563 1259.14730189 403.536521427 1214.57365095 c 128,-1,13
 447.139575292 1170 447.139575292 1170 492.995117188 1170 c 1,14,-1
 681.995117188 1181 l 1,15,16
 720.917447285 1181 720.917447285 1181 745.956282237 1161.00775194 c 128,-1,17
 770.995117188 1141.01550388 770.995117188 1141.01550388 770.995117188 1100.91640578 c 128,-1,18
 770.995117188 1060.81730769 770.995117188 1060.81730769 745.663595449 1038.40865385 c 128,-1,19
 720.33207371 1016 720.33207371 1016 681.995117188 1016 c 0,20,21
 562.995117188 1016 562.995117188 1016 523.995117188 1027 c 1,22,-1
 523.995117188 958 l 2,23,24
 523.995117188 823.664609921 523.995117188 823.664609921 539.476166751 770.010673927 c 128,-1,25
 554.957216313 716.356737933 554.957216313 716.356737933 566.476166751 692.142654681 c 128,-1,26
 577.995117188 667.928571429 577.995117188 667.928571429 589.514067625 655.449182054 c 128,-1,27
 601.033018063 642.969792679 601.033018063 642.969792679 610.557799404 634.958981212 c 0,28,29
 631.995117188 616.929138322 631.995117188 616.929138322 631.995117188 609.262069161 c 128,-1,30
 631.995117188 601.595 631.995117188 601.595 620.871117188 593.57225 c 128,-1,31
 609.747117188 585.5495 609.747117188 585.5495 593.871117188 570.93975 c 128,-1,32
 577.995117188 556.33 577.995117188 556.33 562.119117188 530.74025 c 0,33,34
 523.995117188 469.290034014 523.995117188 469.290034014 523.995117188 335.764774092 c 128,-1,35
 523.995117188 202.23951417 523.995117188 202.23951417 551.151869351 131.803474875 c 128,-1,36
 578.308621514 61.3674355804 578.308621514 61.3674355804 644.995117188 8 c 1,37,38
 641.136771478 -28.7513841126 641.136771478 -28.7513841126 588.758581331 -44.6232988048 c 0,39,40
 567.715117188 -51 567.715117188 -51 539.995117188 -51 c 0,41,42
 443.936864761 -51 443.936864761 -51 376.995117188 34 c 1,43,44
 333.959344993 -27.7789497537 333.959344993 -27.7789497537 253.261752241 -46.1641551629 c 0,45,46
 232.035933515 -51 232.035933515 -51 210.709402902 -51 c 128,-1,47
 189.38287229 -51 189.38287229 -51 172.396477732 -47.7461127308 c 128,-1,48
 155.410083174 -44.4922254616 155.410083174 -44.4922254616 144.736613787 -39.2888726919 c 128,-1,49
 134.063144399 -34.0855199223 134.063144399 -34.0855199223 125.94749814 -27.7927599611 c 128,-1,50
 117.831851882 -21.5 117.831851882 -21.5 113.838654603 -15.2072400389 c 0,51,52
 105.541412353 -2.13186455078 105.541412353 -2.13186455078 103.995117188 8 c 1,53,54
 171.637644726 60.9557285822 171.637644726 60.9557285822 198.316380957 131.074561727 c 128,-1,55
 224.995117188 201.193394872 224.995117188 201.193394872 224.995117188 283.733416186 c 128,-1,56
 224.995117188 366.2734375 224.995117188 366.2734375 220.397460938 407.599609375 c 128,-1,57
 215.799804688 448.92578125 215.799804688 448.92578125 208.276367188 475.7265625 c 128,-1,58
 200.752929688 502.52734375 200.752929688 502.52734375 191.139648438 523.673828125 c 128,-1,59
 181.526367188 544.8203125 181.526367188 544.8203125 171.495117188 556.4921875 c 128,-1,60
 161.463867188 568.1640625 161.463867188 568.1640625 151.850585938 577.357421875 c 128,-1,61
 142.237304688 586.55078125 142.237304688 586.55078125 134.713867188 591.3203125 c 0,62,63
 117.995117188 601.919270833 117.995117188 601.919270833 117.995117188 611.162413194 c 128,-1,64
 117.995117188 620.405555556 117.995117188 620.405555556 126.069191262 629.184074074 c 128,-1,65
 134.143265336 637.962592593 134.143265336 637.962592593 146.254376447 647.732592593 c 128,-1,66
 158.365487558 657.502592593 158.365487558 657.502592593 172.495117188 680.554444444 c 128,-1,67
 186.624746818 703.606296296 186.624746818 703.606296296 198.735857929 734.991851852 c 0,68,69
 226.995117188 808.224814815 226.995117188 808.224814815 226.995117188 953 c 1,70,-1
 222.995117188 1025 l 1,71,72
 146.995117188 1019 146.995117188 1019 107.326638927 1019 c 128,-1,73
 67.6581606659 1019 67.6581606659 1019 42.3266389267 1041.40865385 c 128,-1,74
 16.9951171875 1063.81730769 16.9951171875 1063.81730769 16.9951171875 1097.70238059 c 128,-1,75
 16.9951171875 1131.58745348 16.9951171875 1131.58745348 29.2126190031 1149.56353004 c 0,76,77
 52.6174834074 1184 52.6174834074 1184 92.8063002977 1184 c 128,-1,78
 132.995117188 1184 132.995117188 1184 198.995117188 1182 c 1,79,80
 141.987340929 1295.81760885 141.987340929 1295.81760885 141.987340929 1415.73965613 c 0,81,82
 141.987340929 1547.58971999 141.987340929 1547.58971999 215.696798953 1636.6884526 c 0,83,84
 294.545984526 1732 294.545984526 1732 453.995117188 1732 c 0,85,86
 595.690923542 1732 595.690923542 1732 685.792653082 1666.53892036 c 0,87,88
 777 1600.27458303 777 1600.27458303 777 1489.62597656 c 0,89,90
 777 1428.97042879 777 1428.97042879 732.834664067 1390.42496366 c 0,91,92
 703.98040553 1365.24229964 703.98040553 1365.24229964 663.818605128 1334.5927424 c 0,93,94
 594.436542546 1281.64368441 594.436542546 1281.64368441 580.995117188 1223 c 1,95,96
 521.48161802 1229.90427022 521.48161802 1229.90427022 507.727563927 1288.47481615 c 0,97,98
 505.462890625 1298.11874736 505.462890625 1298.11874736 505.462890625 1307.83496094 c 0,99,100
 505.462890625 1356.57569472 505.462890625 1356.57569472 541.995117188 1379 c 1,101,102
 539.030757914 1378.80664062 539.030757914 1378.80664062 517.172341701 1378.80664062 c 128,-1,103
 495.313925489 1378.80664062 495.313925489 1378.80664062 450.189770447 1399.92450453 c 0,104,105
 373.494528525 1435.81746872 373.494528525 1435.81746872 409.006091125 1490.24279835 c 0,106,107
 412.640659026 1495.81316872 412.640659026 1495.81316872 416.995117188 1499 c 1,0,1
EndSplineSet
EndChar

StartChar: g
Encoding: 93 103 72
Width: 1161
Flags: HW
LayerCount: 2
Fore
SplineSet
753 125 m 1,0,1
 658 20 658 20 543.5 20 c 128,-1,2
 429 20 429 20 337.5 62 c 128,-1,3
 246 104 246 104 186.5 190 c 128,-1,4
 127 276 127 276 127 389 c 0,5,6
 127 457 127 457 113.5 504.5 c 128,-1,7
 100 552 100 552 83.5 569 c 128,-1,8
 67 586 67 586 53.5 597 c 128,-1,9
 40 608 40 608 40 613 c 128,-1,10
 40 618 40 618 53.5 631.5 c 128,-1,11
 67 645 67 645 83.5 666.5 c 128,-1,12
 100 688 100 688 113.5 750.5 c 128,-1,13
 127 813 127 813 127 913 c 128,-1,14
 127 1013 127 1013 161.5 1093.5 c 128,-1,15
 196 1174 196 1174 256 1220.5 c 0,16,17
 372.774193548 1311 372.774193548 1311 546 1311 c 0,18,19
 625 1311 625 1311 710.5 1273 c 128,-1,20
 796 1235 796 1235 856 1176 c 1,21,22
 899.103626943 1247.83937824 899.103626943 1247.83937824 963.5 1277 c 0,23,24
 990 1289 990 1289 1028.5 1289 c 128,-1,25
 1067 1289 1067 1289 1099 1278 c 0,26,27
 1144.95973154 1262.20134228 1144.95973154 1262.20134228 1150 1237 c 1,28,29
 1072 1169 1072 1169 1042.5 1094.5 c 128,-1,30
 1013 1020 1013 1020 1013 917 c 128,-1,31
 1013 814 1013 814 1023 763.5 c 128,-1,32
 1033 713 1033 713 1047.5 687.5 c 128,-1,33
 1062 662 1062 662 1077 646.5 c 128,-1,34
 1092 631 1092 631 1102 623.5 c 128,-1,35
 1112 616 1112 616 1112 609.5 c 128,-1,36
 1112 603 1112 603 1096.5 575.5 c 128,-1,37
 1081 548 1081 548 1062.5 516.5 c 0,38,39
 1013 432.216216216 1013 432.216216216 1013 356.608108108 c 128,-1,40
 1013 281 1013 281 1012 229 c 128,-1,41
 1011 177 1011 177 1006.5 109 c 128,-1,42
 1002 41 1002 41 994 -8.5 c 128,-1,43
 986 -58 986 -58 971.5 -115.5 c 128,-1,44
 957 -173 957 -173 937 -213.5 c 128,-1,45
 917 -254 917 -254 887.5 -294 c 128,-1,46
 858 -334 858 -334 820 -358 c 0,47,48
 734.5 -412 734.5 -412 615.75 -412 c 128,-1,49
 497 -412 497 -412 401.5 -355 c 128,-1,50
 306 -298 306 -298 274 -189 c 1,51,52
 256 -111 256 -111 236 -69 c 128,-1,53
 216 -27 216 -27 181 6 c 1,54,55
 197 18 197 18 229.5 18 c 128,-1,56
 262 18 262 18 293 7 c 128,-1,57
 324 -4 324 -4 342.5 -20 c 128,-1,58
 361 -36 361 -36 374.5 -53 c 0,59,60
 399 -83.8518518519 399 -83.8518518519 399 -96 c 1,61,62
 399 -89.0434782609 399 -89.0434782609 425.5 -77.5217391304 c 0,63,64
 465.8 -60 465.8 -60 493.9 -60 c 128,-1,65
 522 -60 522 -60 546.5 -69 c 0,66,67
 595 -86.8163265306 595 -86.8163265306 595 -101 c 0,68,69
 595 -103 595 -103 581.251932644 -104.106601443 c 128,-1,70
 567.503865289 -105.213202886 567.503865289 -105.213202886 550.375966322 -118.349197538 c 0,71,72
 518 -143.179477147 518 -143.179477147 518 -191.700195312 c 0,73,74
 518 -243.605541796 518 -243.605541796 575.02939075 -269.509371525 c 0,75,76
 600.810471132 -281.21962667 600.810471132 -281.21962667 627.12189671 -281.21962667 c 128,-1,77
 653.433322289 -281.21962667 653.433322289 -281.21962667 675.240582514 -271.921804856 c 128,-1,78
 697.047842739 -262.623983041 697.047842739 -262.623983041 715.5978722 -243.599948187 c 0,79,80
 756 -202.165432459 756 -202.165432459 756 -113.700195312 c 0,81,82
 756 -72.4155703369 756 -72.4155703369 754.5 7.90179097881 c 128,-1,83
 753 88.2191522945 753 88.2191522945 753 125 c 1,0,1
656 603.5 m 0,84,85
 647 610 647 610 647 614 c 128,-1,86
 647 618 647 618 656 624.5 c 128,-1,87
 665 631 665 631 677.5 645.5 c 128,-1,88
 690 660 690 660 703 684.5 c 0,89,90
 734 742.923076923 734 742.923076923 734 881 c 0,91,92
 734 1130 734 1130 568 1130 c 0,93,94
 408 1130 408 1130 408 881 c 0,95,96
 408 795 408 795 422 737.5 c 128,-1,97
 436 680 436 680 452 661 c 128,-1,98
 468 642 468 642 482 630 c 128,-1,99
 496 618 496 618 496 614 c 128,-1,100
 496 610 496 610 487 603.5 c 128,-1,101
 478 597 478 597 465 583.5 c 128,-1,102
 452 570 452 570 439 550.5 c 0,103,104
 408 504 408 504 408 413 c 128,-1,105
 408 322 408 322 456.5 270.5 c 128,-1,106
 505 219 505 219 571.5 219 c 128,-1,107
 638 219 638 219 686 270 c 128,-1,108
 734 321 734 321 734 413 c 0,109,110
 734 547.166666667 734 547.166666667 656 603.5 c 0,84,85
EndSplineSet
EndChar

StartChar: h
Encoding: 94 104 73
Width: 1249
Flags: HW
LayerCount: 2
Fore
SplineSet
484 1195 m 1,0,1
 603.107142857 1310 603.107142857 1310 764 1310 c 0,2,3
 891 1310 891 1310 976.5 1210.5 c 128,-1,4
 1062 1111 1062 1111 1062 919 c 0,5,6
 1062 719.761904762 1062 719.761904762 1151.5 626 c 0,7,8
 1162 615 1162 615 1162 611.5 c 128,-1,9
 1162 608 1162 608 1152.5 600.5 c 128,-1,10
 1143 593 1143 593 1129.5 576 c 128,-1,11
 1116 559 1116 559 1103 532.5 c 0,12,13
 1071 467.269230769 1071 467.269230769 1071 339.634615385 c 128,-1,14
 1071 212 1071 212 1098 140 c 128,-1,15
 1125 68 1125 68 1196 3 c 1,16,17
 1169 -51 1169 -51 1077.84090909 -51 c 128,-1,18
 986.681818182 -51 986.681818182 -51 904 56 c 1,19,20
 823.75 -51 823.75 -51 740.875 -51 c 128,-1,21
 658 -51 658 -51 645 3 c 1,22,23
 714 69 714 69 742 146 c 128,-1,24
 770 223 770 223 770 319 c 128,-1,25
 770 415 770 415 760 463 c 128,-1,26
 750 511 750 511 735.5 536.5 c 128,-1,27
 721 562 721 562 706.5 578 c 128,-1,28
 692 594 692 594 682 601.5 c 128,-1,29
 672 609 672 609 672 612.5 c 128,-1,30
 672 616 672 616 681 623 c 128,-1,31
 690 630 690 630 703 644.5 c 128,-1,32
 716 659 716 659 728.5 683.5 c 0,33,34
 759 743.28 759 743.28 759 881.64 c 128,-1,35
 759 1020 759 1020 733 1083.5 c 128,-1,36
 707 1147 707 1147 645 1147 c 0,37,38
 529.96 1147 529.96 1147 493 993 c 0,39,40
 480 938.833333333 480 938.833333333 480 858.916666667 c 128,-1,41
 480 779 480 779 493.5 727 c 128,-1,42
 507 675 507 675 523 657 c 128,-1,43
 539 639 539 639 552.5 627.5 c 128,-1,44
 566 616 566 616 566 612 c 128,-1,45
 566 608 566 608 557 600 c 128,-1,46
 548 592 548 592 536 574.5 c 128,-1,47
 524 557 524 557 511.5 530.5 c 0,48,49
 481 465.84 481 465.84 481 339.42 c 128,-1,50
 481 213 481 213 508 140.5 c 128,-1,51
 535 68 535 68 606 3 c 1,52,53
 599.282051282 -17.1538461538 599.282051282 -17.1538461538 571.641025641 -34.0769230769 c 128,-1,54
 544 -51 544 -51 510 -51 c 0,55,56
 409.545454545 -51 409.545454545 -51 322 56 c 1,57,58
 241.75 -51 241.75 -51 152.875 -51 c 128,-1,59
 64 -51 64 -51 50 3 c 1,60,61
 120 68 120 68 148 141 c 128,-1,62
 176 214 176 214 176 307 c 128,-1,63
 176 400 176 400 165.5 447.5 c 128,-1,64
 155 495 155 495 140.5 523 c 128,-1,65
 126 551 126 551 111.5 570 c 128,-1,66
 97 589 97 589 86.5 599 c 128,-1,67
 76 609 76 609 76 611 c 128,-1,68
 76 613 76 613 86.5 619.5 c 128,-1,69
 97 626 97 626 111.5 641.5 c 128,-1,70
 126 657 126 657 140.5 682.5 c 0,71,72
 176 744.931034483 176 744.931034483 176 879 c 2,73,-1
 176 1133 l 2,74,75
 176 1323 176 1323 149.5 1427 c 128,-1,76
 123 1531 123 1531 55 1619 c 1,77,78
 55 1654.72093023 55 1654.72093023 110.5 1671.5 c 0,79,80
 132 1678 132 1678 160 1678 c 0,81,82
 263.409090909 1678 263.409090909 1678 335 1573 c 1,83,84
 368 1639 368 1639 423 1666.5 c 0,85,86
 446 1678 446 1678 478 1678 c 128,-1,87
 510 1678 510 1678 534 1663 c 128,-1,88
 558 1648 558 1648 562 1633.5 c 2,89,-1
 566 1619 l 1,90,91
 500 1440 500 1440 484 1195 c 1,0,1
EndSplineSet
EndChar

StartChar: i
Encoding: 95 105 74
Width: 615
Flags: HW
LayerCount: 2
Fore
SplineSet
155 1310 m 0,0,1
 242.4375 1310 242.4375 1310 305 1233 c 1,2,3
 335.571428571 1278.85714286 335.571428571 1278.85714286 403.5 1301.5 c 0,4,5
 429 1310 429 1310 455 1310 c 128,-1,6
 481 1310 481 1310 500 1304.5 c 128,-1,7
 519 1299 519 1299 528.5 1291 c 0,8,9
 547.553672316 1274.95480226 547.553672316 1274.95480226 551 1256 c 1,10,11
 488 1195 488 1195 464.5 1128 c 128,-1,12
 441 1061 441 1061 441 952 c 128,-1,13
 441 843 441 843 451 780.5 c 128,-1,14
 461 718 461 718 476 690.5 c 128,-1,15
 491 663 491 663 505.5 649 c 128,-1,16
 520 635 520 635 530 627.5 c 128,-1,17
 540 620 540 620 540 612.5 c 128,-1,18
 540 605 540 605 530 597.5 c 128,-1,19
 520 590 520 590 505.5 574 c 128,-1,20
 491 558 491 558 476 531 c 0,21,22
 441 468 441 468 441 332 c 128,-1,23
 441 196 441 196 465 127.5 c 128,-1,24
 489 59 489 59 551 3 c 1,25,26
 551 -29.4615384615 551 -29.4615384615 500.5 -45 c 0,27,28
 481 -51 481 -51 447 -51 c 128,-1,29
 413 -51 413 -51 375.5 -31.5 c 128,-1,30
 338 -12 338 -12 321.5 7 c 2,31,-1
 305 26 l 1,32,33
 274.428571429 -19.8571428571 274.428571429 -19.8571428571 206.5 -42.5 c 0,34,35
 181 -51 181 -51 148 -51 c 128,-1,36
 115 -51 115 -51 91 -37.5 c 128,-1,37
 67 -24 67 -24 63 -10.5 c 2,38,-1
 59 3 l 1,39,40
 121 59 121 59 145 127.5 c 128,-1,41
 169 196 169 196 169 294 c 128,-1,42
 169 392 169 392 159 448 c 128,-1,43
 149 504 149 504 134.5 531 c 128,-1,44
 120 558 120 558 105 574 c 128,-1,45
 90 590 90 590 80 597.5 c 128,-1,46
 70 605 70 605 70 612.5 c 128,-1,47
 70 620 70 620 80 627.5 c 128,-1,48
 90 635 90 635 105 649 c 128,-1,49
 120 663 120 663 134.5 690.5 c 0,50,51
 169 755.931034483 169 755.931034483 169 907.965517241 c 128,-1,52
 169 1060 169 1060 145.5 1127 c 128,-1,53
 122 1194 122 1194 59 1256 c 1,54,55
 59 1288.46153846 59 1288.46153846 109.5 1304 c 0,56,57
 129 1310 129 1310 155 1310 c 0,0,1
303 1754 m 1,58,-1
 513 1570 l 1,59,-1
 302 1380 l 1,60,-1
 249 1425.5 l 2,61,62
 196 1471 196 1471 143.5 1517 c 2,63,-1
 91 1563 l 1,64,65
 91 1569 91 1569 192.5 1661.5 c 128,-1,66
 294 1754 294 1754 303 1754 c 1,58,-1
EndSplineSet
EndChar

StartChar: j
Encoding: 96 106 75
Width: 830
Flags: HW
LayerCount: 2
Fore
SplineSet
291 -289 m 0,0,1
 184.745762712 -289 184.745762712 -289 96.5 -230.5 c 0,2,3
 -3 -164.539325843 -3 -164.539325843 -3 -26 c 0,4,5
 -3 50.7142857143 -3 50.7142857143 54 114.5 c 128,-1,6
 111 178.285714286 111 178.285714286 111 248 c 0,7,8
 111 268 111 268 107 288 c 1,9,-1
 115 288 l 2,10,11
 165 288 165 288 192.5 234.5 c 128,-1,12
 220 181 220 181 220 136 c 1,13,14
 210 99 210 99 210 71 c 1,15,16
 218 72 218 72 254 72 c 128,-1,17
 290 72 290 72 333 54 c 0,18,19
 401 27 401 27 401 -29 c 0,20,21
 401 -49 401 -49 394 -56 c 1,22,23
 350 -42 350 -42 317 -42 c 128,-1,24
 284 -42 284 -42 253.5 -60 c 128,-1,25
 223 -78 223 -78 223 -116.5 c 128,-1,26
 223 -155 223 -155 252 -178 c 128,-1,27
 281 -201 281 -201 327 -201 c 128,-1,28
 373 -201 373 -201 419 -165 c 128,-1,29
 465 -129 465 -129 465 -68 c 128,-1,30
 465 -7 465 -7 447 39.5 c 128,-1,31
 429 86 429 86 408 114.5 c 0,32,33
 351 191.857142857 351 191.857142857 351 259.428571429 c 128,-1,34
 351 327 351 327 343 390.5 c 128,-1,35
 335 454 335 454 323 488.5 c 128,-1,36
 311 523 311 523 297 547.5 c 128,-1,37
 283 572 283 572 271 581 c 0,38,39
 243 602 243 602 243 612 c 128,-1,40
 243 622 243 622 254 630.5 c 128,-1,41
 265 639 265 639 281 654.5 c 128,-1,42
 297 670 297 670 313 697.5 c 0,43,44
 351 762.8125 351 762.8125 351 904.90625 c 128,-1,45
 351 1047 351 1047 324 1121.5 c 128,-1,46
 297 1196 297 1196 230 1252 c 1,47,48
 230 1287.16666667 230 1287.16666667 286 1304.5 c 0,49,50
 307 1311 307 1311 343.5 1311 c 128,-1,51
 380 1311 380 1311 421 1289.5 c 128,-1,52
 462 1268 462 1268 480 1247 c 2,53,-1
 498 1226 l 1,54,55
 533.244444444 1278.86666667 533.244444444 1278.86666667 606.5 1302 c 0,56,57
 635 1311 635 1311 664 1311 c 128,-1,58
 693 1311 693 1311 714.5 1305 c 128,-1,59
 736 1299 736 1299 746 1290.5 c 0,60,61
 767.650485437 1272.09708738 767.650485437 1272.09708738 771 1252 c 1,62,63
 703 1196 703 1196 676.5 1122 c 128,-1,64
 650 1048 650 1048 650 946 c 128,-1,65
 650 844 650 844 661 784 c 128,-1,66
 672 724 672 724 688 696.5 c 128,-1,67
 704 669 704 669 719.5 653 c 128,-1,68
 735 637 735 637 746 628 c 128,-1,69
 757 619 757 619 757 610.5 c 128,-1,70
 757 602 757 602 746 592.5 c 128,-1,71
 735 583 735 583 719.5 564 c 128,-1,72
 704 545 704 545 688 511.5 c 0,73,74
 650 431.9375 650 431.9375 650 244 c 0,75,76
 650 -40 650 -40 566.5 -164.5 c 128,-1,77
 483 -289 483 -289 291 -289 c 0,0,1
496 1754 m 5,78,-1
 707 1570 l 1,79,-1
 496 1380 l 1,80,-1
 443 1425.5 l 2,81,82
 390 1471 390 1471 337 1517 c 2,83,-1
 284 1563 l 1,84,85
 284 1569 284 1569 385.5 1661.5 c 128,-1,86
 487 1754 487 1754 496 1754 c 5,78,-1
EndSplineSet
EndChar

